{"glyphs":{"0":{"ha":781,"x_min":69,"x_max":711,"o":"m 601 329 l 601 569 q 553 757 601 700 q 390 814 506 814 q 229 757 278 814 q 181 569 181 700 l 181 329 q 229 143 181 199 q 390 88 278 88 q 553 142 506 88 q 601 329 601 197 m 390 -14 q 146 69 222 -14 q 69 329 69 151 l 69 569 q 145 831 69 749 q 390 914 221 914 q 635 832 560 914 q 711 569 711 750 l 711 329 q 635 68 711 150 q 390 -14 560 -14 z "},"1":{"ha":474,"x_min":10,"x_max":376,"o":"m 39 669 l 29 678 q 10 709 11 696 q 26 742 10 722 l 106 840 q 246 914 167 914 q 345 876 314 914 q 376 750 376 838 l 376 47 q 367 10 376 19 q 329 0 357 0 l 315 0 q 278 10 288 0 q 268 47 268 19 l 268 711 q 263 792 268 775 q 253 810 260 806 q 232 814 247 814 q 171 768 206 814 l 97 674 q 70 653 82 654 q 39 669 58 651 z "},"2":{"ha":692,"x_min":57,"x_max":622,"o":"m 622 683 q 588 553 622 611 q 472 432 553 496 l 218 226 q 163 146 163 183 q 179 111 163 121 q 242 101 196 101 l 579 101 q 614 93 606 101 q 622 58 622 85 l 622 43 q 614 8 622 17 q 579 0 606 0 l 236 0 q 99 31 140 0 q 57 131 57 63 q 156 307 57 225 l 390 496 q 488 592 463 554 q 514 678 514 631 q 468 781 514 749 q 321 814 422 814 q 126 783 201 814 q 94 783 103 775 q 85 817 85 790 l 85 839 q 93 872 85 863 q 129 889 101 882 q 319 915 218 915 q 622 683 622 915 z "},"3":{"ha":679,"x_min":53,"x_max":614,"o":"m 242 460 l 242 475 q 250 506 242 497 q 281 514 258 514 l 303 514 q 449 549 406 514 q 492 661 492 583 q 449 779 492 744 q 301 814 406 814 q 114 788 207 814 q 79 789 89 781 q 69 824 69 797 l 69 846 q 78 878 69 869 q 115 894 86 886 q 301 915 193 915 q 600 665 600 915 q 570 542 600 589 q 475 467 540 496 q 614 256 614 425 q 301 -14 614 -14 q 96 11 189 -14 q 61 27 69 18 q 53 61 53 36 l 53 82 q 62 116 53 108 q 96 117 71 124 q 301 88 197 88 q 460 126 414 88 q 506 256 506 165 q 303 421 506 421 l 281 421 q 250 428 258 421 q 242 460 242 436 z "},"4":{"ha":689,"x_min":113,"x_max":650,"o":"m 113 431 l 256 857 q 278 894 265 885 q 319 903 290 903 l 335 903 q 371 893 364 903 q 368 857 378 883 l 214 390 q 213 320 197 342 q 282 299 229 299 l 543 299 l 543 633 q 553 671 543 661 q 590 681 563 681 l 603 681 q 640 671 631 681 q 650 633 650 661 l 650 47 q 640 10 650 19 q 603 0 631 0 l 590 0 q 553 10 563 0 q 543 47 543 19 l 543 197 l 283 197 q 113 253 154 197 q 113 431 72 310 z "},"5":{"ha":708,"x_min":78,"x_max":647,"o":"m 89 578 l 89 753 q 125 867 89 831 q 240 903 161 903 l 556 903 q 590 894 582 903 q 599 860 599 886 l 599 844 q 590 810 599 818 q 556 801 582 801 l 263 801 q 213 786 228 801 q 197 736 197 771 l 197 594 q 263 528 197 528 l 325 528 q 569 463 492 528 q 647 258 647 397 q 568 54 647 121 q 328 -12 489 -12 q 119 13 207 -12 q 87 30 96 19 q 78 61 78 40 l 78 83 q 87 119 78 111 q 121 118 96 126 q 328 89 208 89 q 490 128 440 89 q 539 257 539 168 q 486 392 539 356 q 306 426 435 426 l 240 426 q 125 463 161 426 q 89 578 89 499 z "},"6":{"ha":732,"x_min":69,"x_max":678,"o":"m 385 547 q 607 483 536 547 q 678 278 678 418 q 604 58 678 129 q 379 -12 531 -12 q 144 73 218 -12 q 69 335 69 158 l 69 582 q 149 836 69 757 q 408 915 229 915 q 594 886 513 915 q 604 882 599 885 q 612 878 610 879 q 617 876 614 878 q 622 874 621 875 q 626 870 624 872 q 629 866 628 868 q 631 861 631 864 q 633 854 632 858 q 634 846 633 850 q 636 835 635 842 l 636 815 q 594 782 636 767 q 404 814 501 814 q 225 763 272 814 q 178 586 178 715 l 178 517 q 385 547 268 547 m 375 451 q 178 419 267 451 l 178 342 q 219 150 178 213 q 386 89 264 89 q 528 131 486 89 q 569 272 569 172 q 525 411 569 371 q 375 451 481 451 z "},"7":{"ha":675,"x_min":43,"x_max":607,"o":"m 214 0 l 197 0 q 160 10 165 0 q 168 47 154 19 l 474 663 q 499 749 499 714 q 480 790 499 778 q 415 801 461 801 l 86 801 q 51 810 60 801 q 43 844 43 818 l 43 860 q 51 894 43 886 q 86 903 60 903 l 422 903 q 607 763 607 903 q 536 549 607 690 l 290 47 q 260 10 275 19 q 214 0 244 0 z "},"8":{"ha":761,"x_min":65,"x_max":694,"o":"m 381 915 q 600 854 529 915 q 671 668 671 793 q 644 544 671 589 q 553 469 618 499 q 661 389 628 440 q 694 250 694 338 q 379 -14 694 -14 q 65 249 65 -14 q 100 389 65 338 q 213 469 135 440 q 118 544 146 499 q 90 668 90 589 q 381 915 90 915 m 175 256 q 222 127 175 167 q 381 88 269 88 q 539 127 492 88 q 586 256 586 167 q 537 381 586 340 q 381 421 488 421 q 224 381 274 421 q 175 256 175 340 m 564 661 q 523 779 564 744 q 379 814 482 814 q 236 778 276 814 q 197 661 197 743 q 239 544 197 581 q 381 510 282 510 q 522 545 479 510 q 564 661 564 581 z "},"9":{"ha":732,"x_min":54,"x_max":661,"o":"m 351 357 q 125 420 196 357 q 54 625 54 483 q 128 844 54 774 q 353 915 201 915 q 588 830 514 915 q 661 568 661 744 l 661 319 q 582 65 661 143 q 322 -14 503 -14 q 135 15 211 -14 q 99 36 107 26 q 90 68 90 46 l 90 88 q 100 121 90 114 q 133 119 110 128 q 328 88 229 88 q 504 139 457 88 q 553 317 553 192 l 553 386 q 351 357 475 357 m 365 451 q 553 483 472 451 l 553 561 q 511 753 553 692 q 344 814 469 814 q 203 772 244 814 q 163 631 163 731 q 208 491 163 531 q 365 451 253 451 z "}," ":{"ha":372,"x_min":0,"x_max":0,"o":""},"!":{"ha":358,"x_min":106,"x_max":253,"o":"m 174 903 l 189 903 q 225 894 217 903 q 233 858 233 886 l 233 582 q 218 267 233 415 q 208 241 215 249 q 185 233 201 233 l 176 233 q 153 241 160 233 q 143 267 146 249 q 129 582 129 378 l 129 858 q 138 894 129 886 q 174 903 147 903 m 126 11 q 106 64 106 33 q 126 115 106 94 q 179 138 149 138 q 231 115 210 138 q 253 64 253 94 q 232 11 253 33 q 179 -10 211 -10 q 126 11 147 -10 z "},"\"":{"ha":388,"x_min":58,"x_max":329,"o":"m 242 751 l 242 967 q 249 997 242 989 q 279 1004 256 1004 l 292 1004 q 322 997 314 1004 q 329 967 329 989 l 329 751 q 322 721 329 728 q 292 714 314 714 l 279 714 q 249 721 256 714 q 242 751 242 728 m 58 751 l 58 967 q 65 997 58 989 q 96 1004 72 1004 l 107 1004 q 138 997 131 1004 q 144 967 144 989 l 144 751 q 138 721 144 728 q 107 714 131 714 l 96 714 q 65 721 72 714 q 58 751 58 728 z "},"#":{"ha":907,"x_min":57,"x_max":851,"o":"m 461 38 l 504 218 l 286 218 l 242 38 q 226 8 236 15 q 193 0 217 0 l 179 0 q 150 8 156 0 q 150 38 144 15 l 193 218 l 94 218 q 65 226 72 218 q 57 256 57 233 l 57 264 q 65 294 57 286 q 94 301 72 301 l 215 301 l 290 601 l 156 601 q 126 609 133 601 q 118 639 118 617 l 118 647 q 126 677 118 669 q 156 685 133 685 l 310 685 l 356 865 q 371 895 361 888 q 404 903 381 903 l 418 903 q 447 895 442 903 q 447 865 453 888 l 403 685 l 621 685 l 667 865 q 682 895 672 888 q 715 903 692 903 l 729 903 q 758 895 753 903 q 758 865 764 888 l 714 685 l 814 685 q 844 677 836 685 q 851 647 851 669 l 851 639 q 844 609 851 617 q 814 601 836 601 l 693 601 l 618 301 l 751 301 q 782 294 775 301 q 789 264 789 286 l 789 256 q 782 226 789 233 q 751 218 775 218 l 597 218 l 553 38 q 538 8 547 15 q 504 0 528 0 l 490 0 q 461 8 467 0 q 461 38 456 15 m 525 301 l 600 601 l 382 601 l 307 301 l 525 301 z "},"$":{"ha":688,"x_min":63,"x_max":625,"o":"m 290 -78 l 290 -3 q 107 29 186 0 q 71 49 79 39 q 63 83 63 58 l 63 101 q 107 133 63 153 q 319 100 192 100 q 467 126 421 100 q 514 211 514 153 q 488 288 514 257 q 390 367 463 319 l 206 486 q 72 704 72 574 q 290 901 72 883 l 290 981 q 298 1011 290 1003 q 329 1019 306 1019 l 343 1019 q 374 1011 367 1019 q 382 981 382 1003 l 382 904 q 544 872 467 901 q 576 853 568 864 q 585 819 585 843 l 585 800 q 542 769 585 751 q 349 803 461 803 q 221 778 260 803 q 182 700 182 754 q 203 633 182 661 q 276 569 224 606 l 464 446 q 588 338 550 390 q 625 211 625 285 q 382 0 625 18 l 382 -78 q 374 -108 382 -100 q 343 -117 367 -117 l 329 -117 q 298 -108 306 -117 q 290 -78 290 -100 z "},"%":{"ha":1081,"x_min":65,"x_max":1015,"o":"m 768 903 l 783 903 q 817 894 811 903 q 808 861 822 886 l 383 42 q 356 8 369 17 q 314 0 342 0 l 299 0 q 265 8 271 0 q 274 42 260 17 l 699 861 q 726 894 713 886 q 768 903 740 903 m 483 689 q 275 464 483 464 q 65 689 65 464 q 275 915 65 915 q 483 689 483 915 m 275 829 q 185 797 211 829 q 158 689 158 764 q 185 582 158 614 q 275 550 211 550 q 365 582 338 550 q 392 689 392 614 q 365 797 392 764 q 275 829 338 829 m 1015 214 q 806 -12 1015 -12 q 597 214 597 -12 q 806 439 597 439 q 1015 214 1015 439 m 806 74 q 896 106 869 74 q 922 214 922 139 q 895 321 922 289 q 806 353 868 353 q 717 321 743 353 q 690 214 690 289 q 717 106 690 139 q 806 74 743 74 z "},"&":{"ha":844,"x_min":81,"x_max":819,"o":"m 781 425 l 706 425 l 706 282 q 399 -14 706 -14 q 81 246 81 -14 q 243 472 81 426 q 107 667 107 514 q 399 915 107 915 q 490 908 444 915 q 525 894 517 903 q 533 861 533 886 l 533 844 q 525 810 533 818 q 492 806 517 801 q 397 814 438 814 q 258 778 301 814 q 214 664 214 742 q 255 549 214 585 q 392 514 296 514 l 596 514 l 596 593 q 606 631 596 621 q 643 640 615 640 l 658 640 q 696 631 686 640 q 706 593 706 621 l 706 514 l 781 514 q 811 506 803 514 q 819 475 819 497 l 819 464 q 811 433 819 442 q 781 425 803 425 m 396 88 q 532 119 476 88 q 596 285 596 158 l 596 425 l 394 425 q 240 383 289 425 q 190 250 190 342 q 240 124 190 161 q 396 88 289 88 z "},"'":{"ha":203,"x_min":58,"x_max":144,"o":"m 58 751 l 58 967 q 65 997 58 989 q 96 1004 72 1004 l 107 1004 q 138 997 131 1004 q 144 967 144 989 l 144 751 q 138 721 144 728 q 107 714 131 714 l 96 714 q 65 721 72 714 q 58 751 58 728 z "},"(":{"ha":467,"x_min":76,"x_max":408,"o":"m 76 347 q 324 990 76 743 q 352 1007 340 1007 q 382 992 364 1007 l 392 982 q 408 955 408 965 q 392 928 408 944 q 174 347 174 710 q 392 -232 174 -14 q 393 -287 422 -262 l 382 -297 q 351 -312 364 -312 q 322 -294 339 -311 q 76 347 76 -47 z "},")":{"ha":467,"x_min":72,"x_max":404,"o":"m 404 347 q 158 -294 404 -47 q 129 -312 142 -311 q 99 -297 117 -312 l 88 -287 q 89 -232 58 -262 q 307 347 307 -14 q 89 928 307 710 q 72 955 72 944 q 89 982 72 965 l 99 992 q 128 1007 117 1007 q 157 990 140 1007 q 404 347 404 743 z "},"*":{"ha":635,"x_min":71,"x_max":575,"o":"m 363 981 l 360 807 l 524 865 q 553 867 544 872 q 569 842 561 863 l 572 835 q 575 804 581 814 q 547 788 569 794 l 382 736 l 486 600 q 499 573 500 582 q 479 549 497 564 l 472 543 q 444 531 454 529 q 421 551 433 532 l 322 693 l 224 553 q 201 533 211 535 q 172 544 192 532 l 165 549 q 144 571 146 560 q 157 600 143 582 l 263 738 l 99 788 q 71 804 76 794 q 74 835 65 814 l 76 842 q 93 867 85 863 q 122 865 101 872 l 286 807 l 282 981 q 288 1010 281 1003 q 318 1018 294 1018 l 326 1018 q 356 1011 349 1018 q 363 981 363 1004 z "},"+":{"ha":772,"x_min":76,"x_max":696,"o":"m 696 444 l 696 433 q 688 403 696 411 q 657 394 681 394 l 433 394 l 433 175 q 425 142 433 150 q 392 133 417 133 l 379 133 q 346 142 354 133 q 338 175 338 150 l 338 394 l 115 394 q 84 403 92 394 q 76 433 76 411 l 76 444 q 84 475 76 467 q 115 483 92 483 l 338 483 l 338 703 q 346 736 338 728 q 379 744 354 744 l 392 744 q 425 736 417 744 q 433 703 433 728 l 433 483 l 657 483 q 688 475 681 483 q 696 444 696 467 z "},",":{"ha":274,"x_min":53,"x_max":199,"o":"m 93 -178 q 67 -190 83 -194 q 53 -162 53 -186 q 71 -11 56 -114 q 150 132 96 132 q 185 116 172 132 q 199 74 199 100 q 160 -46 199 36 q 93 -178 119 -137 z "},"-":{"ha":524,"x_min":35,"x_max":489,"o":"m 489 444 l 489 433 q 481 403 489 411 q 450 394 472 394 l 74 394 q 42 403 50 394 q 35 433 35 411 l 35 444 q 42 475 35 467 q 74 483 50 483 l 450 483 q 481 475 472 483 q 489 444 489 467 z "},".":{"ha":283,"x_min":68,"x_max":215,"o":"m 68 63 q 90 115 68 94 q 142 136 111 136 q 194 115 172 136 q 215 63 215 94 q 194 10 215 32 q 142 -11 172 -11 q 90 10 111 -11 q 68 63 68 32 z "},"/":{"ha":419,"x_min":7,"x_max":422,"o":"m 379 1018 l 390 1018 q 422 1010 417 1018 q 419 976 428 1001 l 106 0 q 87 -33 97 -25 q 50 -42 76 -42 l 40 -42 q 8 -33 14 -42 q 10 0 1 -25 l 324 976 q 342 1010 332 1001 q 379 1018 353 1018 z "},":":{"ha":283,"x_min":68,"x_max":215,"o":"m 68 63 q 90 115 68 94 q 142 136 111 136 q 194 115 172 136 q 215 63 215 94 q 194 10 215 32 q 142 -11 172 -11 q 90 10 111 -11 q 68 63 68 32 m 89 569 q 68 622 68 592 q 89 674 68 653 q 142 696 111 696 q 193 674 172 696 q 215 622 215 653 q 193 569 215 592 q 142 549 172 549 q 89 569 111 549 z "},";":{"ha":276,"x_min":61,"x_max":213,"o":"m 101 -178 q 75 -190 92 -194 q 61 -162 61 -186 q 79 -11 64 -114 q 158 132 104 132 q 194 116 181 132 q 207 74 207 100 q 168 -46 207 36 q 101 -178 128 -137 m 86 569 q 65 622 65 592 q 86 674 65 653 q 139 696 108 696 q 190 674 169 696 q 213 622 213 653 q 190 569 213 592 q 139 549 169 549 q 86 569 108 549 z "},"<":{"ha":615,"x_min":36,"x_max":547,"o":"m 547 165 l 547 151 q 539 120 547 125 q 507 126 531 115 l 124 322 q 36 450 36 367 q 124 578 36 533 l 508 774 q 539 781 531 786 q 547 750 547 776 l 547 736 q 539 697 547 710 q 507 672 531 683 l 156 494 q 125 450 125 481 q 156 407 125 421 l 507 229 q 539 205 531 218 q 547 165 547 192 z "},"=":{"ha":744,"x_min":76,"x_max":668,"o":"m 668 300 l 668 289 q 660 258 668 267 q 629 250 653 250 l 115 250 q 84 258 92 250 q 76 289 76 267 l 76 300 q 84 331 76 322 q 115 339 92 339 l 629 339 q 660 331 653 339 q 668 300 668 322 m 668 615 l 668 604 q 660 573 668 581 q 629 565 653 565 l 115 565 q 84 573 92 565 q 76 604 76 581 l 76 615 q 84 647 76 639 q 115 654 92 654 l 629 654 q 660 647 653 654 q 668 615 668 639 z "},">":{"ha":615,"x_min":68,"x_max":579,"o":"m 68 151 l 68 165 q 76 205 68 192 q 108 229 85 218 l 460 407 q 490 450 490 421 q 460 494 490 481 l 108 672 q 76 697 85 683 q 68 736 68 710 l 68 750 q 76 781 68 776 q 107 774 83 786 l 492 578 q 579 450 579 533 q 492 322 579 367 l 108 126 q 76 120 85 115 q 68 151 68 125 z "},"?":{"ha":567,"x_min":58,"x_max":501,"o":"m 163 -10 q 110 12 132 -10 q 89 64 89 33 q 110 116 89 94 q 163 138 132 138 q 215 116 193 138 q 236 64 236 94 q 215 12 236 33 q 163 -10 194 -10 m 501 658 q 457 503 501 560 q 326 397 415 451 q 214 271 231 339 q 171 242 207 242 l 157 242 q 124 249 133 242 q 115 275 115 256 q 268 481 115 382 q 353 546 326 517 q 393 658 393 586 q 353 778 393 743 q 218 814 313 814 q 100 799 161 814 q 67 799 75 793 q 58 832 58 806 l 58 853 q 67 887 58 876 q 101 903 75 897 q 215 915 163 915 q 433 854 364 915 q 501 658 501 793 z "},"@":{"ha":1301,"x_min":82,"x_max":1224,"o":"m 914 389 l 914 292 q 1011 132 914 132 q 1128 301 1128 132 l 1128 389 q 1090 594 1128 506 q 983 735 1051 683 q 832 813 915 788 q 651 839 749 839 q 304 726 433 839 q 176 388 176 615 l 176 290 q 303 -44 176 64 q 632 -154 429 -154 q 890 -79 786 -154 q 919 -67 908 -65 q 943 -86 929 -68 l 951 -97 q 965 -127 965 -117 q 944 -150 964 -137 q 624 -240 808 -240 q 233 -103 386 -240 q 82 290 82 32 l 82 388 q 239 789 82 653 q 651 926 394 926 q 1049 800 889 926 q 1224 389 1224 667 l 1224 301 q 1118 67 1217 122 q 1015 43 1068 44 q 907 78 957 42 q 844 176 857 115 q 631 44 796 44 q 388 301 388 44 l 388 389 q 651 642 388 642 q 847 576 779 642 q 914 389 914 510 m 485 386 l 485 300 q 522 172 485 211 q 644 132 558 132 q 773 177 729 132 q 817 300 817 222 l 817 386 q 777 513 817 471 q 650 554 738 554 q 523 514 561 554 q 485 386 485 474 z "},"A":{"ha":846,"x_min":49,"x_max":811,"o":"m 625 711 l 811 46 q 811 10 818 19 q 776 0 804 0 l 763 0 q 722 9 733 0 q 703 46 710 18 l 638 279 l 222 279 l 158 46 q 140 9 151 18 q 99 0 128 0 l 83 0 q 49 10 56 0 q 49 46 42 19 l 235 711 q 306 872 268 831 q 431 915 344 915 q 554 872 517 915 q 625 711 593 831 m 344 724 l 249 378 l 611 378 l 515 724 q 483 799 500 781 q 431 818 465 818 q 377 799 394 818 q 344 724 360 781 z "},"B":{"ha":822,"x_min":106,"x_max":750,"o":"m 256 903 l 425 903 q 650 844 578 903 q 722 667 722 786 q 688 533 722 579 q 572 467 654 486 l 572 464 q 709 397 668 447 q 750 251 750 346 q 678 62 750 124 q 447 0 606 0 l 418 0 l 256 0 q 141 36 176 0 q 106 150 106 72 l 106 753 q 141 867 106 831 q 256 903 176 903 m 447 414 l 214 414 l 214 167 q 229 117 214 132 q 279 101 244 101 l 431 101 q 594 137 547 101 q 640 257 640 172 q 597 377 640 340 q 447 414 553 414 m 425 801 l 279 801 q 229 786 244 801 q 214 736 214 771 l 214 510 l 425 510 q 569 544 526 510 q 613 657 613 579 q 569 767 613 733 q 425 801 526 801 z "},"C":{"ha":728,"x_min":78,"x_max":674,"o":"m 188 554 l 188 332 q 246 147 188 207 q 432 88 304 88 q 632 124 536 88 q 665 126 656 133 q 674 93 674 119 l 674 76 q 665 43 674 54 q 632 21 657 32 q 435 -14 558 -14 q 165 70 251 -14 q 78 332 78 154 l 78 554 q 432 915 78 915 q 625 879 532 915 q 657 859 649 869 q 665 826 665 849 l 665 808 q 622 776 665 758 q 428 814 535 814 q 245 751 303 814 q 188 554 188 689 z "},"D":{"ha":843,"x_min":106,"x_max":765,"o":"m 106 150 l 106 753 q 141 867 106 831 q 256 903 176 903 l 374 903 q 676 825 586 903 q 765 546 765 749 l 765 357 q 675 81 765 163 q 374 0 586 0 l 256 0 q 141 36 176 0 q 106 150 106 72 m 279 101 l 374 101 q 596 156 538 101 q 654 357 654 211 l 654 546 q 594 746 654 690 q 374 801 539 801 l 279 801 q 229 786 244 801 q 214 736 214 771 l 214 167 q 229 117 214 132 q 279 101 244 101 z "},"E":{"ha":753,"x_min":106,"x_max":692,"o":"m 593 419 l 214 419 l 214 167 q 229 117 214 132 q 279 101 244 101 l 649 101 q 683 93 675 101 q 692 58 692 85 l 692 43 q 683 8 692 17 q 649 0 675 0 l 256 0 q 141 36 176 0 q 106 150 106 72 l 106 753 q 141 867 106 831 q 256 903 176 903 l 649 903 q 683 894 675 903 q 692 860 692 886 l 692 844 q 683 810 692 818 q 649 801 675 801 l 279 801 q 229 786 244 801 q 214 736 214 771 l 214 521 l 593 521 q 628 513 619 521 q 636 478 636 504 l 636 463 q 628 428 636 436 q 593 419 619 419 z "},"F":{"ha":726,"x_min":106,"x_max":679,"o":"m 581 414 l 214 414 l 214 47 q 204 10 214 19 q 167 0 194 0 l 153 0 q 115 10 125 0 q 106 47 106 19 l 106 753 q 141 867 106 831 q 256 903 176 903 l 636 903 q 671 894 663 903 q 679 860 679 886 l 679 844 q 671 810 679 818 q 636 801 663 801 l 279 801 q 229 786 244 801 q 214 736 214 771 l 214 515 l 581 515 q 615 507 607 515 q 624 472 624 499 l 624 457 q 615 422 624 431 q 581 414 607 414 z "},"G":{"ha":801,"x_min":78,"x_max":728,"o":"m 625 175 l 625 451 q 633 487 625 478 q 669 496 642 496 l 683 496 q 719 487 711 496 q 728 451 728 478 l 728 185 q 697 51 728 93 q 589 -4 667 10 q 469 -14 532 -14 q 171 69 264 -14 q 78 336 78 151 l 78 558 q 461 915 78 915 q 667 879 567 915 q 706 856 700 865 q 711 826 708 849 l 711 808 q 669 775 711 756 q 460 814 579 814 q 251 752 315 814 q 188 551 188 690 l 188 329 q 253 146 188 204 q 464 88 318 88 q 563 96 528 88 q 610 119 596 101 q 625 175 625 138 z "},"H":{"ha":851,"x_min":106,"x_max":747,"o":"m 639 47 l 639 425 l 214 425 l 214 47 q 204 10 214 19 q 167 0 194 0 l 153 0 q 115 10 125 0 q 106 47 106 19 l 106 856 q 115 893 106 883 q 153 903 125 903 l 167 903 q 204 893 194 903 q 214 856 214 883 l 214 526 l 639 526 l 639 856 q 649 893 639 883 q 686 903 658 903 l 700 903 q 738 893 728 903 q 747 856 747 883 l 747 47 q 738 10 747 19 q 700 0 728 0 l 686 0 q 649 10 658 0 q 639 47 639 19 z "},"I":{"ha":336,"x_min":114,"x_max":222,"o":"m 114 47 l 114 856 q 124 893 114 883 q 161 903 133 903 l 175 903 q 213 893 203 903 q 222 856 222 883 l 222 47 q 213 10 222 19 q 175 0 203 0 l 161 0 q 124 10 133 0 q 114 47 114 19 z "},"J":{"ha":336,"x_min":-28,"x_max":224,"o":"m 224 856 l 224 188 q 178 -81 224 17 q 51 -244 132 -178 q 19 -258 31 -261 q -8 -232 7 -256 l -15 -221 q -28 -185 -29 -197 q -7 -158 -26 -174 q 115 182 115 -58 l 115 856 q 125 893 115 883 q 163 903 135 903 l 176 903 q 214 893 204 903 q 224 856 224 883 z "},"K":{"ha":768,"x_min":106,"x_max":733,"o":"m 344 610 l 556 860 q 597 894 579 886 q 650 903 615 903 l 667 903 q 706 894 701 903 q 688 860 710 886 l 433 557 q 381 471 381 492 q 433 386 381 451 l 715 44 q 733 8 738 17 q 694 0 729 0 l 678 0 q 626 9 644 0 q 585 44 607 18 l 344 333 q 276 474 276 414 q 344 610 276 533 m 106 47 l 106 856 q 115 893 106 883 q 153 903 125 903 l 167 903 q 204 893 194 903 q 214 856 214 883 l 214 47 q 204 10 214 19 q 167 0 194 0 l 153 0 q 115 10 125 0 q 106 47 106 19 z "},"L":{"ha":667,"x_min":106,"x_max":636,"o":"m 106 150 l 106 856 q 115 893 106 883 q 153 903 125 903 l 167 903 q 204 893 194 903 q 214 856 214 883 l 214 167 q 229 117 214 132 q 279 101 244 101 l 593 101 q 628 93 619 101 q 636 58 636 85 l 636 43 q 628 8 636 17 q 593 0 619 0 l 256 0 q 141 36 176 0 q 106 150 106 72 z "},"M":{"ha":1106,"x_min":53,"x_max":1056,"o":"m 1006 725 l 1056 47 q 1048 10 1057 19 q 1011 0 1039 0 l 996 0 q 958 9 968 0 q 946 47 949 18 l 897 735 q 881 797 894 781 q 833 814 867 814 q 793 797 807 814 q 772 735 779 779 l 685 129 q 646 29 675 58 q 554 0 617 0 q 464 30 494 0 q 424 129 433 60 l 336 735 q 315 797 329 779 q 274 814 300 814 q 228 797 243 814 q 211 735 214 779 l 161 47 q 149 9 158 18 q 111 0 139 0 l 97 0 q 60 10 69 0 q 53 47 51 19 l 103 725 q 150 868 110 825 q 274 911 190 911 q 388 869 350 911 q 440 725 426 826 l 518 143 q 529 99 522 110 q 554 89 536 89 q 578 100 571 89 q 590 143 586 111 l 668 725 q 721 868 682 825 q 835 911 760 911 q 958 868 918 911 q 1006 725 999 825 z "},"N":{"ha":885,"x_min":106,"x_max":779,"o":"m 106 47 l 106 760 q 139 878 106 842 q 243 915 172 915 q 335 888 304 915 q 388 788 367 860 l 592 131 q 612 91 601 101 q 639 81 622 81 q 672 133 672 81 l 672 856 q 682 893 672 883 q 719 903 692 903 l 732 903 q 769 893 760 903 q 779 856 779 883 l 779 143 q 747 24 779 61 q 646 -12 714 -12 q 550 17 583 -12 q 494 122 517 47 l 293 768 q 274 811 283 800 q 247 822 265 822 q 211 767 211 822 l 211 47 q 201 10 211 19 q 164 0 192 0 l 153 0 q 115 10 125 0 q 106 47 106 19 z "},"O":{"ha":864,"x_min":78,"x_max":786,"o":"m 678 349 l 678 551 q 628 751 678 692 q 432 814 578 814 q 236 751 286 814 q 186 551 186 692 l 186 349 q 236 149 186 211 q 432 88 286 88 q 628 149 578 88 q 678 349 678 211 m 432 -14 q 154 76 232 -14 q 78 349 78 165 l 78 551 q 156 824 78 733 q 432 914 233 914 q 708 824 631 914 q 786 551 786 733 l 786 349 q 708 76 786 167 q 432 -14 631 -14 z "},"P":{"ha":810,"x_min":106,"x_max":763,"o":"m 256 903 l 461 903 q 691 833 619 903 q 763 617 763 764 q 690 401 763 471 q 461 331 618 331 l 214 331 l 214 47 q 204 10 214 19 q 167 0 194 0 l 153 0 q 115 10 125 0 q 106 47 106 19 l 106 753 q 141 867 106 831 q 256 903 176 903 m 461 801 l 279 801 q 229 786 244 801 q 214 736 214 771 l 214 431 l 461 431 q 612 472 569 431 q 654 617 654 514 q 611 759 654 717 q 461 801 568 801 z "},"Q":{"ha":864,"x_min":78,"x_max":786,"o":"m 786 551 l 786 349 q 733 108 786 192 q 558 -1 679 24 l 699 -137 q 721 -172 725 -164 q 681 -181 717 -181 l 663 -181 q 606 -172 626 -181 q 560 -136 585 -162 l 447 -12 q 358 -4 397 -12 q 142 95 207 11 q 78 349 78 179 l 78 551 q 156 824 78 733 q 432 914 233 914 q 708 824 631 914 q 786 551 786 733 m 678 349 l 678 551 q 628 751 678 692 q 432 814 578 814 q 236 751 286 814 q 186 551 186 692 l 186 349 q 236 149 186 211 q 432 88 286 88 q 628 149 578 88 q 678 349 678 211 z "},"R":{"ha":838,"x_min":106,"x_max":778,"o":"m 763 633 q 715 453 763 517 q 560 374 667 390 l 765 46 q 778 10 783 19 q 740 0 772 0 l 725 0 q 676 9 693 0 q 642 46 660 18 l 443 365 l 214 365 l 214 47 q 204 10 214 19 q 167 0 194 0 l 153 0 q 115 10 125 0 q 106 47 106 19 l 106 753 q 141 867 106 831 q 256 903 176 903 l 469 903 q 694 838 625 903 q 763 633 763 772 m 469 801 l 279 801 q 229 786 244 801 q 214 736 214 771 l 214 467 l 469 467 q 613 505 572 467 q 654 633 654 543 q 614 764 654 726 q 469 801 574 801 z "},"S":{"ha":719,"x_min":68,"x_max":657,"o":"m 68 71 l 68 90 q 110 125 68 139 q 340 89 211 89 q 499 116 450 89 q 547 207 547 143 q 522 286 547 256 q 419 363 496 317 l 214 489 q 76 710 76 572 q 147 866 76 817 q 367 915 218 915 q 575 882 489 915 q 609 863 601 872 q 617 831 617 854 l 617 813 q 575 779 617 764 q 367 813 486 813 q 229 788 271 813 q 188 706 188 763 q 208 638 188 664 q 285 574 228 611 l 494 443 q 620 336 583 388 q 657 208 657 285 q 338 -14 657 -14 q 113 19 204 -14 q 75 42 79 33 q 68 71 71 50 z "},"T":{"ha":769,"x_min":40,"x_max":729,"o":"m 40 844 l 40 860 q 49 894 40 886 q 83 903 57 903 l 686 903 q 721 894 713 903 q 729 860 729 886 l 729 844 q 721 810 729 818 q 686 801 713 801 l 439 801 l 439 47 q 429 10 439 19 q 392 0 419 0 l 378 0 q 340 10 350 0 q 331 47 331 19 l 331 801 l 83 801 q 49 810 57 801 q 40 844 40 818 z "},"U":{"ha":864,"x_min":92,"x_max":772,"o":"m 92 288 l 92 856 q 101 893 92 883 q 139 903 111 903 l 153 903 q 190 893 181 903 q 200 856 200 883 l 200 288 q 256 134 200 181 q 432 88 311 88 q 608 134 553 88 q 664 288 664 181 l 664 856 q 674 893 664 883 q 711 903 683 903 l 725 903 q 763 893 753 903 q 772 856 772 883 l 772 288 q 432 -14 772 -14 q 92 288 92 -14 z "},"V":{"ha":821,"x_min":50,"x_max":785,"o":"m 785 856 l 615 192 q 546 29 585 72 q 418 -12 506 -12 q 289 29 328 -12 q 219 192 250 72 l 50 856 q 50 893 43 883 q 86 903 57 903 l 101 903 q 143 893 131 903 q 163 856 156 883 l 332 179 q 363 103 346 122 q 418 85 381 85 q 471 105 453 85 q 503 179 489 125 l 672 856 q 692 893 679 883 q 733 903 704 903 l 749 903 q 785 893 778 903 q 785 856 792 883 z "},"W":{"ha":1261,"x_min":50,"x_max":1219,"o":"m 1219 856 l 1111 171 q 1056 28 1096 69 q 936 -12 1017 -12 q 820 28 857 -12 q 768 171 783 69 l 675 747 q 661 798 669 785 q 635 811 653 811 q 608 798 617 811 q 594 747 600 785 l 501 171 q 449 28 486 69 q 333 -12 413 -12 q 213 28 253 -12 q 158 171 174 69 l 50 856 q 54 893 46 883 q 90 903 63 903 l 104 903 q 143 893 132 903 q 158 856 154 883 l 265 169 q 288 103 274 121 q 333 85 303 85 q 378 103 364 85 q 401 169 393 121 l 499 753 q 542 869 513 836 q 635 903 572 903 q 727 869 697 903 q 771 753 757 836 l 868 169 q 891 103 876 121 q 936 85 906 85 q 981 103 967 85 q 1004 169 996 121 l 1111 856 q 1126 893 1115 883 q 1165 903 1138 903 l 1179 903 q 1215 893 1207 903 q 1219 856 1224 883 z "},"X":{"ha":835,"x_min":64,"x_max":782,"o":"m 703 903 l 717 903 q 754 893 749 903 q 746 856 760 883 l 614 593 q 525 476 564 493 q 614 361 568 457 l 774 47 q 782 10 788 19 q 744 0 776 0 l 729 0 q 682 10 697 0 q 653 47 667 19 l 510 342 q 469 412 485 396 q 422 428 453 428 q 378 413 393 428 q 336 342 364 397 l 193 47 q 164 10 179 19 q 117 0 149 0 l 101 0 q 64 10 69 0 q 72 47 58 19 l 231 361 q 278 441 260 417 q 321 476 297 465 q 232 593 282 493 l 100 856 q 92 893 86 883 q 129 903 97 903 l 143 903 q 190 893 175 903 q 219 856 206 883 l 336 613 q 378 542 363 558 q 422 526 394 526 q 467 542 451 526 q 510 613 483 558 l 626 856 q 656 893 640 883 q 703 903 671 903 z "},"Y":{"ha":842,"x_min":42,"x_max":811,"o":"m 372 49 l 372 372 q 304 408 328 383 q 236 515 283 429 l 51 857 q 42 893 36 883 q 79 903 49 903 l 94 903 q 142 893 126 903 q 172 856 158 883 l 328 558 q 376 481 358 497 q 426 464 394 464 q 476 482 458 464 q 525 558 496 501 l 681 856 q 710 893 694 883 q 758 903 726 903 l 774 903 q 810 893 804 903 q 801 857 817 883 l 617 515 q 549 408 569 429 q 482 372 525 382 l 482 49 q 472 10 482 19 q 433 0 463 0 l 421 0 q 382 10 392 0 q 372 49 372 19 z "},"Z":{"ha":758,"x_min":44,"x_max":714,"o":"m 75 844 l 75 860 q 83 894 75 886 q 118 903 92 903 l 532 903 q 707 760 707 903 q 688 672 707 710 q 615 588 668 633 l 197 222 q 149 142 149 178 q 207 101 149 101 l 671 101 q 706 93 697 101 q 714 58 714 85 l 714 43 q 706 8 714 17 q 671 0 697 0 l 210 0 q 44 125 44 0 q 65 218 44 179 q 139 306 85 257 l 558 674 q 601 747 601 711 q 528 801 601 801 l 118 801 q 83 810 92 801 q 75 844 75 818 z "},"[":{"ha":435,"x_min":108,"x_max":383,"o":"m 383 -276 l 383 -286 q 376 -316 383 -308 q 346 -324 369 -324 l 236 -324 q 139 -293 169 -324 q 108 -197 108 -262 l 108 892 q 139 988 108 957 q 236 1018 169 1018 l 346 1018 q 376 1010 369 1018 q 383 981 383 1003 l 383 971 q 376 940 383 947 q 346 933 369 933 l 254 933 q 204 883 204 933 l 204 -189 q 254 -239 204 -239 l 346 -239 q 376 -246 369 -239 q 383 -276 383 -253 z "},"\\":{"ha":419,"x_min":7,"x_max":424,"o":"m 40 1018 l 51 1018 q 88 1010 78 1018 q 107 976 99 1001 l 421 0 q 423 -33 429 -25 q 390 -42 417 -42 l 381 -42 q 343 -33 354 -42 q 324 0 332 -25 l 10 976 q 8 1010 1 1001 q 40 1018 14 1018 z "},"]":{"ha":435,"x_min":51,"x_max":325,"o":"m 51 -286 l 51 -276 q 59 -246 51 -253 q 89 -239 67 -239 l 181 -239 q 231 -189 231 -239 l 231 883 q 181 933 231 933 l 89 933 q 59 940 67 933 q 51 971 51 947 l 51 981 q 59 1010 51 1003 q 89 1018 67 1018 l 199 1018 q 295 988 265 1018 q 325 892 325 957 l 325 -197 q 295 -293 325 -262 q 199 -324 265 -324 l 89 -324 q 59 -316 67 -324 q 51 -286 51 -308 z "},"^":{"ha":656,"x_min":86,"x_max":581,"o":"m 428 879 l 575 543 q 581 512 586 519 q 549 504 575 504 l 538 504 q 499 513 511 504 q 478 544 488 521 l 358 840 q 344 869 349 864 q 332 875 340 875 q 319 869 324 875 q 306 840 315 864 l 188 544 q 166 513 178 521 q 128 504 154 504 l 118 504 q 86 512 92 504 q 92 543 81 519 l 238 879 q 278 942 257 925 q 332 960 299 960 q 388 942 367 960 q 428 879 408 925 z "},"_":{"ha":668,"x_min":-1,"x_max":669,"o":"m 669 -64 l 669 -74 q 663 -103 669 -96 q 633 -110 656 -110 l 35 -110 q 6 -103 13 -110 q -1 -74 -1 -96 l -1 -64 q 6 -35 -1 -42 q 35 -28 13 -28 l 633 -28 q 663 -35 656 -28 q 669 -64 669 -42 z "},"`":{"ha":354,"x_min":92,"x_max":274,"o":"m 172 1075 l 103 1190 q 92 1222 88 1214 q 125 1231 97 1231 l 139 1231 q 181 1222 167 1231 q 208 1189 194 1214 l 267 1076 q 274 1049 278 1056 q 246 1042 269 1042 l 232 1042 q 172 1075 193 1042 z "},"a":{"ha":671,"x_min":51,"x_max":603,"o":"m 603 481 l 603 206 q 533 38 603 90 q 313 -14 464 -14 q 119 38 186 -14 q 51 194 51 90 q 120 349 51 301 q 335 397 189 397 l 499 397 l 499 481 q 454 577 499 547 q 317 607 410 607 q 164 592 232 607 q 129 594 139 586 q 119 626 119 601 l 119 638 q 128 670 119 661 q 161 685 136 679 q 311 699 222 699 q 603 481 603 699 m 499 210 l 499 315 l 336 315 q 198 288 240 315 q 156 194 156 260 q 311 76 156 76 q 456 106 413 76 q 499 210 499 136 z "},"b":{"ha":767,"x_min":90,"x_max":699,"o":"m 90 276 l 90 928 q 99 964 90 956 q 135 972 108 972 l 150 972 q 186 964 178 972 q 194 928 194 956 l 194 597 q 411 699 249 699 q 699 406 699 699 l 699 276 q 624 58 699 131 q 394 -14 549 -14 q 90 276 90 -14 m 593 278 l 593 407 q 549 556 593 513 q 394 600 504 600 q 240 556 285 600 q 194 407 194 511 l 194 278 q 240 129 194 174 q 394 85 285 85 q 549 129 506 85 q 593 278 593 174 z "},"c":{"ha":581,"x_min":68,"x_max":556,"o":"m 68 274 l 68 411 q 146 625 68 551 q 378 699 224 699 q 500 681 450 699 q 533 662 525 672 q 542 628 542 651 l 542 614 q 533 580 542 588 q 500 581 525 572 q 381 600 444 600 q 220 556 268 600 q 172 410 172 511 l 172 275 q 222 128 172 171 q 389 85 272 85 q 514 103 464 85 q 547 103 538 111 q 556 68 556 94 l 556 54 q 547 22 556 32 q 511 4 538 11 q 382 -14 457 -14 q 145 56 222 -14 q 68 274 68 126 z "},"d":{"ha":750,"x_min":68,"x_max":676,"o":"m 676 928 l 676 276 q 372 -14 676 -14 q 143 58 218 -14 q 68 276 68 131 l 68 406 q 356 699 68 699 q 572 597 517 699 l 572 928 q 581 964 572 956 q 617 972 589 972 l 632 972 q 667 964 658 972 q 676 928 676 956 m 172 407 l 172 278 q 217 129 172 174 q 372 85 261 85 q 527 129 482 85 q 572 278 572 174 l 572 407 q 527 556 572 511 q 372 600 482 600 q 217 556 263 600 q 172 407 172 511 z "},"e":{"ha":714,"x_min":68,"x_max":646,"o":"m 646 421 q 642 346 646 372 q 629 311 639 319 q 592 303 619 303 l 172 303 l 172 261 q 223 126 172 167 q 389 85 274 85 q 578 111 485 85 q 613 110 603 118 q 622 75 622 101 l 622 63 q 615 31 622 40 q 579 13 607 21 q 389 -14 494 -14 q 145 55 222 -14 q 68 276 68 124 l 68 406 q 361 699 68 699 q 573 628 500 699 q 646 421 646 557 m 172 436 l 172 390 l 547 390 l 547 436 q 360 606 547 606 q 172 436 172 606 z "},"f":{"ha":524,"x_min":19,"x_max":518,"o":"m 19 624 l 19 631 q 27 663 19 654 q 57 674 35 671 l 136 685 l 136 788 q 369 1003 136 1003 q 475 992 411 1003 q 510 977 501 986 q 518 942 518 968 l 518 929 q 509 895 518 903 q 475 893 500 888 q 374 904 419 904 q 240 794 240 904 l 240 685 l 460 685 q 494 676 486 685 q 503 642 503 668 l 503 629 q 494 594 503 603 q 460 586 486 586 l 240 586 l 240 44 q 231 8 240 17 q 196 0 222 0 l 181 0 q 144 8 153 0 q 136 44 136 17 l 136 586 l 57 586 q 26 593 33 586 q 19 624 19 600 z "},"g":{"ha":701,"x_min":49,"x_max":660,"o":"m 642 458 l 642 442 q 354 200 642 200 q 207 189 247 200 q 174 147 174 178 q 208 108 174 118 q 354 100 244 100 q 592 57 528 100 q 658 -90 658 15 q 590 -256 658 -208 q 354 -303 526 -303 q 114 -256 178 -303 q 49 -110 49 -210 q 126 39 49 -10 q 69 131 69 67 q 182 239 69 222 q 65 442 65 286 l 65 458 q 142 635 65 572 q 354 699 218 699 q 497 671 431 699 l 576 742 q 606 757 594 757 q 633 742 617 757 l 643 732 q 660 706 660 717 q 643 678 660 694 l 581 614 q 642 458 642 557 m 536 442 l 536 458 q 354 606 536 606 q 169 458 169 606 l 169 442 q 212 327 169 363 q 354 292 254 292 q 495 327 454 292 q 536 442 536 363 m 354 8 q 218 15 276 8 q 153 -99 153 -17 q 196 -189 153 -165 q 354 -212 239 -212 q 511 -187 468 -212 q 554 -94 554 -162 q 513 -11 554 -31 q 354 8 469 8 z "},"h":{"ha":757,"x_min":96,"x_max":675,"o":"m 96 44 l 96 928 q 105 964 96 956 q 140 972 114 972 l 156 972 q 192 964 183 972 q 200 928 200 956 l 200 604 q 418 699 263 699 q 675 456 675 699 l 675 44 q 667 8 675 17 q 631 0 658 0 l 614 0 q 578 8 586 0 q 569 44 569 17 l 569 443 q 528 563 569 526 q 392 600 488 600 q 246 558 292 600 q 200 419 200 515 l 200 44 q 192 8 200 17 q 156 0 183 0 l 140 0 q 105 8 114 0 q 96 44 96 17 z "},"i":{"ha":303,"x_min":83,"x_max":219,"o":"m 100 44 l 100 640 q 108 676 100 667 q 144 685 117 685 l 160 685 q 195 676 186 685 q 204 640 204 667 l 204 44 q 195 8 204 17 q 160 0 186 0 l 144 0 q 108 8 117 0 q 100 44 100 17 m 153 967 q 200 947 181 967 q 219 899 219 926 q 200 851 219 871 q 153 832 181 832 q 103 851 124 832 q 83 899 83 871 q 103 947 83 926 q 153 967 124 967 z "},"j":{"ha":288,"x_min":-40,"x_max":214,"o":"m 146 967 q 194 947 175 967 q 214 899 214 926 q 194 851 214 871 q 146 832 175 832 q 98 851 118 832 q 78 899 78 871 q 98 947 78 926 q 146 967 118 967 m 197 640 l 197 143 q 153 -124 197 -31 q 33 -274 108 -215 q 6 -285 15 -287 q -19 -260 -4 -282 l -28 -247 q -40 -214 -42 -225 q -21 -187 -39 -203 q 33 -129 13 -158 q 93 136 93 -46 l 93 640 q 101 676 93 667 q 138 685 110 685 l 153 685 q 188 676 179 685 q 197 640 197 667 z "},"k":{"ha":671,"x_min":96,"x_max":643,"o":"m 96 44 l 96 928 q 105 964 96 956 q 140 972 114 972 l 156 972 q 192 964 183 972 q 200 928 200 956 l 200 44 q 192 8 200 17 q 156 0 183 0 l 140 0 q 105 8 114 0 q 96 44 96 17 m 303 478 l 461 643 q 505 676 485 668 q 560 685 525 685 l 576 685 q 615 676 611 685 q 594 643 618 668 l 378 415 q 349 363 349 383 q 376 308 349 336 l 622 43 q 643 8 647 17 q 604 0 639 0 l 588 0 q 532 8 551 0 q 489 43 513 17 l 303 244 q 246 365 246 306 q 303 478 246 417 z "},"l":{"ha":329,"x_min":86,"x_max":311,"o":"m 86 178 l 86 928 q 94 964 86 956 q 131 972 103 972 l 146 972 q 181 964 172 972 q 190 928 190 956 l 190 196 q 261 90 190 90 l 268 90 q 303 84 296 90 q 311 54 311 78 l 311 44 q 303 8 311 18 q 272 -7 296 -3 q 247 -8 268 -8 q 128 39 171 -8 q 86 178 86 86 z "},"m":{"ha":1119,"x_min":82,"x_max":1038,"o":"m 186 439 l 186 44 q 178 8 186 17 q 142 0 169 0 l 126 0 q 91 8 100 0 q 82 44 82 17 l 82 439 q 347 699 82 699 q 560 583 511 699 q 774 699 613 699 q 1038 439 1038 699 l 1038 44 q 1028 8 1038 17 q 993 0 1019 0 l 978 0 q 942 8 950 0 q 933 44 933 17 l 933 439 q 897 563 933 525 q 774 600 861 600 q 647 563 683 600 q 611 439 611 526 l 611 44 q 603 8 611 17 q 567 0 594 0 l 553 0 q 517 8 525 0 q 508 44 508 17 l 508 439 q 472 563 508 525 q 347 600 435 600 q 223 563 260 600 q 186 439 186 525 z "},"n":{"ha":743,"x_min":82,"x_max":661,"o":"m 186 439 l 186 44 q 178 8 186 17 q 142 0 169 0 l 126 0 q 91 8 100 0 q 82 44 82 17 l 82 439 q 372 699 82 699 q 591 634 521 699 q 661 439 661 569 l 661 44 q 653 8 661 17 q 617 0 644 0 l 600 0 q 564 8 572 0 q 556 44 556 17 l 556 439 q 515 563 556 526 q 372 600 474 600 q 228 563 271 600 q 186 439 186 525 z "},"o":{"ha":744,"x_min":68,"x_max":676,"o":"m 572 278 l 572 407 q 528 556 572 511 q 374 600 483 600 q 217 556 263 600 q 172 407 172 511 l 172 278 q 217 129 172 174 q 374 85 263 85 q 528 129 483 85 q 572 278 572 174 m 374 -14 q 142 58 215 -14 q 68 278 68 131 l 68 407 q 374 699 68 699 q 603 626 531 699 q 676 407 676 554 l 676 278 q 374 -14 676 -14 z "},"p":{"ha":767,"x_min":90,"x_max":699,"o":"m 90 -233 l 90 408 q 394 699 90 699 q 624 626 549 699 q 699 408 699 554 l 699 279 q 411 -14 699 -14 q 194 89 249 -14 l 194 -233 q 186 -269 194 -261 q 150 -278 178 -278 l 135 -278 q 99 -269 108 -278 q 90 -233 90 -261 m 593 278 l 593 407 q 549 556 593 513 q 394 600 506 600 q 240 556 285 600 q 194 407 194 511 l 194 278 q 240 129 194 174 q 394 85 285 85 q 549 129 504 85 q 593 278 593 174 z "},"q":{"ha":767,"x_min":68,"x_max":676,"o":"m 676 408 l 676 -233 q 667 -269 676 -261 q 632 -278 658 -278 l 617 -278 q 581 -269 589 -278 q 572 -233 572 -261 l 572 89 q 356 -14 515 -14 q 68 279 68 -14 l 68 408 q 143 626 68 554 q 372 699 218 699 q 676 408 676 699 m 172 407 l 172 278 q 217 129 172 174 q 372 85 263 85 q 527 129 482 85 q 572 278 572 174 l 572 407 q 527 556 572 511 q 372 600 482 600 q 217 556 261 600 q 172 407 172 513 z "},"r":{"ha":429,"x_min":82,"x_max":406,"o":"m 186 453 l 186 44 q 178 8 186 17 q 142 0 169 0 l 126 0 q 91 8 100 0 q 82 44 82 17 l 82 458 q 319 699 82 699 q 364 696 331 699 q 398 683 390 693 q 406 647 406 674 l 406 633 q 397 600 406 607 q 363 597 389 593 q 344 598 354 597 q 328 599 333 599 q 319 600 322 600 q 216 566 246 600 q 186 453 186 532 z "},"s":{"ha":636,"x_min":65,"x_max":568,"o":"m 65 64 l 65 75 q 75 109 65 101 q 110 111 85 117 q 314 83 213 83 q 431 101 397 83 q 465 163 465 118 q 446 217 465 196 q 375 263 426 238 l 206 343 q 106 417 135 378 q 76 524 76 456 q 136 656 76 614 q 322 699 196 699 q 496 672 422 699 q 529 654 521 664 q 538 621 538 644 l 538 608 q 527 575 538 582 q 493 575 517 568 q 319 601 415 601 q 211 583 243 601 q 179 524 179 565 q 253 432 179 465 l 429 351 q 537 276 506 317 q 568 165 568 235 q 504 29 568 72 q 306 -14 440 -14 q 110 13 203 -14 q 74 31 83 19 q 65 64 65 42 z "},"t":{"ha":558,"x_min":19,"x_max":533,"o":"m 19 624 l 19 631 q 27 663 19 654 q 57 674 35 671 l 136 685 l 151 828 q 161 858 153 850 q 193 865 169 865 l 203 865 q 233 858 225 865 q 240 828 240 850 l 240 685 l 465 685 q 500 676 492 685 q 508 642 508 668 l 508 629 q 500 594 508 603 q 465 586 492 586 l 240 586 l 240 233 q 272 122 240 157 q 368 86 303 86 q 492 100 446 86 q 524 98 515 106 q 533 64 533 90 l 533 51 q 524 19 533 31 q 490 1 515 8 q 369 -12 439 -12 q 136 233 136 -12 l 136 586 l 57 586 q 26 593 33 586 q 19 624 19 600 z "},"u":{"ha":726,"x_min":74,"x_max":653,"o":"m 178 640 l 178 246 q 220 122 178 160 q 364 85 263 85 q 508 122 467 85 q 549 246 549 158 l 549 640 q 558 676 549 667 q 593 685 567 685 l 608 685 q 644 676 636 685 q 653 640 653 667 l 653 246 q 583 51 653 115 q 364 -14 513 -14 q 74 246 74 -14 l 74 640 q 83 676 74 667 q 118 685 92 685 l 133 685 q 169 676 161 685 q 178 640 178 667 z "},"v":{"ha":719,"x_min":56,"x_max":678,"o":"m 161 642 l 286 156 q 316 95 299 111 q 367 79 333 79 q 417 95 400 79 q 447 156 435 111 l 571 642 q 588 676 576 668 q 626 685 599 685 l 644 685 q 678 676 671 685 q 678 642 685 667 l 554 163 q 492 24 528 61 q 367 -12 456 -12 q 240 24 281 -12 q 178 163 204 61 l 56 642 q 56 676 49 667 q 89 685 63 685 l 106 685 q 144 676 133 685 q 161 642 156 668 z "},"w":{"ha":1122,"x_min":57,"x_max":1075,"o":"m 163 640 l 239 154 q 306 78 249 78 q 372 154 363 78 l 435 550 q 474 655 446 625 q 565 685 503 685 q 654 655 625 685 q 696 550 683 625 l 758 154 q 825 78 768 78 q 892 154 882 78 l 968 640 q 982 676 972 667 q 1019 685 992 685 l 1038 685 q 1072 676 1064 685 q 1075 640 1079 668 l 999 161 q 944 26 982 65 q 825 -14 906 -14 q 713 26 750 -14 q 663 161 676 67 l 608 522 q 594 581 603 567 q 565 596 585 596 q 536 580 546 596 q 521 522 526 564 l 467 161 q 417 26 453 65 q 306 -14 381 -14 q 185 25 224 -14 q 132 161 147 64 l 57 640 q 60 676 53 668 q 94 685 68 685 l 111 685 q 149 676 139 685 q 163 640 158 667 z "},"x":{"ha":736,"x_min":51,"x_max":693,"o":"m 206 642 l 314 458 q 342 419 331 429 q 372 410 354 410 q 402 419 390 410 q 431 458 414 429 l 539 642 q 568 676 553 667 q 614 685 583 685 l 631 685 q 665 676 661 685 q 654 642 669 668 l 543 458 q 499 390 514 408 q 463 363 483 372 q 497 336 482 354 q 543 268 513 318 l 682 43 q 693 8 697 17 q 658 0 689 0 l 642 0 q 596 8 611 0 q 565 43 581 17 l 432 265 q 400 308 411 299 q 372 318 389 318 q 344 308 356 318 q 313 265 333 299 l 179 43 q 149 8 164 17 q 103 0 133 0 l 86 0 q 51 8 56 0 q 63 43 47 17 l 203 268 l 232 315 q 281 363 254 347 q 247 388 261 371 q 201 458 232 406 l 90 642 q 79 676 75 668 q 114 685 83 685 l 131 685 q 176 676 161 685 q 206 642 192 667 z "},"y":{"ha":719,"x_min":57,"x_max":678,"o":"m 163 639 l 293 160 q 323 99 306 114 q 378 83 340 83 q 427 100 410 83 q 456 160 444 117 l 571 639 q 589 675 576 665 q 629 685 601 685 l 642 685 q 678 676 671 685 q 678 639 685 667 l 518 0 q 239 -294 447 -281 q 205 -289 215 -297 q 189 -256 194 -281 l 186 -243 q 188 -212 181 -219 q 222 -201 196 -204 q 340 -144 296 -193 q 414 8 383 -96 q 344 -7 386 -7 q 247 29 279 -7 q 189 156 214 65 l 57 639 q 57 676 50 667 q 92 685 64 685 l 103 685 q 143 676 131 685 q 163 639 156 667 z "},"z":{"ha":658,"x_min":54,"x_max":604,"o":"m 88 631 l 88 643 q 96 676 88 668 q 129 685 104 685 l 456 685 q 570 656 536 685 q 604 557 604 626 q 585 481 604 513 q 514 414 565 450 l 183 182 q 150 133 150 158 q 208 96 150 96 l 563 96 q 596 88 588 96 q 604 54 604 79 l 604 42 q 596 8 604 17 q 563 0 588 0 l 200 0 q 54 125 54 0 q 140 268 54 207 l 468 496 q 508 553 508 524 q 450 589 508 589 l 129 589 q 96 597 104 589 q 88 631 88 606 z "},"{":{"ha":501,"x_min":40,"x_max":450,"o":"m 40 356 l 40 364 q 48 394 40 386 q 78 401 56 401 l 83 401 q 166 458 136 401 q 196 613 196 514 l 196 792 q 397 1025 196 1025 l 413 1025 q 443 1018 436 1025 q 450 988 450 1011 l 450 979 q 443 949 450 956 q 413 942 436 942 l 403 942 q 289 786 289 942 l 289 594 q 182 360 289 408 q 289 125 289 314 l 289 -92 q 403 -247 289 -247 l 413 -247 q 443 -254 436 -247 q 450 -285 450 -261 l 450 -293 q 443 -324 450 -317 q 413 -331 436 -331 l 397 -331 q 248 -271 300 -331 q 196 -97 196 -211 l 196 107 q 166 262 196 206 q 83 318 136 318 l 78 318 q 48 326 56 318 q 40 356 40 333 z "},"|":{"ha":317,"x_min":111,"x_max":206,"o":"m 206 976 l 206 -282 q 197 -315 206 -307 q 164 -324 189 -324 l 153 -324 q 119 -315 128 -324 q 111 -282 111 -307 l 111 976 q 119 1010 111 1001 q 153 1018 128 1018 l 164 1018 q 197 1010 189 1018 q 206 976 206 1001 z "},"}":{"ha":501,"x_min":51,"x_max":461,"o":"m 461 364 l 461 356 q 454 326 461 333 q 424 318 447 318 l 418 318 q 336 263 365 318 q 307 107 307 207 l 307 -97 q 254 -270 307 -210 q 104 -331 201 -331 l 89 -331 q 59 -324 67 -331 q 51 -293 51 -317 l 51 -285 q 59 -254 51 -261 q 89 -247 67 -247 l 99 -247 q 213 -92 213 -247 l 213 125 q 319 360 213 314 q 213 594 213 410 l 213 786 q 99 942 213 942 l 89 942 q 59 949 67 942 q 51 979 51 956 l 51 988 q 59 1018 51 1011 q 89 1025 67 1025 l 104 1025 q 307 792 307 1025 l 307 613 q 336 457 307 513 q 418 401 365 401 l 424 401 q 454 394 447 401 q 461 364 461 386 z "},"~":{"ha":753,"x_min":61,"x_max":694,"o":"m 106 282 l 94 282 q 67 288 74 282 q 61 313 60 294 q 110 449 67 401 q 231 496 153 496 q 393 424 321 496 q 524 351 465 351 q 614 457 606 351 q 622 481 615 475 q 650 486 629 486 l 661 486 q 689 480 682 486 q 694 457 696 474 q 645 321 689 369 q 526 272 601 272 q 364 343 442 272 q 232 415 297 415 q 142 311 154 415 q 133 288 139 293 q 106 282 126 282 z "}," ":{"ha":0,"x_min":0,"x_max":0,"o":""},"¡":{"ha":358,"x_min":106,"x_max":253,"o":"m 185 -222 l 169 -222 q 133 -214 142 -222 q 125 -178 125 -206 l 125 99 q 140 414 125 265 q 150 440 143 432 q 174 447 157 447 l 182 447 q 206 440 199 447 q 215 414 213 432 q 229 99 229 303 l 229 -178 q 220 -214 229 -206 q 185 -222 211 -222 m 232 668 q 253 617 253 647 q 231 564 253 586 q 179 543 210 543 q 126 564 149 543 q 106 617 106 586 q 126 668 106 647 q 179 690 147 690 q 232 668 211 690 z "},"¢":{"ha":583,"x_min":68,"x_max":539,"o":"m 319 11 l 319 88 q 129 169 190 99 q 68 375 68 239 l 68 504 q 319 792 68 769 l 319 868 q 326 899 319 892 q 357 906 333 906 l 367 906 q 397 899 389 906 q 404 868 404 892 l 404 793 q 485 778 428 790 q 518 762 511 771 q 525 728 525 753 l 525 714 q 515 680 525 688 q 481 681 506 672 q 371 696 426 696 q 217 651 263 696 q 172 501 172 606 l 172 376 q 219 228 172 272 q 375 183 267 183 q 497 199 440 183 q 530 197 521 204 q 539 164 539 190 l 539 151 q 531 117 539 126 q 496 100 522 107 q 404 86 447 89 l 404 11 q 397 -19 404 -11 q 367 -26 389 -26 l 357 -26 q 326 -19 333 -26 q 319 11 319 -11 z "},"£":{"ha":689,"x_min":26,"x_max":640,"o":"m 640 58 l 640 43 q 632 8 640 17 q 597 0 624 0 l 289 0 q 174 36 210 0 q 139 150 139 72 l 139 411 l 60 411 q 33 418 40 411 q 26 444 26 425 l 26 457 q 33 483 26 476 q 60 490 40 490 l 139 490 l 139 611 q 204 840 139 765 q 407 915 269 915 q 542 899 486 915 q 578 882 569 892 q 586 847 586 872 l 586 835 q 577 801 586 808 q 543 799 568 793 q 410 814 467 814 q 283 765 319 814 q 246 596 246 715 l 246 490 l 444 490 q 471 483 464 490 q 478 457 478 476 l 478 444 q 471 418 478 425 q 444 411 464 411 l 246 411 l 246 167 q 313 101 246 101 l 597 101 q 632 93 624 101 q 640 58 640 85 z "},"¤":{"ha":886,"x_min":94,"x_max":792,"o":"m 444 251 q 351 276 393 251 l 185 108 q 154 89 167 89 q 124 108 142 89 l 113 119 q 94 150 94 139 q 113 181 94 161 l 274 340 q 244 439 244 382 q 274 538 244 494 l 114 697 q 94 728 94 717 q 114 758 94 739 l 124 768 q 154 786 142 786 q 185 768 167 786 l 351 601 q 444 626 393 626 q 536 601 494 626 l 701 768 q 732 786 719 786 q 763 768 744 786 l 772 758 q 792 728 792 739 q 772 697 792 717 l 614 539 q 642 439 642 494 q 613 339 642 383 l 772 181 q 792 150 792 161 q 772 119 792 139 l 763 110 q 732 92 744 92 q 701 110 719 92 l 535 276 q 444 251 493 251 m 444 325 q 525 358 492 325 q 558 439 558 392 q 525 519 558 486 q 444 553 492 553 q 363 520 396 553 q 329 439 329 488 q 363 358 329 390 q 444 325 396 325 z "},"¥":{"ha":833,"x_min":57,"x_max":788,"o":"m 131 357 l 131 367 q 138 393 131 386 q 164 400 144 400 l 342 400 q 276 438 300 410 q 217 540 251 468 l 65 856 q 58 893 51 883 q 94 903 64 903 l 108 903 q 155 893 140 903 q 183 854 169 883 l 321 556 q 366 479 347 497 q 422 461 385 461 q 478 479 458 461 q 524 556 497 497 l 660 854 q 688 893 674 883 q 735 903 703 903 l 750 903 q 787 893 781 903 q 779 856 793 883 l 628 540 q 567 438 590 461 q 503 400 543 410 l 679 400 q 706 393 699 400 q 713 367 713 386 l 713 357 q 706 331 713 338 q 679 324 699 324 l 476 324 l 476 206 l 679 206 q 706 199 699 206 q 713 172 713 192 l 713 163 q 706 136 713 143 q 679 129 699 129 l 476 129 l 476 47 q 467 10 476 19 q 429 0 457 0 l 415 0 q 378 10 388 0 q 368 47 368 19 l 368 129 l 164 129 q 138 136 144 129 q 131 163 131 143 l 131 172 q 138 199 131 192 q 164 206 144 206 l 368 206 l 368 324 l 164 324 q 138 331 144 324 q 131 357 131 338 z "},"¦":{"ha":313,"x_min":108,"x_max":204,"o":"m 204 976 l 204 524 q 196 490 204 499 q 163 482 188 482 l 150 482 q 117 490 125 482 q 108 524 108 499 l 108 976 q 117 1010 108 1001 q 150 1018 125 1018 l 163 1018 q 196 1010 188 1018 q 204 976 204 1001 m 204 200 l 204 -282 q 196 -315 204 -307 q 163 -324 188 -324 l 150 -324 q 117 -315 125 -324 q 108 -282 108 -307 l 108 200 q 117 233 108 225 q 150 242 125 242 l 163 242 q 196 233 188 242 q 204 200 204 225 z "},"§":{"ha":742,"x_min":86,"x_max":657,"o":"m 89 -208 l 89 -189 q 98 -156 89 -162 q 132 -157 107 -149 q 347 -192 219 -192 q 500 -167 453 -192 q 547 -83 547 -142 q 518 -11 547 -40 q 417 67 489 21 l 226 189 q 119 287 153 235 q 86 413 86 339 q 204 585 86 550 q 86 782 86 665 q 367 979 86 979 q 564 947 471 979 q 598 929 590 938 q 606 896 606 921 l 606 876 q 597 843 606 850 q 564 844 588 836 q 368 876 483 876 q 237 853 276 876 q 197 778 197 831 q 217 713 197 738 q 297 651 238 689 l 492 533 q 619 427 582 478 q 657 303 657 376 q 524 122 657 158 q 627 22 597 67 q 657 -83 657 -22 q 344 -294 657 -294 q 131 -261 225 -294 q 97 -243 104 -253 q 89 -208 89 -233 m 194 418 q 217 342 194 374 q 296 272 239 311 l 442 176 q 524 211 499 183 q 550 294 550 239 q 418 454 550 376 l 286 533 q 216 499 238 526 q 194 418 194 471 z "},"¨":{"ha":483,"x_min":67,"x_max":417,"o":"m 67 1103 q 85 1148 67 1129 q 129 1167 103 1167 q 174 1149 156 1167 q 192 1103 192 1131 q 174 1060 192 1078 q 129 1042 156 1042 q 85 1060 103 1042 q 67 1103 67 1078 m 292 1103 q 310 1149 292 1131 q 356 1167 328 1167 q 399 1148 381 1167 q 417 1103 417 1129 q 399 1060 417 1078 q 356 1042 381 1042 q 310 1060 329 1042 q 292 1103 292 1078 z "},"©":{"ha":1153,"x_min":86,"x_max":1067,"o":"m 360 422 l 360 554 q 422 715 360 660 q 601 769 483 769 q 704 757 653 769 q 732 744 725 751 q 739 715 739 736 l 739 704 q 732 676 739 683 q 704 675 725 669 q 604 688 661 688 q 487 654 524 688 q 450 551 450 621 l 450 422 q 489 322 450 351 q 617 292 528 292 q 717 303 675 292 q 750 272 750 314 l 750 260 q 742 232 750 240 q 711 219 733 224 q 615 210 671 210 q 421 260 482 210 q 360 422 360 310 m 229 836 q 575 981 374 981 q 924 836 779 981 q 1067 489 1067 693 q 924 142 1067 285 q 575 -1 781 -1 q 229 142 372 -1 q 86 489 86 285 q 229 836 86 693 m 575 65 q 875 189 751 65 q 1000 489 1000 314 q 875 789 1000 667 q 575 914 753 914 q 276 789 401 914 q 153 489 153 661 q 276 189 153 317 q 575 65 404 65 z "},"«":{"ha":665,"x_min":42,"x_max":592,"o":"m 306 68 l 290 68 q 219 101 247 68 l 85 263 q 42 347 42 310 q 85 432 42 381 l 219 593 q 290 626 247 626 l 306 626 q 335 619 332 626 q 321 593 338 613 l 153 389 q 129 347 129 361 q 153 306 129 338 l 321 101 q 335 75 338 82 q 306 68 332 68 m 563 68 l 549 68 q 478 101 506 68 l 342 263 q 300 347 300 311 q 342 432 300 381 l 478 593 q 549 626 506 626 l 563 626 q 592 619 589 626 q 578 593 594 613 l 410 389 q 386 347 386 361 q 410 306 386 333 l 578 101 q 592 75 594 82 q 563 68 589 68 z "},"¬":{"ha":724,"x_min":33,"x_max":660,"o":"m 660 494 l 660 313 q 651 279 660 288 q 618 271 643 271 l 606 271 q 572 279 581 271 q 564 313 564 288 l 564 483 q 514 533 564 533 l 72 533 q 42 542 50 533 q 33 572 33 550 l 33 582 q 42 613 33 606 q 72 621 50 621 l 533 621 q 629 591 599 621 q 660 494 660 561 z "},"®":{"ha":1153,"x_min":86,"x_max":1067,"o":"m 229 836 q 575 981 374 981 q 924 836 779 981 q 1067 489 1067 693 q 924 142 1067 285 q 575 -1 781 -1 q 229 142 372 -1 q 86 489 86 285 q 229 836 86 693 m 575 65 q 875 189 751 65 q 1000 489 1000 314 q 875 789 1000 667 q 575 914 753 914 q 276 789 401 914 q 153 489 153 661 q 276 189 153 317 q 575 65 404 65 m 674 257 l 576 438 l 481 438 l 481 257 q 474 226 481 233 q 443 219 467 219 l 431 219 q 401 226 408 219 q 393 257 393 233 l 393 619 q 426 725 393 692 q 532 758 458 758 l 599 758 q 782 600 782 758 q 665 446 782 472 l 771 257 q 779 226 783 233 q 749 219 775 219 l 738 219 q 699 227 711 219 q 674 257 686 235 m 597 679 l 539 679 q 481 621 481 679 l 481 515 l 589 515 q 669 534 646 515 q 692 597 692 553 q 669 660 692 640 q 597 679 647 679 z "},"°":{"ha":536,"x_min":67,"x_max":468,"o":"m 468 818 q 410 675 468 733 q 268 618 353 618 q 124 675 185 618 q 67 818 67 732 q 125 960 67 903 q 268 1018 183 1018 q 410 960 353 1018 q 468 818 468 901 m 390 818 q 356 906 390 871 q 269 942 322 942 q 181 906 215 942 q 146 818 146 871 q 181 728 146 764 q 269 693 215 693 q 353 731 317 693 q 390 818 390 768 z "},"±":{"ha":772,"x_min":76,"x_max":696,"o":"m 696 104 l 696 93 q 688 62 696 69 q 657 54 681 54 l 115 54 q 84 62 92 54 q 76 93 76 69 l 76 104 q 84 135 76 128 q 115 143 92 143 l 338 143 l 338 394 l 115 394 q 84 403 92 394 q 76 433 76 411 l 76 444 q 84 475 76 467 q 115 483 92 483 l 338 483 l 338 703 q 346 736 338 728 q 379 744 354 744 l 392 744 q 425 736 417 744 q 433 703 433 728 l 433 483 l 657 483 q 688 475 681 483 q 696 444 696 467 l 696 433 q 688 403 696 411 q 657 394 681 394 l 433 394 l 433 143 l 657 143 q 688 135 681 143 q 696 104 696 128 z "},"´":{"ha":354,"x_min":89,"x_max":271,"o":"m 260 1190 l 190 1075 q 131 1042 169 1042 l 117 1042 q 89 1049 93 1042 q 96 1076 85 1056 l 154 1189 q 182 1222 168 1214 q 224 1231 196 1231 l 238 1231 q 270 1222 265 1231 q 260 1190 275 1214 z "},"µ":{"ha":749,"x_min":96,"x_max":675,"o":"m 96 -233 l 96 640 q 105 676 96 667 q 140 685 114 685 l 156 685 q 192 676 183 685 q 200 640 200 667 l 200 239 q 243 120 200 156 q 386 85 286 85 q 528 122 486 85 q 569 247 569 160 l 569 640 q 578 676 569 667 q 614 685 586 685 l 631 685 q 667 676 658 685 q 675 640 675 667 l 675 247 q 597 49 675 111 q 404 -14 519 -14 q 200 72 258 -14 l 200 -233 q 192 -269 200 -261 q 156 -278 183 -278 l 140 -278 q 105 -269 114 -278 q 96 -233 96 -261 z "},"¶":{"ha":754,"x_min":38,"x_max":653,"o":"m 38 651 q 111 835 38 768 q 314 903 185 903 l 501 903 q 617 867 581 903 q 653 753 653 831 l 653 -82 q 646 -112 653 -106 q 615 -119 639 -119 l 604 -119 q 574 -112 581 -119 q 567 -82 567 -106 l 567 736 q 489 814 567 814 l 382 814 l 382 329 q 349 75 382 181 q 218 -114 318 -26 q 168 -106 192 -136 l 163 -97 q 171 -42 142 -67 q 268 107 240 21 q 296 329 296 193 l 296 394 q 108 468 179 394 q 38 651 38 542 z "},"·":{"ha":263,"x_min":57,"x_max":206,"o":"m 132 513 q 184 491 163 513 q 206 439 206 469 q 184 387 206 408 q 132 365 163 365 q 79 387 101 365 q 57 439 57 408 q 78 491 57 469 q 132 513 100 513 z "},"¸":{"ha":315,"x_min":54,"x_max":272,"o":"m 78 -82 l 108 35 l 171 35 l 147 -58 q 272 -151 272 -44 q 239 -240 272 -212 q 135 -267 206 -267 q 79 -260 110 -267 q 59 -251 64 -257 q 54 -229 54 -244 l 54 -221 q 81 -199 54 -193 q 125 -203 101 -203 q 178 -192 163 -203 q 193 -151 193 -181 q 179 -115 193 -125 q 131 -104 165 -104 q 101 -106 108 -104 q 78 -104 82 -108 q 78 -82 74 -100 z "},"»":{"ha":665,"x_min":76,"x_max":625,"o":"m 376 68 l 363 68 q 333 75 336 68 q 347 101 331 82 l 515 306 q 539 347 539 333 q 515 389 539 361 l 347 593 q 333 619 331 613 q 363 626 336 626 l 376 626 q 447 593 419 626 l 583 432 q 625 347 625 379 q 583 263 625 311 l 447 101 q 376 68 419 68 m 119 68 l 106 68 q 76 75 79 68 q 90 101 74 82 l 258 306 q 281 347 281 332 q 258 389 281 363 l 90 593 q 76 619 74 613 q 106 626 79 626 l 119 626 q 190 593 164 626 l 326 432 q 368 347 368 383 q 326 263 368 311 l 190 101 q 119 68 164 68 z "},"¿":{"ha":567,"x_min":65,"x_max":508,"o":"m 331 624 q 351 676 331 656 q 404 697 372 697 q 471 651 453 697 q 456 571 490 606 q 376 556 422 538 q 331 624 331 575 m 65 29 q 110 185 65 128 q 240 290 151 236 q 353 417 336 349 q 396 446 360 446 l 410 446 q 442 439 433 446 q 451 413 451 432 q 299 207 451 306 q 213 142 243 171 q 174 29 174 103 q 214 -91 174 -56 q 349 -126 254 -126 q 467 -111 406 -126 q 500 -112 492 -106 q 508 -144 508 -118 l 508 -165 q 500 -199 508 -189 q 465 -215 492 -210 q 351 -228 406 -228 q 134 -167 203 -228 q 65 29 65 -106 z "},"À":{"ha":846,"x_min":49,"x_max":811,"o":"m 625 711 l 811 46 q 811 10 818 19 q 776 0 804 0 l 763 0 q 722 9 733 0 q 703 46 710 18 l 638 279 l 222 279 l 158 46 q 140 9 151 18 q 99 0 128 0 l 83 0 q 49 10 56 0 q 49 46 42 19 l 235 711 q 306 872 268 831 q 431 915 344 915 q 554 872 517 915 q 625 711 593 831 m 344 724 l 249 378 l 611 378 l 515 724 q 483 799 500 781 q 431 818 465 818 q 377 799 394 818 q 344 724 360 781 m 368 1003 l 299 1118 q 288 1150 283 1142 q 321 1158 293 1158 l 335 1158 q 376 1150 363 1158 q 404 1117 390 1142 l 463 1004 q 469 976 472 983 q 442 969 465 969 l 428 969 q 368 1003 389 969 z "},"Á":{"ha":846,"x_min":49,"x_max":811,"o":"m 625 711 l 811 46 q 811 10 818 19 q 776 0 804 0 l 763 0 q 722 9 733 0 q 703 46 710 18 l 638 279 l 222 279 l 158 46 q 140 9 151 18 q 99 0 128 0 l 83 0 q 49 10 56 0 q 49 46 42 19 l 235 711 q 306 872 268 831 q 431 915 344 915 q 554 872 517 915 q 625 711 593 831 m 344 724 l 249 378 l 611 378 l 515 724 q 483 799 500 781 q 431 818 465 818 q 377 799 394 818 q 344 724 360 781 m 553 1118 l 483 1003 q 424 969 463 969 l 410 969 q 383 976 388 969 q 389 1004 379 983 l 447 1117 q 475 1150 461 1142 q 517 1158 489 1158 l 531 1158 q 563 1150 558 1158 q 553 1118 568 1142 z "},"Â":{"ha":846,"x_min":49,"x_max":811,"o":"m 625 711 l 811 46 q 811 10 818 19 q 776 0 804 0 l 763 0 q 722 9 733 0 q 703 46 710 18 l 638 279 l 222 279 l 158 46 q 140 9 151 18 q 99 0 128 0 l 83 0 q 49 10 56 0 q 49 46 42 19 l 235 711 q 306 872 268 831 q 431 915 344 915 q 554 872 517 915 q 625 711 593 831 m 344 724 l 249 378 l 611 378 l 515 724 q 483 799 500 781 q 431 818 465 818 q 377 799 394 818 q 344 724 360 781 m 279 1006 l 332 1088 q 378 1142 358 1128 q 431 1156 397 1156 q 485 1142 465 1156 q 529 1088 504 1128 l 582 1006 q 590 980 594 986 q 564 974 586 974 l 553 974 q 496 1006 515 974 l 464 1060 q 397 1060 431 1118 l 367 1006 q 310 974 347 974 l 297 974 q 272 980 275 974 q 279 1006 268 986 z "},"Ã":{"ha":846,"x_min":49,"x_max":811,"o":"m 625 711 l 811 46 q 811 10 818 19 q 776 0 804 0 l 763 0 q 722 9 733 0 q 703 46 710 18 l 638 279 l 222 279 l 158 46 q 140 9 151 18 q 99 0 128 0 l 83 0 q 49 10 56 0 q 49 46 42 19 l 235 711 q 306 872 268 831 q 431 915 344 915 q 554 872 517 915 q 625 711 593 831 m 344 724 l 249 378 l 611 378 l 515 724 q 483 799 500 781 q 431 818 465 818 q 377 799 394 818 q 344 724 360 781 m 256 993 l 246 993 q 222 999 228 993 q 217 1019 215 1004 q 338 1144 228 1144 q 444 1100 383 1144 q 528 1056 506 1056 q 575 1108 568 1056 q 583 1129 576 1124 q 607 1135 589 1135 l 615 1135 q 640 1129 633 1135 q 644 1108 646 1124 q 524 983 636 983 q 417 1028 478 983 q 335 1072 356 1072 q 288 1019 294 1072 q 280 999 286 1004 q 256 993 274 993 z "},"Ä":{"ha":846,"x_min":49,"x_max":811,"o":"m 625 711 l 811 46 q 811 10 818 19 q 776 0 804 0 l 763 0 q 722 9 733 0 q 703 46 710 18 l 638 279 l 222 279 l 158 46 q 140 9 151 18 q 99 0 128 0 l 83 0 q 49 10 56 0 q 49 46 42 19 l 235 711 q 306 872 268 831 q 431 915 344 915 q 554 872 517 915 q 625 711 593 831 m 344 724 l 249 378 l 611 378 l 515 724 q 483 799 500 781 q 431 818 465 818 q 377 799 394 818 q 344 724 360 781 m 256 1063 q 274 1108 256 1089 q 318 1126 292 1126 q 363 1108 344 1126 q 381 1063 381 1090 q 363 1019 381 1038 q 318 1001 344 1001 q 274 1019 292 1001 q 256 1063 256 1038 m 481 1063 q 499 1108 481 1089 q 544 1126 518 1126 q 588 1108 569 1126 q 606 1063 606 1089 q 588 1019 606 1038 q 544 1001 569 1001 q 499 1019 518 1001 q 481 1063 481 1038 z "},"Å":{"ha":846,"x_min":49,"x_max":811,"o":"m 625 711 l 811 46 q 811 10 818 19 q 776 0 804 0 l 763 0 q 722 9 733 0 q 703 46 710 18 l 638 279 l 222 279 l 158 46 q 140 9 151 18 q 99 0 128 0 l 83 0 q 49 10 56 0 q 49 46 42 19 l 235 711 q 306 872 268 831 q 431 915 344 915 q 554 872 517 915 q 625 711 593 831 m 344 724 l 249 378 l 611 378 l 515 724 q 483 799 500 781 q 431 818 465 818 q 377 799 394 818 q 344 724 360 781 m 429 944 q 344 978 378 944 q 310 1064 310 1011 q 342 1151 310 1119 q 429 1185 375 1185 q 517 1151 483 1185 q 551 1064 551 1118 q 517 977 551 1010 q 429 944 483 944 m 429 1000 q 476 1019 458 1000 q 494 1064 494 1038 q 429 1129 494 1129 q 383 1111 400 1129 q 367 1064 367 1093 q 384 1019 367 1038 q 429 1000 401 1000 z "},"Æ":{"ha":1200,"x_min":49,"x_max":1144,"o":"m 1046 419 l 667 419 l 667 167 q 733 101 667 101 l 1101 101 q 1136 93 1128 101 q 1144 58 1144 85 l 1144 43 q 1136 8 1144 17 q 1101 0 1128 0 l 710 0 q 595 36 631 0 q 560 150 560 72 l 560 279 l 226 279 l 158 46 q 138 9 150 18 q 97 0 125 0 l 83 0 q 49 10 56 0 q 50 46 42 19 l 246 699 q 319 860 282 818 q 443 903 358 903 l 1101 903 q 1136 894 1128 903 q 1144 860 1144 886 l 1144 844 q 1136 810 1144 818 q 1101 801 1128 801 l 733 801 q 667 736 667 801 l 667 521 l 1046 521 q 1081 513 1072 521 q 1089 478 1089 504 l 1089 463 q 1081 428 1089 436 q 1046 419 1072 419 m 354 710 l 256 378 l 560 378 l 560 735 q 575 801 560 782 l 438 801 q 387 783 404 801 q 354 710 369 764 z "},"Ç":{"ha":728,"x_min":78,"x_max":674,"o":"m 188 554 l 188 332 q 246 147 188 207 q 432 88 304 88 q 632 124 536 88 q 665 126 656 133 q 674 93 674 119 l 674 76 q 665 43 674 54 q 632 21 657 32 q 451 -14 561 -11 l 440 -58 q 565 -151 565 -44 q 532 -240 565 -212 q 428 -267 499 -267 q 372 -260 403 -267 q 352 -251 357 -257 q 347 -229 347 -244 l 347 -221 q 374 -199 347 -193 q 418 -203 394 -203 q 471 -192 456 -203 q 486 -151 486 -181 q 472 -115 486 -125 q 424 -104 458 -104 q 394 -106 401 -104 q 371 -104 375 -108 q 371 -82 367 -100 l 389 -12 q 154 81 231 -3 q 78 332 78 165 l 78 554 q 432 915 78 915 q 625 879 532 915 q 657 859 649 869 q 665 826 665 849 l 665 808 q 622 776 665 758 q 428 814 535 814 q 245 751 303 814 q 188 554 188 689 z "},"È":{"ha":753,"x_min":106,"x_max":692,"o":"m 593 419 l 214 419 l 214 167 q 229 117 214 132 q 279 101 244 101 l 649 101 q 683 93 675 101 q 692 58 692 85 l 692 43 q 683 8 692 17 q 649 0 675 0 l 256 0 q 141 36 176 0 q 106 150 106 72 l 106 753 q 141 867 106 831 q 256 903 176 903 l 649 903 q 683 894 675 903 q 692 860 692 886 l 692 844 q 683 810 692 818 q 649 801 675 801 l 279 801 q 229 786 244 801 q 214 736 214 771 l 214 521 l 593 521 q 628 513 619 521 q 636 478 636 504 l 636 463 q 628 428 636 436 q 593 419 619 419 m 347 1003 l 278 1118 q 267 1150 263 1142 q 300 1158 272 1158 l 314 1158 q 356 1150 342 1158 q 383 1117 369 1142 l 442 1004 q 449 976 453 983 q 421 969 444 969 l 407 969 q 347 1003 368 969 z "},"É":{"ha":753,"x_min":106,"x_max":692,"o":"m 593 419 l 214 419 l 214 167 q 229 117 214 132 q 279 101 244 101 l 649 101 q 683 93 675 101 q 692 58 692 85 l 692 43 q 683 8 692 17 q 649 0 675 0 l 256 0 q 141 36 176 0 q 106 150 106 72 l 106 753 q 141 867 106 831 q 256 903 176 903 l 649 903 q 683 894 675 903 q 692 860 692 886 l 692 844 q 683 810 692 818 q 649 801 675 801 l 279 801 q 229 786 244 801 q 214 736 214 771 l 214 521 l 593 521 q 628 513 619 521 q 636 478 636 504 l 636 463 q 628 428 636 436 q 593 419 619 419 m 506 1118 l 436 1003 q 376 969 415 969 l 363 969 q 335 976 339 969 q 342 1004 331 983 l 400 1117 q 428 1150 414 1142 q 469 1158 442 1158 l 483 1158 q 516 1150 511 1158 q 506 1118 521 1142 z "},"Ê":{"ha":753,"x_min":106,"x_max":692,"o":"m 593 419 l 214 419 l 214 167 q 229 117 214 132 q 279 101 244 101 l 649 101 q 683 93 675 101 q 692 58 692 85 l 692 43 q 683 8 692 17 q 649 0 675 0 l 256 0 q 141 36 176 0 q 106 150 106 72 l 106 753 q 141 867 106 831 q 256 903 176 903 l 649 903 q 683 894 675 903 q 692 860 692 886 l 692 844 q 683 810 692 818 q 649 801 675 801 l 279 801 q 229 786 244 801 q 214 736 214 771 l 214 521 l 593 521 q 628 513 619 521 q 636 478 636 504 l 636 463 q 628 428 636 436 q 593 419 619 419 m 253 1006 l 306 1088 q 351 1142 332 1128 q 404 1156 371 1156 q 458 1142 439 1156 q 503 1088 478 1128 l 556 1006 q 564 980 568 986 q 538 974 560 974 l 526 974 q 469 1006 489 974 l 438 1060 q 371 1060 404 1118 l 340 1006 q 283 974 321 974 l 271 974 q 245 980 249 974 q 253 1006 242 986 z "},"Ë":{"ha":753,"x_min":106,"x_max":692,"o":"m 593 419 l 214 419 l 214 167 q 229 117 214 132 q 279 101 244 101 l 649 101 q 683 93 675 101 q 692 58 692 85 l 692 43 q 683 8 692 17 q 649 0 675 0 l 256 0 q 141 36 176 0 q 106 150 106 72 l 106 753 q 141 867 106 831 q 256 903 176 903 l 649 903 q 683 894 675 903 q 692 860 692 886 l 692 844 q 683 810 692 818 q 649 801 675 801 l 279 801 q 229 786 244 801 q 214 736 214 771 l 214 521 l 593 521 q 628 513 619 521 q 636 478 636 504 l 636 463 q 628 428 636 436 q 593 419 619 419 m 229 1063 q 247 1108 229 1089 q 292 1126 265 1126 q 336 1108 318 1126 q 354 1063 354 1090 q 336 1019 354 1038 q 292 1001 318 1001 q 247 1019 265 1001 q 229 1063 229 1038 m 454 1063 q 473 1108 454 1089 q 518 1126 492 1126 q 561 1108 543 1126 q 579 1063 579 1089 q 561 1019 579 1038 q 518 1001 543 1001 q 473 1019 492 1001 q 454 1063 454 1038 z "},"Ì":{"ha":336,"x_min":31,"x_max":226,"o":"m 118 47 l 118 856 q 128 893 118 883 q 165 903 138 903 l 179 903 q 217 893 207 903 q 226 856 226 883 l 226 47 q 217 10 226 19 q 179 0 207 0 l 165 0 q 128 10 138 0 q 118 47 118 19 m 111 1003 l 42 1118 q 31 1150 26 1142 q 64 1158 36 1158 l 78 1158 q 119 1150 106 1158 q 147 1117 133 1142 l 206 1004 q 213 976 217 983 q 185 969 208 969 l 171 969 q 111 1003 132 969 z "},"Í":{"ha":336,"x_min":114,"x_max":308,"o":"m 114 47 l 114 856 q 124 893 114 883 q 161 903 133 903 l 175 903 q 213 893 203 903 q 222 856 222 883 l 222 47 q 213 10 222 19 q 175 0 203 0 l 161 0 q 124 10 133 0 q 114 47 114 19 m 297 1118 l 228 1003 q 168 969 207 969 l 154 969 q 126 976 131 969 q 133 1004 122 983 l 192 1117 q 219 1150 206 1142 q 261 1158 233 1158 l 275 1158 q 308 1150 303 1158 q 297 1118 313 1142 z "},"Î":{"ha":336,"x_min":11,"x_max":331,"o":"m 117 47 l 117 856 q 126 893 117 883 q 164 903 136 903 l 178 903 q 215 893 206 903 q 225 856 225 883 l 225 47 q 215 10 225 19 q 178 0 206 0 l 164 0 q 126 10 136 0 q 117 47 117 19 m 19 1006 l 72 1088 q 118 1142 99 1128 q 171 1156 138 1156 q 225 1142 206 1156 q 269 1088 244 1128 l 322 1006 q 331 980 335 986 q 304 974 326 974 l 293 974 q 236 1006 256 974 l 204 1060 q 138 1060 171 1118 l 107 1006 q 50 974 88 974 l 38 974 q 12 980 15 974 q 19 1006 8 986 z "},"Ï":{"ha":336,"x_min":-7,"x_max":343,"o":"m 114 47 l 114 856 q 124 893 114 883 q 161 903 133 903 l 175 903 q 213 893 203 903 q 222 856 222 883 l 222 47 q 213 10 222 19 q 175 0 203 0 l 161 0 q 124 10 133 0 q 114 47 114 19 m -7 1063 q 11 1108 -7 1089 q 56 1126 29 1126 q 100 1108 82 1126 q 118 1063 118 1090 q 100 1019 118 1038 q 56 1001 82 1001 q 11 1019 29 1001 q -7 1063 -7 1038 m 218 1063 q 237 1108 218 1089 q 282 1126 256 1126 q 325 1108 307 1126 q 343 1063 343 1089 q 325 1019 343 1038 q 282 1001 307 1001 q 237 1019 256 1001 q 218 1063 218 1038 z "},"Ð":{"ha":843,"x_min":22,"x_max":781,"o":"m 121 150 l 121 413 l 56 413 q 29 419 36 413 q 22 446 22 426 l 22 457 q 29 483 22 476 q 56 490 36 490 l 121 490 l 121 753 q 157 867 121 831 q 272 903 193 903 l 389 903 q 692 825 601 903 q 781 546 781 749 l 781 357 q 690 81 781 163 q 389 0 601 0 l 272 0 q 157 36 193 0 q 121 150 121 72 m 296 101 l 389 101 q 611 156 553 101 q 671 357 671 211 l 671 546 q 611 746 671 690 q 389 801 556 801 l 296 801 q 229 736 229 801 l 229 490 l 336 490 q 363 483 356 490 q 369 457 369 476 l 369 446 q 363 419 369 426 q 336 413 356 413 l 229 413 l 229 167 q 296 101 229 101 z "},"Ñ":{"ha":885,"x_min":106,"x_max":779,"o":"m 106 47 l 106 760 q 139 878 106 842 q 243 915 172 915 q 335 888 304 915 q 388 788 367 860 l 592 131 q 612 91 601 101 q 639 81 622 81 q 672 133 672 81 l 672 856 q 682 893 672 883 q 719 903 692 903 l 732 903 q 769 893 760 903 q 779 856 779 883 l 779 143 q 747 24 779 61 q 646 -12 714 -12 q 550 17 583 -12 q 494 122 517 47 l 293 768 q 274 811 283 800 q 247 822 265 822 q 211 767 211 822 l 211 47 q 201 10 211 19 q 164 0 192 0 l 153 0 q 115 10 125 0 q 106 47 106 19 m 267 993 l 257 993 q 233 999 239 993 q 228 1019 226 1004 q 349 1144 239 1144 q 457 1100 392 1144 q 539 1056 522 1056 q 586 1108 579 1056 q 594 1129 588 1124 q 618 1135 600 1135 l 626 1135 q 651 1129 644 1135 q 656 1108 657 1124 q 535 983 647 983 q 428 1028 489 983 q 346 1072 367 1072 q 299 1019 306 1072 q 291 999 297 1004 q 267 993 285 993 z "},"Ò":{"ha":864,"x_min":78,"x_max":786,"o":"m 678 349 l 678 551 q 628 751 678 692 q 432 814 578 814 q 236 751 286 814 q 186 551 186 692 l 186 349 q 236 149 186 211 q 432 88 286 88 q 628 149 578 88 q 678 349 678 211 m 432 -14 q 154 76 232 -14 q 78 349 78 165 l 78 551 q 156 824 78 733 q 432 914 233 914 q 708 824 631 914 q 786 551 786 733 l 786 349 q 708 76 786 167 q 432 -14 631 -14 m 381 1003 l 311 1118 q 301 1150 296 1142 q 333 1158 306 1158 l 347 1158 q 389 1150 375 1158 q 417 1117 403 1142 l 475 1004 q 482 976 486 983 q 454 969 478 969 l 440 969 q 381 1003 401 969 z "},"Ó":{"ha":864,"x_min":78,"x_max":786,"o":"m 678 349 l 678 551 q 628 751 678 692 q 432 814 578 814 q 236 751 286 814 q 186 551 186 692 l 186 349 q 236 149 186 211 q 432 88 286 88 q 628 149 578 88 q 678 349 678 211 m 432 -14 q 154 76 232 -14 q 78 349 78 165 l 78 551 q 156 824 78 733 q 432 914 233 914 q 708 824 631 914 q 786 551 786 733 l 786 349 q 708 76 786 167 q 432 -14 631 -14 m 531 1118 l 461 1003 q 401 969 440 969 l 388 969 q 361 976 365 969 q 367 1004 357 983 l 425 1117 q 453 1150 439 1142 q 494 1158 467 1158 l 508 1158 q 541 1150 536 1158 q 531 1118 546 1142 z "},"Ô":{"ha":864,"x_min":78,"x_max":786,"o":"m 678 349 l 678 551 q 628 751 678 692 q 432 814 578 814 q 236 751 286 814 q 186 551 186 692 l 186 349 q 236 149 186 211 q 432 88 286 88 q 628 149 578 88 q 678 349 678 211 m 432 -14 q 154 76 232 -14 q 78 349 78 165 l 78 551 q 156 824 78 733 q 432 914 233 914 q 708 824 631 914 q 786 551 786 733 l 786 349 q 708 76 786 167 q 432 -14 631 -14 m 281 1006 l 333 1088 q 379 1142 360 1128 q 432 1156 399 1156 q 486 1142 467 1156 q 531 1088 506 1128 l 583 1006 q 592 980 596 986 q 565 974 588 974 l 554 974 q 497 1006 517 974 l 465 1060 q 399 1060 432 1118 l 368 1006 q 311 974 349 974 l 299 974 q 273 980 276 974 q 281 1006 269 986 z "},"Õ":{"ha":864,"x_min":78,"x_max":786,"o":"m 678 349 l 678 551 q 628 751 678 692 q 432 814 578 814 q 236 751 286 814 q 186 551 186 692 l 186 349 q 236 149 186 211 q 432 88 286 88 q 628 149 578 88 q 678 349 678 211 m 432 -14 q 154 76 232 -14 q 78 349 78 165 l 78 551 q 156 824 78 733 q 432 914 233 914 q 708 824 631 914 q 786 551 786 733 l 786 349 q 708 76 786 167 q 432 -14 631 -14 m 253 993 l 243 993 q 219 999 225 993 q 214 1019 213 1004 q 335 1144 225 1144 q 443 1100 378 1144 q 525 1056 508 1056 q 572 1108 565 1056 q 580 1129 574 1124 q 604 1135 586 1135 l 613 1135 q 637 1129 631 1135 q 642 1108 643 1124 q 521 983 633 983 q 414 1028 475 983 q 332 1072 353 1072 q 285 1019 292 1072 q 277 999 283 1004 q 253 993 271 993 z "},"Ö":{"ha":864,"x_min":78,"x_max":786,"o":"m 678 349 l 678 551 q 628 751 678 692 q 432 814 578 814 q 236 751 286 814 q 186 551 186 692 l 186 349 q 236 149 186 211 q 432 88 286 88 q 628 149 578 88 q 678 349 678 211 m 432 -14 q 154 76 232 -14 q 78 349 78 165 l 78 551 q 156 824 78 733 q 432 914 233 914 q 708 824 631 914 q 786 551 786 733 l 786 349 q 708 76 786 167 q 432 -14 631 -14 m 257 1063 q 275 1108 257 1089 q 319 1126 293 1126 q 364 1108 346 1126 q 382 1063 382 1090 q 364 1019 382 1038 q 319 1001 346 1001 q 275 1019 293 1001 q 257 1063 257 1038 m 482 1063 q 501 1108 482 1089 q 546 1126 519 1126 q 589 1108 571 1126 q 607 1063 607 1089 q 589 1019 607 1038 q 546 1001 571 1001 q 501 1019 519 1001 q 482 1063 482 1038 z "},"×":{"ha":739,"x_min":89,"x_max":649,"o":"m 633 653 l 433 451 l 633 250 q 649 224 649 235 q 633 197 649 213 l 624 188 q 597 172 608 172 q 571 188 586 172 l 369 388 l 169 188 q 144 172 154 172 q 117 188 133 172 l 106 197 q 90 224 89 213 q 106 250 90 235 l 306 451 l 106 653 q 90 679 90 668 q 106 706 89 690 l 117 715 q 144 731 133 731 q 169 715 154 731 l 369 515 l 571 715 q 597 731 586 731 q 624 715 608 731 l 633 706 q 649 679 649 690 q 633 653 649 668 z "},"Ø":{"ha":864,"x_min":78,"x_max":786,"o":"m 432 -14 q 233 24 308 -14 l 210 -17 q 190 -37 200 -35 q 160 -29 179 -39 l 151 -25 q 138 25 117 -7 l 163 68 q 78 349 78 151 l 78 551 q 156 824 78 733 q 432 914 233 914 q 629 876 556 914 l 653 918 q 704 931 669 947 l 713 926 q 725 876 744 911 l 700 832 q 786 551 786 746 l 786 349 q 708 76 786 167 q 432 -14 631 -14 m 678 349 l 678 551 q 636 738 678 683 l 278 118 q 432 88 329 88 q 628 149 578 88 q 678 349 678 211 m 186 551 l 186 349 q 226 164 186 221 l 585 783 q 432 814 529 814 q 236 751 286 814 q 186 551 186 692 z "},"Ù":{"ha":864,"x_min":92,"x_max":772,"o":"m 92 288 l 92 856 q 101 893 92 883 q 139 903 111 903 l 153 903 q 190 893 181 903 q 200 856 200 883 l 200 288 q 256 134 200 181 q 432 88 311 88 q 608 134 553 88 q 664 288 664 181 l 664 856 q 674 893 664 883 q 711 903 683 903 l 725 903 q 763 893 753 903 q 772 856 772 883 l 772 288 q 432 -14 772 -14 q 92 288 92 -14 m 364 1003 l 294 1118 q 284 1150 279 1142 q 317 1158 289 1158 l 331 1158 q 372 1150 358 1158 q 400 1117 386 1142 l 458 1004 q 465 976 469 983 q 438 969 461 969 l 424 969 q 364 1003 385 969 z "},"Ú":{"ha":864,"x_min":92,"x_max":772,"o":"m 92 288 l 92 856 q 101 893 92 883 q 139 903 111 903 l 153 903 q 190 893 181 903 q 200 856 200 883 l 200 288 q 256 134 200 181 q 432 88 311 88 q 608 134 553 88 q 664 288 664 181 l 664 856 q 674 893 664 883 q 711 903 683 903 l 725 903 q 763 893 753 903 q 772 856 772 883 l 772 288 q 432 -14 772 -14 q 92 288 92 -14 m 519 1118 l 450 1003 q 390 969 429 969 l 376 969 q 350 976 354 969 q 356 1004 346 983 l 414 1117 q 442 1150 428 1142 q 483 1158 456 1158 l 497 1158 q 530 1150 525 1158 q 519 1118 535 1142 z "},"Û":{"ha":864,"x_min":92,"x_max":772,"o":"m 92 288 l 92 856 q 101 893 92 883 q 139 903 111 903 l 153 903 q 190 893 181 903 q 200 856 200 883 l 200 288 q 256 134 200 181 q 432 88 311 88 q 608 134 553 88 q 664 288 664 181 l 664 856 q 674 893 664 883 q 711 903 683 903 l 725 903 q 763 893 753 903 q 772 856 772 883 l 772 288 q 432 -14 772 -14 q 92 288 92 -14 m 281 1006 l 333 1088 q 379 1142 360 1128 q 432 1156 399 1156 q 486 1142 467 1156 q 531 1088 506 1128 l 583 1006 q 592 980 596 986 q 565 974 588 974 l 554 974 q 497 1006 517 974 l 465 1060 q 399 1060 432 1118 l 368 1006 q 311 974 349 974 l 299 974 q 273 980 276 974 q 281 1006 269 986 z "},"Ü":{"ha":864,"x_min":92,"x_max":772,"o":"m 92 288 l 92 856 q 101 893 92 883 q 139 903 111 903 l 153 903 q 190 893 181 903 q 200 856 200 883 l 200 288 q 256 134 200 181 q 432 88 311 88 q 608 134 553 88 q 664 288 664 181 l 664 856 q 674 893 664 883 q 711 903 683 903 l 725 903 q 763 893 753 903 q 772 856 772 883 l 772 288 q 432 -14 772 -14 q 92 288 92 -14 m 257 1063 q 275 1108 257 1089 q 319 1126 293 1126 q 364 1108 346 1126 q 382 1063 382 1090 q 364 1019 382 1038 q 319 1001 346 1001 q 275 1019 293 1001 q 257 1063 257 1038 m 482 1063 q 501 1108 482 1089 q 546 1126 519 1126 q 589 1108 571 1126 q 607 1063 607 1089 q 589 1019 607 1038 q 546 1001 571 1001 q 501 1019 519 1001 q 482 1063 482 1038 z "},"Ý":{"ha":842,"x_min":42,"x_max":811,"o":"m 372 49 l 372 372 q 304 408 328 383 q 236 515 283 429 l 51 857 q 42 893 36 883 q 79 903 49 903 l 94 903 q 142 893 126 903 q 172 856 158 883 l 328 558 q 376 481 358 497 q 426 464 394 464 q 476 482 458 464 q 525 558 496 501 l 681 856 q 710 893 694 883 q 758 903 726 903 l 774 903 q 810 893 804 903 q 801 857 817 883 l 617 515 q 549 408 569 429 q 482 372 525 382 l 482 49 q 472 10 482 19 q 433 0 463 0 l 421 0 q 382 10 392 0 q 372 49 372 19 m 540 1118 l 471 1003 q 411 969 450 969 l 397 969 q 371 976 375 969 q 376 1004 367 983 l 435 1117 q 463 1150 449 1142 q 504 1158 476 1158 l 518 1158 q 551 1150 546 1158 q 540 1118 556 1142 z "},"Þ":{"ha":793,"x_min":106,"x_max":747,"o":"m 106 47 l 106 832 q 115 869 106 860 q 153 879 125 879 l 167 879 q 204 869 194 879 q 214 832 214 860 l 214 724 l 440 724 q 674 657 601 724 q 747 446 747 590 q 674 235 747 303 q 440 167 600 167 l 214 167 l 214 47 q 204 10 214 19 q 167 0 194 0 l 153 0 q 115 10 125 0 q 106 47 106 19 m 440 622 l 214 622 l 214 268 l 440 268 q 595 308 551 268 q 639 446 639 349 q 594 582 639 542 q 440 622 549 622 z "},"ß":{"ha":735,"x_min":83,"x_max":667,"o":"m 667 199 q 601 37 667 88 q 396 -14 535 -14 q 325 -8 357 -14 q 291 6 300 -3 q 282 36 282 15 l 282 60 q 290 93 282 86 q 324 94 299 100 q 394 88 375 88 q 520 111 483 88 q 557 190 557 135 q 533 258 557 231 q 474 301 508 285 q 406 334 440 317 q 348 383 372 351 q 324 463 324 415 q 347 540 324 504 q 407 596 371 575 q 492 711 492 642 q 354 814 492 814 q 229 772 267 814 q 192 626 192 729 l 192 47 q 182 10 192 19 q 144 0 172 0 l 131 0 q 93 10 103 0 q 83 47 83 19 l 83 621 q 150 844 83 774 q 357 915 217 915 q 600 707 600 915 q 515 553 600 604 q 431 463 431 507 q 514 390 431 428 q 585 353 557 371 q 640 294 614 335 q 667 199 667 253 z "},"à":{"ha":671,"x_min":51,"x_max":603,"o":"m 603 481 l 603 206 q 533 38 603 90 q 313 -14 464 -14 q 119 38 186 -14 q 51 194 51 90 q 120 349 51 301 q 335 397 189 397 l 499 397 l 499 481 q 454 577 499 547 q 317 607 410 607 q 164 592 232 607 q 129 594 139 586 q 119 626 119 601 l 119 638 q 128 670 119 661 q 161 685 136 679 q 311 699 222 699 q 603 481 603 699 m 499 210 l 499 315 l 336 315 q 198 288 240 315 q 156 194 156 260 q 311 76 156 76 q 456 106 413 76 q 499 210 499 136 m 306 796 l 236 911 q 226 943 221 935 q 258 951 231 951 l 272 951 q 314 943 300 951 q 342 910 328 935 l 400 797 q 407 769 411 776 q 379 763 403 763 l 365 763 q 306 796 326 763 z "},"á":{"ha":671,"x_min":51,"x_max":603,"o":"m 603 481 l 603 206 q 533 38 603 90 q 313 -14 464 -14 q 119 38 186 -14 q 51 194 51 90 q 120 349 51 301 q 335 397 189 397 l 499 397 l 499 481 q 454 577 499 547 q 317 607 410 607 q 164 592 232 607 q 129 594 139 586 q 119 626 119 601 l 119 638 q 128 670 119 661 q 161 685 136 679 q 311 699 222 699 q 603 481 603 699 m 499 210 l 499 315 l 336 315 q 198 288 240 315 q 156 194 156 260 q 311 76 156 76 q 456 106 413 76 q 499 210 499 136 m 449 911 l 379 796 q 319 763 358 763 l 306 763 q 279 769 283 763 q 285 797 275 776 l 343 910 q 371 943 357 935 q 413 951 385 951 l 426 951 q 459 943 454 951 q 449 911 464 935 z "},"â":{"ha":671,"x_min":51,"x_max":603,"o":"m 603 481 l 603 206 q 533 38 603 90 q 313 -14 464 -14 q 119 38 186 -14 q 51 194 51 90 q 120 349 51 301 q 335 397 189 397 l 499 397 l 499 481 q 454 577 499 547 q 317 607 410 607 q 164 592 232 607 q 129 594 139 586 q 119 626 119 601 l 119 638 q 128 670 119 661 q 161 685 136 679 q 311 699 222 699 q 603 481 603 699 m 499 210 l 499 315 l 336 315 q 198 288 240 315 q 156 194 156 260 q 311 76 156 76 q 456 106 413 76 q 499 210 499 136 m 181 799 l 233 881 q 279 935 260 921 q 332 949 299 949 q 386 935 367 949 q 431 881 406 921 l 483 799 q 492 774 496 781 q 465 767 488 767 l 454 767 q 397 799 417 767 l 365 853 q 299 853 332 911 l 268 799 q 211 767 249 767 l 199 767 q 173 774 176 767 q 181 799 169 781 z "},"ã":{"ha":671,"x_min":51,"x_max":603,"o":"m 603 481 l 603 206 q 533 38 603 90 q 313 -14 464 -14 q 119 38 186 -14 q 51 194 51 90 q 120 349 51 301 q 335 397 189 397 l 499 397 l 499 481 q 454 577 499 547 q 317 607 410 607 q 164 592 232 607 q 129 594 139 586 q 119 626 119 601 l 119 638 q 128 670 119 661 q 161 685 136 679 q 311 699 222 699 q 603 481 603 699 m 499 210 l 499 315 l 336 315 q 198 288 240 315 q 156 194 156 260 q 311 76 156 76 q 456 106 413 76 q 499 210 499 136 m 157 786 l 147 786 q 123 792 129 786 q 118 813 117 797 q 239 938 128 938 q 346 893 285 938 q 429 849 407 849 q 476 901 469 849 q 484 922 478 917 q 508 928 490 928 l 517 928 q 541 922 535 928 q 546 901 547 917 q 425 776 538 776 q 318 821 379 776 q 236 865 257 865 q 189 813 196 865 q 181 792 188 797 q 157 786 175 786 z "},"ä":{"ha":671,"x_min":51,"x_max":603,"o":"m 603 481 l 603 206 q 533 38 603 90 q 313 -14 464 -14 q 119 38 186 -14 q 51 194 51 90 q 120 349 51 301 q 335 397 189 397 l 499 397 l 499 481 q 454 577 499 547 q 317 607 410 607 q 164 592 232 607 q 129 594 139 586 q 119 626 119 601 l 119 638 q 128 670 119 661 q 161 685 136 679 q 311 699 222 699 q 603 481 603 699 m 499 210 l 499 315 l 336 315 q 198 288 240 315 q 156 194 156 260 q 311 76 156 76 q 456 106 413 76 q 499 210 499 136 m 160 857 q 178 902 160 883 q 222 921 196 921 q 267 903 249 921 q 285 857 285 885 q 267 814 285 832 q 222 796 249 796 q 178 814 196 796 q 160 857 160 832 m 385 857 q 403 902 385 883 q 449 921 422 921 q 492 902 474 921 q 510 857 510 883 q 492 814 510 832 q 449 796 474 796 q 403 814 422 796 q 385 857 385 832 z "},"å":{"ha":671,"x_min":51,"x_max":603,"o":"m 603 481 l 603 206 q 533 38 603 90 q 313 -14 464 -14 q 119 38 186 -14 q 51 194 51 90 q 120 349 51 301 q 335 397 189 397 l 499 397 l 499 481 q 454 577 499 547 q 317 607 410 607 q 164 592 232 607 q 129 594 139 586 q 119 626 119 601 l 119 638 q 128 670 119 661 q 161 685 136 679 q 311 699 222 699 q 603 481 603 699 m 499 210 l 499 315 l 336 315 q 198 288 240 315 q 156 194 156 260 q 311 76 156 76 q 456 106 413 76 q 499 210 499 136 m 354 738 q 269 771 303 738 q 235 857 235 804 q 267 944 235 910 q 354 978 300 978 q 442 944 408 978 q 476 857 476 911 q 442 770 476 803 q 354 738 408 738 m 354 793 q 401 812 383 793 q 419 857 419 831 q 354 922 419 922 q 308 904 325 922 q 292 857 292 886 q 309 812 292 831 q 354 793 326 793 z "},"æ":{"ha":1131,"x_min":51,"x_max":1074,"o":"m 1074 421 q 1069 349 1074 378 q 1056 312 1067 321 q 1019 303 1046 303 l 600 303 l 600 261 q 651 126 600 167 q 815 85 701 85 q 1004 111 925 85 q 1050 75 1050 124 l 1050 63 q 1042 30 1050 39 q 1007 13 1035 21 q 817 -14 928 -14 q 642 19 710 -14 q 560 115 575 53 l 554 115 q 313 -14 538 -14 q 119 38 186 -14 q 51 194 51 90 q 120 349 51 301 q 335 397 189 397 l 499 397 l 499 481 q 454 577 499 547 q 317 607 410 607 q 164 592 240 607 q 129 594 139 586 q 119 626 119 601 l 119 638 q 128 670 119 661 q 161 685 136 679 q 311 699 222 699 q 478 665 414 699 q 554 569 543 632 l 560 569 q 635 663 574 628 q 789 699 697 699 q 1001 628 928 699 q 1074 421 1074 557 m 499 210 l 499 315 l 336 315 q 198 288 240 315 q 156 194 156 260 q 311 76 156 76 q 456 106 413 76 q 499 210 499 136 m 600 436 l 600 390 l 974 390 l 974 436 q 786 606 974 606 q 600 436 600 606 z "},"ç":{"ha":596,"x_min":68,"x_max":556,"o":"m 68 274 l 68 411 q 146 625 68 551 q 378 699 224 699 q 500 681 450 699 q 533 662 525 672 q 542 628 542 651 l 542 614 q 533 580 542 588 q 500 581 525 572 q 381 600 444 600 q 220 556 268 600 q 172 410 172 511 l 172 275 q 222 128 172 171 q 389 85 272 85 q 514 103 464 85 q 547 103 538 111 q 556 68 556 94 l 556 54 q 547 22 556 32 q 511 4 538 11 q 386 -14 456 -12 l 375 -58 q 500 -151 500 -44 q 467 -240 500 -212 q 363 -267 433 -267 q 307 -260 338 -267 q 287 -251 292 -257 q 282 -229 282 -244 l 282 -221 q 308 -199 282 -193 q 353 -203 329 -203 q 406 -192 390 -203 q 421 -151 421 -181 q 407 -115 421 -125 q 358 -104 393 -104 q 329 -106 336 -104 q 306 -104 310 -108 q 306 -82 301 -100 l 324 -11 q 131 70 193 0 q 68 274 68 140 z "},"è":{"ha":704,"x_min":68,"x_max":646,"o":"m 646 421 q 642 346 646 372 q 629 311 639 319 q 592 303 619 303 l 172 303 l 172 261 q 223 126 172 167 q 389 85 274 85 q 578 111 485 85 q 613 110 603 118 q 622 75 622 101 l 622 63 q 615 31 622 40 q 579 13 607 21 q 389 -14 494 -14 q 145 55 222 -14 q 68 276 68 124 l 68 406 q 361 699 68 699 q 573 628 500 699 q 646 421 646 557 m 172 436 l 172 390 l 547 390 l 547 436 q 360 606 547 606 q 172 436 172 606 m 314 796 l 244 911 q 234 943 229 935 q 267 951 239 951 l 281 951 q 322 943 308 951 q 350 910 336 935 l 408 797 q 415 769 419 776 q 388 763 411 763 l 374 763 q 314 796 335 763 z "},"é":{"ha":704,"x_min":68,"x_max":646,"o":"m 646 421 q 642 346 646 372 q 629 311 639 319 q 592 303 619 303 l 172 303 l 172 261 q 223 126 172 167 q 389 85 274 85 q 578 111 485 85 q 613 110 603 118 q 622 75 622 101 l 622 63 q 615 31 622 40 q 579 13 607 21 q 389 -14 494 -14 q 145 55 222 -14 q 68 276 68 124 l 68 406 q 361 699 68 699 q 573 628 500 699 q 646 421 646 557 m 172 436 l 172 390 l 547 390 l 547 436 q 360 606 547 606 q 172 436 172 606 m 460 911 l 390 796 q 331 763 369 763 l 317 763 q 290 769 294 763 q 296 797 286 776 l 354 910 q 382 943 368 935 q 424 951 396 951 l 438 951 q 470 943 465 951 q 460 911 475 935 z "},"ê":{"ha":704,"x_min":68,"x_max":646,"o":"m 646 421 q 642 346 646 372 q 629 311 639 319 q 592 303 619 303 l 172 303 l 172 261 q 223 126 172 167 q 389 85 274 85 q 578 111 485 85 q 613 110 603 118 q 622 75 622 101 l 622 63 q 615 31 622 40 q 579 13 607 21 q 389 -14 494 -14 q 145 55 222 -14 q 68 276 68 124 l 68 406 q 361 699 68 699 q 573 628 500 699 q 646 421 646 557 m 172 436 l 172 390 l 547 390 l 547 436 q 360 606 547 606 q 172 436 172 606 m 197 799 l 250 881 q 296 935 276 921 q 349 949 315 949 q 403 935 383 949 q 447 881 422 921 l 500 799 q 508 774 513 781 q 482 767 504 767 l 471 767 q 414 799 433 767 l 382 853 q 315 853 349 911 l 285 799 q 228 767 265 767 l 215 767 q 190 774 193 767 q 197 799 186 781 z "},"ë":{"ha":704,"x_min":68,"x_max":646,"o":"m 646 421 q 642 346 646 372 q 629 311 639 319 q 592 303 619 303 l 172 303 l 172 261 q 223 126 172 167 q 389 85 274 85 q 578 111 485 85 q 613 110 603 118 q 622 75 622 101 l 622 63 q 615 31 622 40 q 579 13 607 21 q 389 -14 494 -14 q 145 55 222 -14 q 68 276 68 124 l 68 406 q 361 699 68 699 q 573 628 500 699 q 646 421 646 557 m 172 436 l 172 390 l 547 390 l 547 436 q 360 606 547 606 q 172 436 172 606 m 172 857 q 190 902 172 883 q 235 921 208 921 q 279 903 261 921 q 297 857 297 885 q 279 814 297 832 q 235 796 261 796 q 190 814 208 796 q 172 857 172 832 m 397 857 q 415 902 397 883 q 461 921 433 921 q 504 902 486 921 q 522 857 522 883 q 504 814 522 832 q 461 796 486 796 q 416 814 435 796 q 397 857 397 832 z "},"ì":{"ha":301,"x_min":11,"x_max":207,"o":"m 103 44 l 103 640 q 112 676 103 667 q 147 685 121 685 l 163 685 q 199 676 190 685 q 207 640 207 667 l 207 44 q 199 8 207 17 q 163 0 190 0 l 147 0 q 112 8 121 0 q 103 44 103 17 m 92 796 l 22 911 q 12 943 7 935 q 44 951 17 951 l 58 951 q 100 943 86 951 q 128 910 114 935 l 186 797 q 193 769 197 776 q 165 763 189 763 l 151 763 q 92 796 113 763 z "},"í":{"ha":301,"x_min":99,"x_max":289,"o":"m 99 44 l 99 640 q 108 676 99 667 q 143 685 117 685 l 158 685 q 194 676 186 685 q 203 640 203 667 l 203 44 q 194 8 203 17 q 158 0 186 0 l 143 0 q 108 8 117 0 q 99 44 99 17 m 278 911 l 208 796 q 149 763 188 763 l 135 763 q 108 769 113 763 q 114 797 103 776 l 172 910 q 200 943 186 935 q 242 951 214 951 l 256 951 q 288 943 283 951 q 278 911 293 935 z "},"î":{"ha":301,"x_min":-4,"x_max":315,"o":"m 4 799 l 57 881 q 103 935 83 921 q 156 949 122 949 q 210 935 190 949 q 254 881 229 921 l 307 799 q 315 774 319 781 q 289 767 311 767 l 278 767 q 221 799 240 767 l 189 853 q 122 853 156 911 l 92 799 q 35 767 72 767 l 22 767 q -3 774 0 767 q 4 799 -7 781 m 104 44 l 104 640 q 113 676 104 667 q 149 685 122 685 l 164 685 q 200 676 192 685 q 208 640 208 667 l 208 44 q 200 8 208 17 q 164 0 192 0 l 149 0 q 113 8 122 0 q 104 44 104 17 z "},"ï":{"ha":301,"x_min":-24,"x_max":326,"o":"m 99 44 l 99 640 q 108 676 99 667 q 143 685 117 685 l 158 685 q 194 676 186 685 q 203 640 203 667 l 203 44 q 194 8 203 17 q 158 0 186 0 l 143 0 q 108 8 117 0 q 99 44 99 17 m -24 857 q -6 902 -24 883 q 39 921 13 921 q 83 903 65 921 q 101 857 101 885 q 83 814 101 832 q 39 796 65 796 q -6 814 13 796 q -24 857 -24 832 m 201 857 q 220 902 201 883 q 265 921 239 921 q 308 902 290 921 q 326 857 326 883 q 308 814 326 832 q 265 796 290 796 q 220 814 239 796 q 201 857 201 832 z "},"ð":{"ha":735,"x_min":58,"x_max":658,"o":"m 249 747 l 354 853 q 193 897 286 885 q 162 910 168 900 q 164 944 156 919 l 168 957 q 188 989 176 982 q 224 992 200 996 q 428 926 354 968 l 506 1004 q 528 1018 519 1018 q 550 1004 536 1018 l 557 997 q 571 975 571 983 q 557 954 571 967 l 489 886 q 619 713 579 815 q 658 451 658 611 q 597 97 658 208 q 338 -14 532 -14 q 58 274 58 -14 q 351 553 58 553 q 547 521 443 553 q 512 698 542 629 q 417 813 482 767 l 300 696 q 278 683 286 683 q 256 697 269 683 l 249 704 q 235 726 235 718 q 249 747 235 735 m 353 457 q 211 415 256 457 q 167 274 167 372 q 208 132 167 176 q 339 88 250 88 q 508 156 469 88 q 547 422 547 224 q 353 457 464 457 z "},"ñ":{"ha":743,"x_min":82,"x_max":661,"o":"m 186 439 l 186 44 q 178 8 186 17 q 142 0 169 0 l 126 0 q 91 8 100 0 q 82 44 82 17 l 82 439 q 372 699 82 699 q 591 634 521 699 q 661 439 661 569 l 661 44 q 653 8 661 17 q 617 0 644 0 l 600 0 q 564 8 572 0 q 556 44 556 17 l 556 439 q 515 563 556 526 q 372 600 474 600 q 228 563 271 600 q 186 439 186 525 m 197 786 l 188 786 q 163 792 169 786 q 158 813 157 797 q 279 938 169 938 q 388 893 322 938 q 469 849 453 849 q 517 901 510 849 q 524 922 518 917 q 549 928 531 928 l 557 928 q 581 922 575 928 q 586 901 588 917 q 465 776 578 776 q 358 821 419 776 q 276 865 297 865 q 229 813 236 865 q 222 792 228 797 q 197 786 215 786 z "},"ò":{"ha":744,"x_min":68,"x_max":676,"o":"m 572 278 l 572 407 q 528 556 572 511 q 374 600 483 600 q 217 556 263 600 q 172 407 172 511 l 172 278 q 217 129 172 174 q 374 85 263 85 q 528 129 483 85 q 572 278 572 174 m 374 -14 q 142 58 215 -14 q 68 278 68 131 l 68 407 q 374 699 68 699 q 603 626 531 699 q 676 407 676 554 l 676 278 q 374 -14 676 -14 m 321 796 l 251 911 q 241 943 236 935 q 274 951 246 951 l 288 951 q 329 943 315 951 q 357 910 343 935 l 415 797 q 423 776 422 783 q 417 765 424 768 q 394 763 410 763 l 381 763 q 321 796 342 763 z "},"ó":{"ha":744,"x_min":68,"x_max":676,"o":"m 572 278 l 572 407 q 528 556 572 511 q 374 600 483 600 q 217 556 263 600 q 172 407 172 511 l 172 278 q 217 129 172 174 q 374 85 263 85 q 528 129 483 85 q 572 278 572 174 m 374 -14 q 142 58 215 -14 q 68 278 68 131 l 68 407 q 374 699 68 699 q 603 626 531 699 q 676 407 676 554 l 676 278 q 374 -14 676 -14 m 496 911 l 426 796 q 367 763 406 763 l 353 763 q 326 769 331 763 q 332 797 322 776 l 390 910 q 418 943 404 935 q 460 951 432 951 l 474 951 q 506 943 501 951 q 496 911 511 935 z "},"ô":{"ha":744,"x_min":68,"x_max":676,"o":"m 222 799 l 275 881 q 321 935 301 921 q 374 949 340 949 q 428 935 408 949 q 472 881 447 921 l 525 799 q 533 774 538 781 q 507 767 529 767 l 496 767 q 439 799 458 767 l 407 853 q 340 853 374 911 l 310 799 q 253 767 290 767 l 240 767 q 215 774 218 767 q 222 799 211 781 m 572 278 l 572 407 q 528 556 572 511 q 374 600 483 600 q 217 556 263 600 q 172 407 172 511 l 172 278 q 217 129 172 174 q 374 85 263 85 q 528 129 483 85 q 572 278 572 174 m 374 -14 q 142 58 215 -14 q 68 278 68 131 l 68 407 q 374 699 68 699 q 603 626 531 699 q 676 407 676 554 l 676 278 q 374 -14 676 -14 z "},"õ":{"ha":744,"x_min":68,"x_max":676,"o":"m 572 278 l 572 407 q 528 556 572 511 q 374 600 483 600 q 217 556 263 600 q 172 407 172 511 l 172 278 q 217 129 172 174 q 374 85 263 85 q 528 129 483 85 q 572 278 572 174 m 374 -14 q 142 58 215 -14 q 68 278 68 131 l 68 407 q 374 699 68 699 q 603 626 531 699 q 676 407 676 554 l 676 278 q 374 -14 676 -14 m 199 786 l 189 786 q 165 792 171 786 q 160 813 158 797 q 281 938 169 938 q 388 893 326 938 q 471 849 449 849 q 518 901 511 849 q 526 922 519 917 q 550 928 532 928 l 558 928 q 583 922 576 928 q 588 901 589 917 q 467 776 579 776 q 360 821 421 776 q 278 865 299 865 q 231 813 238 865 q 223 792 229 797 q 199 786 217 786 z "},"ö":{"ha":744,"x_min":68,"x_max":676,"o":"m 572 278 l 572 407 q 528 556 572 511 q 374 600 483 600 q 217 556 263 600 q 172 407 172 511 l 172 278 q 217 129 172 174 q 374 85 263 85 q 528 129 483 85 q 572 278 572 174 m 374 -14 q 142 58 215 -14 q 68 278 68 131 l 68 407 q 374 699 68 699 q 603 626 531 699 q 676 407 676 554 l 676 278 q 374 -14 676 -14 m 199 857 q 217 902 199 883 q 261 921 235 921 q 306 903 288 921 q 324 857 324 885 q 306 814 324 832 q 261 796 288 796 q 217 814 235 796 q 199 857 199 832 m 424 857 q 442 902 424 883 q 488 921 461 921 q 531 902 513 921 q 549 857 549 883 q 531 814 549 832 q 488 796 513 796 q 442 814 461 796 q 424 857 424 832 z "},"÷":{"ha":772,"x_min":76,"x_max":696,"o":"m 313 199 q 334 251 313 231 q 386 272 356 272 q 438 251 417 272 q 460 199 460 231 q 438 147 460 168 q 386 125 417 125 q 334 147 356 125 q 313 199 313 168 m 313 704 q 334 756 313 735 q 386 778 356 778 q 438 756 417 778 q 460 704 460 735 q 438 651 460 672 q 386 631 417 631 q 334 651 356 631 q 313 704 313 672 m 696 457 l 696 446 q 688 415 696 422 q 657 407 681 407 l 115 407 q 84 415 92 407 q 76 446 76 422 l 76 457 q 84 488 76 481 q 115 496 92 496 l 657 496 q 688 488 681 496 q 696 457 696 481 z "},"ø":{"ha":744,"x_min":68,"x_max":676,"o":"m 374 -14 q 224 10 297 -14 l 207 -18 q 187 -39 196 -36 q 161 -32 178 -42 l 154 -28 q 134 -8 136 -17 q 142 18 132 0 l 157 44 q 68 278 68 113 l 68 407 q 374 699 68 699 q 521 674 456 699 l 539 704 q 558 724 550 722 q 585 717 567 726 l 592 713 q 613 692 610 700 q 604 667 615 685 l 588 640 q 676 407 676 572 l 676 278 q 374 -14 676 -14 m 572 278 l 572 407 q 529 553 572 510 l 268 100 q 374 85 317 85 q 528 129 483 85 q 572 278 572 174 m 172 407 l 172 278 q 215 133 172 176 l 476 585 q 374 600 431 600 q 217 556 263 600 q 172 407 172 511 z "},"ù":{"ha":726,"x_min":74,"x_max":653,"o":"m 178 640 l 178 246 q 220 122 178 160 q 364 85 263 85 q 508 122 467 85 q 549 246 549 158 l 549 640 q 558 676 549 667 q 593 685 567 685 l 608 685 q 644 676 636 685 q 653 640 653 667 l 653 246 q 583 51 653 115 q 364 -14 513 -14 q 74 246 74 -14 l 74 640 q 83 676 74 667 q 118 685 92 685 l 133 685 q 169 676 161 685 q 178 640 178 667 m 314 796 l 244 911 q 234 943 229 935 q 267 951 239 951 l 281 951 q 322 943 308 951 q 350 910 336 935 l 408 797 q 415 769 419 776 q 388 763 411 763 l 374 763 q 314 796 335 763 z "},"ú":{"ha":726,"x_min":74,"x_max":653,"o":"m 178 640 l 178 246 q 220 122 178 160 q 364 85 263 85 q 508 122 467 85 q 549 246 549 158 l 549 640 q 558 676 549 667 q 593 685 567 685 l 608 685 q 644 676 636 685 q 653 640 653 667 l 653 246 q 583 51 653 115 q 364 -14 513 -14 q 74 246 74 -14 l 74 640 q 83 676 74 667 q 118 685 92 685 l 133 685 q 169 676 161 685 q 178 640 178 667 m 476 911 l 407 796 q 347 763 386 763 l 333 763 q 307 769 311 763 q 313 797 303 776 l 371 910 q 399 943 385 935 q 440 951 413 951 l 454 951 q 487 943 482 951 q 476 911 492 935 z "},"û":{"ha":726,"x_min":74,"x_max":653,"o":"m 213 799 l 265 881 q 311 935 292 921 q 364 949 331 949 q 418 935 399 949 q 463 881 438 921 l 515 799 q 524 774 528 781 q 497 767 519 767 l 486 767 q 429 799 449 767 l 397 853 q 331 853 364 911 l 300 799 q 243 767 281 767 l 231 767 q 205 774 208 767 q 213 799 201 781 m 178 640 l 178 246 q 220 122 178 160 q 364 85 263 85 q 508 122 467 85 q 549 246 549 158 l 549 640 q 558 676 549 667 q 593 685 567 685 l 608 685 q 644 676 636 685 q 653 640 653 667 l 653 246 q 583 51 653 115 q 364 -14 513 -14 q 74 246 74 -14 l 74 640 q 83 676 74 667 q 118 685 92 685 l 133 685 q 169 676 161 685 q 178 640 178 667 z "},"ü":{"ha":726,"x_min":74,"x_max":653,"o":"m 178 640 l 178 246 q 220 122 178 160 q 364 85 263 85 q 508 122 467 85 q 549 246 549 158 l 549 640 q 558 676 549 667 q 593 685 567 685 l 608 685 q 644 676 636 685 q 653 640 653 667 l 653 246 q 583 51 653 115 q 364 -14 513 -14 q 74 246 74 -14 l 74 640 q 83 676 74 667 q 118 685 92 685 l 133 685 q 169 676 161 685 q 178 640 178 667 m 189 857 q 207 902 189 883 q 251 921 225 921 q 296 903 278 921 q 314 857 314 885 q 296 814 314 832 q 251 796 278 796 q 207 814 225 796 q 189 857 189 832 m 414 857 q 432 902 414 883 q 478 921 450 921 q 521 902 503 921 q 539 857 539 883 q 521 814 539 832 q 478 796 503 796 q 433 814 451 796 q 414 857 414 832 z "},"ý":{"ha":719,"x_min":57,"x_max":678,"o":"m 163 639 l 293 160 q 323 99 306 114 q 378 83 340 83 q 427 100 410 83 q 456 160 444 117 l 571 639 q 589 675 576 665 q 629 685 601 685 l 642 685 q 678 676 671 685 q 678 639 685 667 l 518 0 q 239 -294 447 -281 q 205 -289 215 -297 q 189 -256 194 -281 l 186 -243 q 188 -212 181 -219 q 222 -201 196 -204 q 340 -144 296 -193 q 414 8 383 -96 q 344 -7 386 -7 q 247 29 279 -7 q 189 156 214 65 l 57 639 q 57 676 50 667 q 92 685 64 685 l 103 685 q 143 676 131 685 q 163 639 156 667 m 497 911 l 428 796 q 368 763 407 763 l 354 763 q 328 769 332 763 q 333 797 324 776 l 392 910 q 419 943 406 935 q 461 951 433 951 l 475 951 q 508 943 503 951 q 497 911 513 935 z "},"þ":{"ha":767,"x_min":90,"x_max":699,"o":"m 699 406 l 699 279 q 411 -14 699 -14 q 194 89 249 -14 l 194 -233 q 186 -269 194 -261 q 150 -278 178 -278 l 135 -278 q 99 -269 108 -278 q 90 -233 90 -261 l 90 904 q 99 940 90 931 q 135 949 108 949 l 150 949 q 186 940 178 949 q 194 904 194 931 l 194 597 q 411 699 250 699 q 699 406 699 699 m 593 278 l 593 407 q 549 556 593 513 q 394 600 504 600 q 240 556 286 600 q 194 414 194 513 l 194 278 q 240 129 194 174 q 394 85 285 85 q 549 129 504 85 q 593 278 593 174 z "},"ÿ":{"ha":719,"x_min":57,"x_max":678,"o":"m 163 639 l 293 160 q 323 99 306 114 q 378 83 340 83 q 427 100 410 83 q 456 160 444 117 l 571 639 q 589 675 576 665 q 629 685 601 685 l 642 685 q 678 676 671 685 q 678 639 685 667 l 518 0 q 239 -294 447 -281 q 205 -289 215 -297 q 189 -256 194 -281 l 186 -243 q 188 -212 181 -219 q 222 -201 196 -204 q 340 -144 296 -193 q 414 8 383 -96 q 344 -7 386 -7 q 247 29 279 -7 q 189 156 214 65 l 57 639 q 57 676 50 667 q 92 685 64 685 l 103 685 q 143 676 131 685 q 163 639 156 667 m 190 857 q 208 902 190 883 q 253 921 226 921 q 297 903 279 921 q 315 857 315 885 q 297 814 315 832 q 253 796 279 796 q 208 814 226 796 q 190 857 190 832 m 415 857 q 433 902 415 883 q 479 921 451 921 q 522 902 504 921 q 540 857 540 883 q 522 814 540 832 q 479 796 504 796 q 434 814 453 796 q 415 857 415 832 z "},"Ā":{"ha":846,"x_min":49,"x_max":811,"o":"m 607 1040 l 607 1029 q 599 998 607 1006 q 568 990 592 990 l 290 990 q 259 998 267 990 q 251 1029 251 1006 l 251 1040 q 259 1072 251 1064 q 290 1079 267 1079 l 568 1079 q 599 1072 592 1079 q 607 1040 607 1064 m 625 711 l 811 46 q 811 10 818 19 q 776 0 804 0 l 763 0 q 722 9 733 0 q 703 46 710 18 l 638 279 l 222 279 l 158 46 q 140 9 151 18 q 99 0 128 0 l 83 0 q 49 10 56 0 q 49 46 42 19 l 235 711 q 306 872 268 831 q 431 915 344 915 q 554 872 517 915 q 625 711 593 831 m 344 724 l 249 378 l 611 378 l 515 724 q 483 799 500 781 q 431 818 465 818 q 377 799 394 818 q 344 724 360 781 z "},"ā":{"ha":671,"x_min":51,"x_max":603,"o":"m 513 846 l 513 835 q 505 803 513 811 q 474 796 497 796 l 196 796 q 165 803 172 796 q 157 835 157 811 l 157 846 q 165 877 157 869 q 196 885 172 885 l 474 885 q 505 877 497 885 q 513 846 513 869 m 603 481 l 603 206 q 533 38 603 90 q 313 -14 464 -14 q 119 38 186 -14 q 51 194 51 90 q 120 349 51 301 q 335 397 189 397 l 499 397 l 499 481 q 454 577 499 547 q 317 607 410 607 q 164 592 232 607 q 129 594 139 586 q 119 626 119 601 l 119 638 q 128 670 119 661 q 161 685 136 679 q 311 699 222 699 q 603 481 603 699 m 499 210 l 499 315 l 336 315 q 198 288 240 315 q 156 194 156 260 q 311 76 156 76 q 456 106 413 76 q 499 210 499 136 z "},"Ă":{"ha":846,"x_min":49,"x_max":811,"o":"m 625 711 l 811 46 q 811 10 818 19 q 776 0 804 0 l 763 0 q 722 9 733 0 q 703 46 710 18 l 638 279 l 222 279 l 158 46 q 140 9 151 18 q 99 0 128 0 l 83 0 q 49 10 56 0 q 49 46 42 19 l 235 711 q 306 872 268 831 q 431 915 344 915 q 554 872 517 915 q 625 711 593 831 m 344 724 l 249 378 l 611 378 l 515 724 q 483 799 500 781 q 431 818 465 818 q 377 799 394 818 q 344 724 360 781 m 253 1122 l 253 1117 q 260 1143 253 1136 q 286 1150 267 1150 l 297 1150 q 324 1143 317 1150 q 331 1117 331 1136 l 331 1122 q 353 1067 331 1083 q 429 1050 376 1050 q 505 1067 482 1050 q 528 1124 528 1085 l 528 1117 q 535 1143 528 1136 q 561 1150 542 1150 l 572 1150 q 599 1143 592 1150 q 606 1117 606 1136 l 606 1122 q 429 982 606 982 q 253 1122 253 982 z "},"ă":{"ha":671,"x_min":51,"x_max":603,"o":"m 603 481 l 603 206 q 533 38 603 90 q 313 -14 464 -14 q 119 38 186 -14 q 51 194 51 90 q 120 349 51 301 q 335 397 189 397 l 499 397 l 499 481 q 454 577 499 547 q 317 607 410 607 q 164 592 232 607 q 129 594 139 586 q 119 626 119 601 l 119 638 q 128 670 119 661 q 161 685 136 679 q 311 699 222 699 q 603 481 603 699 m 499 210 l 499 315 l 336 315 q 198 288 240 315 q 156 194 156 260 q 311 76 156 76 q 456 106 413 76 q 499 210 499 136 m 158 904 l 158 899 q 165 925 158 918 q 192 932 172 932 l 203 932 q 229 925 222 932 q 236 899 236 918 l 236 904 q 259 849 236 865 q 335 832 282 832 q 410 849 388 832 q 433 906 433 867 l 433 899 q 440 925 433 918 q 467 932 447 932 l 478 932 q 504 925 497 932 q 511 899 511 918 l 511 904 q 335 764 511 764 q 158 904 158 764 z "},"Ą":{"ha":846,"x_min":49,"x_max":818,"o":"m 625 711 l 811 46 q 806 4 821 15 q 719 -69 740 -40 q 697 -140 697 -99 q 710 -187 697 -174 q 754 -200 724 -200 q 786 -197 756 -200 q 812 -199 806 -194 q 818 -222 818 -204 l 818 -232 q 811 -258 818 -250 q 785 -268 804 -265 q 736 -272 761 -272 q 641 -244 671 -272 q 611 -153 611 -217 q 636 -62 611 -94 q 726 6 661 -31 q 703 46 711 14 l 638 279 l 222 279 l 158 46 q 140 9 151 18 q 99 0 128 0 l 83 0 q 49 10 56 0 q 49 46 42 19 l 235 711 q 306 872 268 831 q 431 915 344 915 q 554 872 517 915 q 625 711 593 831 m 344 724 l 249 378 l 611 378 l 515 724 q 483 799 500 781 q 431 818 465 818 q 377 799 394 818 q 344 724 360 781 z "},"ą":{"ha":671,"x_min":51,"x_max":603,"o":"m 603 481 l 603 206 q 467 6 603 50 q 375 -56 414 -11 q 338 -140 338 -99 q 351 -187 338 -174 q 394 -200 364 -200 q 426 -197 396 -200 q 452 -199 446 -194 q 458 -222 458 -204 l 458 -232 q 451 -258 458 -250 q 425 -268 444 -265 q 376 -272 403 -272 q 281 -244 311 -272 q 251 -153 251 -217 q 272 -73 251 -104 q 343 -12 293 -42 q 313 -14 339 -14 q 119 38 186 -14 q 51 194 51 90 q 120 349 51 301 q 335 397 189 397 l 499 397 l 499 481 q 454 577 499 547 q 317 607 410 607 q 164 592 232 607 q 129 594 139 586 q 119 626 119 601 l 119 638 q 128 670 119 661 q 161 685 136 679 q 311 699 222 699 q 603 481 603 699 m 499 210 l 499 315 l 336 315 q 198 288 240 315 q 156 194 156 260 q 311 76 156 76 q 456 106 413 76 q 499 210 499 136 z "},"Ć":{"ha":728,"x_min":78,"x_max":674,"o":"m 188 554 l 188 332 q 246 147 188 207 q 432 88 304 88 q 632 124 536 88 q 665 126 656 133 q 674 93 674 119 l 674 76 q 665 43 674 54 q 632 21 657 32 q 435 -14 558 -14 q 165 70 251 -14 q 78 332 78 154 l 78 554 q 432 915 78 915 q 625 879 532 915 q 657 859 649 869 q 665 826 665 849 l 665 808 q 622 776 665 758 q 428 814 535 814 q 245 751 303 814 q 188 554 188 689 m 501 1118 l 432 1003 q 372 969 411 969 l 358 969 q 331 976 335 969 q 338 1004 326 983 l 396 1117 q 424 1150 410 1142 q 465 1158 438 1158 l 479 1158 q 512 1150 507 1158 q 501 1118 517 1142 z "},"ć":{"ha":596,"x_min":68,"x_max":556,"o":"m 68 274 l 68 411 q 146 625 68 551 q 378 699 224 699 q 500 681 450 699 q 533 662 525 672 q 542 628 542 651 l 542 614 q 533 580 542 588 q 500 581 525 572 q 381 600 444 600 q 220 556 268 600 q 172 410 172 511 l 172 275 q 222 128 172 171 q 389 85 272 85 q 514 103 464 85 q 547 103 538 111 q 556 68 556 94 l 556 54 q 547 22 556 32 q 511 4 538 11 q 382 -14 457 -14 q 145 56 222 -14 q 68 274 68 126 m 460 911 l 390 796 q 331 763 369 763 l 317 763 q 290 769 294 763 q 296 797 286 776 l 354 910 q 382 943 368 935 q 424 951 396 951 l 438 951 q 470 943 465 951 q 460 911 475 935 z "},"Č":{"ha":728,"x_min":78,"x_max":674,"o":"m 188 554 l 188 332 q 246 147 188 207 q 432 88 304 88 q 632 124 536 88 q 665 126 656 133 q 674 93 674 119 l 674 76 q 665 43 674 54 q 632 21 657 32 q 435 -14 558 -14 q 165 70 251 -14 q 78 332 78 154 l 78 554 q 432 915 78 915 q 625 879 532 915 q 657 859 649 869 q 665 826 665 849 l 665 808 q 622 776 665 758 q 428 814 535 814 q 245 751 303 814 q 188 554 188 689 m 310 1042 l 257 1124 q 249 1149 244 1142 q 275 1156 253 1156 l 288 1156 q 344 1124 325 1156 l 375 1069 q 442 1069 408 1011 l 474 1124 q 531 1156 493 1156 l 542 1156 q 567 1149 564 1156 q 560 1124 571 1142 l 507 1042 q 463 988 482 1001 q 408 974 443 974 q 356 988 375 974 q 310 1042 336 1001 z "},"č":{"ha":581,"x_min":68,"x_max":556,"o":"m 68 274 l 68 411 q 146 625 68 551 q 378 699 224 699 q 500 681 450 699 q 533 662 525 672 q 542 628 542 651 l 542 614 q 533 580 542 588 q 500 581 525 572 q 381 600 444 600 q 220 556 268 600 q 172 410 172 511 l 172 275 q 222 128 172 171 q 389 85 272 85 q 514 103 464 85 q 547 103 538 111 q 556 68 556 94 l 556 54 q 547 22 556 32 q 511 4 538 11 q 382 -14 457 -14 q 145 56 222 -14 q 68 274 68 126 m 239 835 l 186 917 q 178 942 174 936 q 204 949 182 949 l 217 949 q 274 917 254 949 l 304 863 q 371 863 338 804 l 403 917 q 460 949 422 949 l 471 949 q 497 942 493 949 q 489 917 500 935 l 436 835 q 392 781 411 794 q 338 767 372 767 q 285 781 304 767 q 239 835 265 794 z "},"Ď":{"ha":843,"x_min":106,"x_max":765,"o":"m 106 150 l 106 753 q 141 867 106 831 q 256 903 176 903 l 374 903 q 676 825 586 903 q 765 546 765 749 l 765 357 q 675 81 765 163 q 374 0 586 0 l 256 0 q 141 36 176 0 q 106 150 106 72 m 279 101 l 374 101 q 596 156 538 101 q 654 357 654 211 l 654 546 q 594 746 654 690 q 374 801 539 801 l 279 801 q 229 786 244 801 q 214 736 214 771 l 214 167 q 229 117 214 132 q 279 101 244 101 m 296 1042 l 243 1124 q 235 1149 231 1142 q 261 1156 239 1156 l 274 1156 q 331 1124 311 1156 l 361 1069 q 428 1069 394 1011 l 460 1124 q 517 1156 479 1156 l 528 1156 q 553 1149 550 1156 q 546 1124 557 1142 l 493 1042 q 449 988 468 1001 q 394 974 429 974 q 342 988 361 974 q 296 1042 322 1001 z "},"ď":{"ha":807,"x_min":68,"x_max":865,"o":"m 676 928 l 676 276 q 372 -14 676 -14 q 143 58 218 -14 q 68 276 68 131 l 68 406 q 356 699 68 699 q 572 597 517 699 l 572 928 q 581 964 572 956 q 617 972 589 972 l 632 972 q 667 964 658 972 q 676 928 676 956 m 172 407 l 172 278 q 217 129 172 174 q 372 85 261 85 q 527 129 482 85 q 572 278 572 174 l 572 407 q 527 556 572 511 q 372 600 482 600 q 217 556 263 600 q 172 407 172 511 m 760 696 q 733 683 750 679 q 719 711 719 688 q 738 863 722 760 q 817 1006 763 1006 q 852 990 839 1006 q 865 947 865 974 q 826 826 865 910 q 760 696 782 732 z "},"Đ":{"ha":843,"x_min":22,"x_max":767,"o":"m 107 150 l 107 413 l 56 413 q 29 419 36 413 q 22 446 22 426 l 22 457 q 29 483 22 476 q 56 490 36 490 l 107 490 l 107 753 q 143 867 107 831 q 258 903 179 903 l 375 903 q 678 825 588 903 q 767 546 767 749 l 767 357 q 676 81 767 163 q 375 0 588 0 l 258 0 q 143 36 179 0 q 107 150 107 72 m 282 101 l 375 101 q 597 156 539 101 q 657 357 657 211 l 657 546 q 597 746 657 690 q 375 801 542 801 l 282 801 q 215 736 215 801 l 215 490 l 322 490 q 349 483 342 490 q 356 457 356 476 l 356 446 q 349 419 356 426 q 322 413 342 413 l 215 413 l 215 167 q 282 101 215 101 z "},"đ":{"ha":750,"x_min":68,"x_max":750,"o":"m 676 928 l 676 858 l 711 858 q 742 850 733 858 q 750 819 750 842 l 750 808 q 742 778 750 786 q 711 769 733 769 l 676 769 l 676 276 q 372 -14 676 -14 q 143 58 218 -14 q 68 276 68 131 l 68 406 q 356 699 68 699 q 572 597 517 699 l 572 769 l 393 769 q 362 778 369 769 q 354 808 354 786 l 354 819 q 362 850 354 842 q 393 858 369 858 l 572 858 l 572 928 q 581 964 572 956 q 617 972 589 972 l 632 972 q 667 964 658 972 q 676 928 676 956 m 172 407 l 172 278 q 217 129 172 174 q 372 85 261 85 q 527 129 482 85 q 572 278 572 174 l 572 407 q 527 556 572 511 q 372 600 482 600 q 217 556 263 600 q 172 407 172 511 z "},"Ē":{"ha":753,"x_min":106,"x_max":692,"o":"m 593 1040 l 593 1029 q 585 998 593 1006 q 554 990 578 990 l 276 990 q 245 998 253 990 q 238 1029 238 1006 l 238 1040 q 245 1072 238 1064 q 276 1079 253 1079 l 554 1079 q 585 1072 578 1079 q 593 1040 593 1064 m 593 419 l 214 419 l 214 167 q 229 117 214 132 q 279 101 244 101 l 649 101 q 683 93 675 101 q 692 58 692 85 l 692 43 q 683 8 692 17 q 649 0 675 0 l 256 0 q 141 36 176 0 q 106 150 106 72 l 106 753 q 141 867 106 831 q 256 903 176 903 l 649 903 q 683 894 675 903 q 692 860 692 886 l 692 844 q 683 810 692 818 q 649 801 675 801 l 279 801 q 229 786 244 801 q 214 736 214 771 l 214 521 l 593 521 q 628 513 619 521 q 636 478 636 504 l 636 463 q 628 428 636 436 q 593 419 619 419 z "},"ē":{"ha":714,"x_min":68,"x_max":646,"o":"m 532 846 l 532 835 q 524 803 532 811 q 493 796 517 796 l 215 796 q 184 803 192 796 q 176 835 176 811 l 176 846 q 184 877 176 869 q 215 885 192 885 l 493 885 q 524 877 517 885 q 532 846 532 869 m 646 421 q 642 346 646 372 q 629 311 639 319 q 592 303 619 303 l 172 303 l 172 261 q 223 126 172 167 q 389 85 274 85 q 578 111 485 85 q 613 110 603 118 q 622 75 622 101 l 622 63 q 615 31 622 40 q 579 13 607 21 q 389 -14 494 -14 q 145 55 222 -14 q 68 276 68 124 l 68 406 q 361 699 68 699 q 573 628 500 699 q 646 421 646 557 m 172 436 l 172 390 l 547 390 l 547 436 q 360 606 547 606 q 172 436 172 606 z "},"Ė":{"ha":753,"x_min":106,"x_max":692,"o":"m 593 419 l 214 419 l 214 167 q 229 117 214 132 q 279 101 244 101 l 649 101 q 683 93 675 101 q 692 58 692 85 l 692 43 q 683 8 692 17 q 649 0 675 0 l 256 0 q 141 36 176 0 q 106 150 106 72 l 106 753 q 141 867 106 831 q 256 903 176 903 l 649 903 q 683 894 675 903 q 692 860 692 886 l 692 844 q 683 810 692 818 q 649 801 675 801 l 279 801 q 229 786 244 801 q 214 736 214 771 l 214 521 l 593 521 q 628 513 619 521 q 636 478 636 504 l 636 463 q 628 428 636 436 q 593 419 619 419 m 467 1008 q 457 999 467 1008 q 418 989 447 989 q 369 1008 389 989 q 350 1057 350 1028 q 369 1106 350 1086 q 418 1125 389 1125 q 467 1106 447 1125 q 486 1057 486 1086 q 467 1008 486 1028 z "},"ė":{"ha":714,"x_min":68,"x_max":646,"o":"m 646 421 q 642 346 646 372 q 629 311 639 319 q 592 303 619 303 l 172 303 l 172 261 q 223 126 172 167 q 389 85 274 85 q 578 111 485 85 q 613 110 603 118 q 622 75 622 101 l 622 63 q 615 31 622 40 q 579 13 607 21 q 389 -14 494 -14 q 145 55 222 -14 q 68 276 68 124 l 68 406 q 361 699 68 699 q 573 628 500 699 q 646 421 646 557 m 172 436 l 172 390 l 547 390 l 547 436 q 360 606 547 606 q 172 436 172 606 m 410 819 q 400 810 410 819 q 361 800 390 800 q 313 819 332 800 q 293 868 293 839 q 313 917 293 897 q 361 936 332 936 q 410 917 390 936 q 429 868 429 897 q 410 819 429 839 z "},"Ę":{"ha":753,"x_min":106,"x_max":692,"o":"m 593 419 l 214 419 l 214 167 q 229 117 214 132 q 279 101 244 101 l 649 101 q 683 93 675 101 q 692 58 692 85 l 692 43 q 676 4 692 15 q 588 -65 610 -36 q 565 -140 565 -94 q 578 -187 565 -174 q 622 -200 592 -200 q 654 -197 624 -200 q 680 -199 674 -194 q 686 -222 686 -204 l 686 -232 q 679 -258 686 -250 q 653 -268 672 -265 q 604 -272 631 -272 q 509 -244 539 -272 q 479 -153 479 -217 q 503 -64 479 -97 q 588 0 528 -31 l 256 0 q 141 36 176 0 q 106 150 106 72 l 106 753 q 141 867 106 831 q 256 903 176 903 l 649 903 q 683 894 675 903 q 692 860 692 886 l 692 844 q 683 810 692 818 q 649 801 675 801 l 279 801 q 229 786 244 801 q 214 736 214 771 l 214 521 l 593 521 q 628 513 619 521 q 636 478 636 504 l 636 463 q 628 428 636 436 q 593 419 619 419 z "},"ę":{"ha":704,"x_min":68,"x_max":646,"o":"m 646 421 q 642 346 646 372 q 629 311 639 319 q 592 303 619 303 l 172 303 l 172 261 q 223 126 172 167 q 389 85 274 85 q 578 111 485 85 q 613 110 603 118 q 622 75 622 101 l 622 63 q 604 22 622 32 q 501 -58 529 -25 q 476 -140 476 -94 q 490 -187 476 -174 q 533 -200 503 -200 q 565 -197 535 -200 q 591 -199 585 -194 q 597 -222 597 -204 l 597 -232 q 590 -258 597 -250 q 564 -268 583 -265 q 515 -272 540 -272 q 420 -244 450 -272 q 390 -153 390 -217 q 503 -4 390 -62 q 389 -14 454 -14 q 145 55 222 -14 q 68 276 68 124 l 68 406 q 361 699 68 699 q 573 628 500 699 q 646 421 646 557 m 172 436 l 172 390 l 547 390 l 547 436 q 360 606 547 606 q 172 436 172 606 z "},"Ě":{"ha":753,"x_min":106,"x_max":692,"o":"m 593 419 l 214 419 l 214 167 q 229 117 214 132 q 279 101 244 101 l 649 101 q 683 93 675 101 q 692 58 692 85 l 692 43 q 683 8 692 17 q 649 0 675 0 l 256 0 q 141 36 176 0 q 106 150 106 72 l 106 753 q 141 867 106 831 q 256 903 176 903 l 649 903 q 683 894 675 903 q 692 860 692 886 l 692 844 q 683 810 692 818 q 649 801 675 801 l 279 801 q 229 786 244 801 q 214 736 214 771 l 214 521 l 593 521 q 628 513 619 521 q 636 478 636 504 l 636 463 q 628 428 636 436 q 593 419 619 419 m 310 1042 l 257 1124 q 249 1149 244 1142 q 275 1156 253 1156 l 288 1156 q 344 1124 325 1156 l 375 1069 q 442 1069 408 1011 l 474 1124 q 531 1156 493 1156 l 542 1156 q 567 1149 564 1156 q 560 1124 571 1142 l 507 1042 q 463 988 482 1001 q 408 974 443 974 q 356 988 375 974 q 310 1042 336 1001 z "},"ě":{"ha":714,"x_min":68,"x_max":646,"o":"m 646 421 q 642 346 646 372 q 629 311 639 319 q 592 303 619 303 l 172 303 l 172 261 q 223 126 172 167 q 389 85 274 85 q 578 111 485 85 q 613 110 603 118 q 622 75 622 101 l 622 63 q 615 31 622 40 q 579 13 607 21 q 389 -14 494 -14 q 145 55 222 -14 q 68 276 68 124 l 68 406 q 361 699 68 699 q 573 628 500 699 q 646 421 646 557 m 172 436 l 172 390 l 547 390 l 547 436 q 360 606 547 606 q 172 436 172 606 m 254 835 l 201 917 q 193 942 189 936 q 219 949 197 949 l 232 949 q 289 917 269 949 l 319 863 q 386 863 353 804 l 418 917 q 475 949 438 949 l 486 949 q 512 942 508 949 q 504 917 515 935 l 451 835 q 407 781 426 794 q 353 767 388 767 q 300 781 319 767 q 254 835 281 794 z "},"Ģ":{"ha":801,"x_min":78,"x_max":728,"o":"m 625 175 l 625 451 q 633 487 625 478 q 669 496 642 496 l 683 496 q 719 487 711 496 q 728 451 728 478 l 728 185 q 697 51 728 93 q 589 -4 667 10 q 469 -14 532 -14 q 171 69 264 -14 q 78 336 78 151 l 78 558 q 461 915 78 915 q 667 879 567 915 q 706 856 700 865 q 711 826 708 849 l 711 808 q 669 775 711 756 q 460 814 579 814 q 251 752 315 814 q 188 551 188 690 l 188 329 q 253 146 188 204 q 464 88 318 88 q 563 96 528 88 q 610 119 596 101 q 625 175 625 138 m 371 -356 q 343 -362 358 -369 q 336 -332 332 -356 q 354 -275 336 -329 q 375 -182 374 -221 q 389 -90 382 -107 q 425 -68 397 -71 q 462 -81 447 -67 q 479 -122 476 -96 q 467 -207 489 -144 q 371 -356 440 -286 z "},"ģ":{"ha":701,"x_min":49,"x_max":660,"o":"m 642 458 l 642 442 q 354 200 642 200 q 207 189 247 200 q 174 147 174 178 q 208 108 174 118 q 354 100 244 100 q 592 57 528 100 q 658 -90 658 15 q 590 -256 658 -208 q 354 -303 526 -303 q 114 -256 178 -303 q 49 -110 49 -210 q 126 39 49 -10 q 69 131 69 67 q 182 239 69 222 q 65 442 65 286 l 65 458 q 142 635 65 572 q 354 699 218 699 q 497 671 431 699 l 576 742 q 606 757 594 757 q 633 742 617 757 l 643 732 q 660 706 660 717 q 643 678 660 694 l 581 614 q 642 458 642 557 m 536 442 l 536 458 q 354 606 536 606 q 169 458 169 606 l 169 442 q 212 327 169 363 q 354 292 254 292 q 495 327 454 292 q 536 442 536 363 m 354 8 q 218 15 276 8 q 153 -99 153 -17 q 196 -189 153 -165 q 354 -212 239 -212 q 511 -187 468 -212 q 554 -94 554 -162 q 513 -11 554 -31 q 354 8 469 8 m 406 1081 q 433 1088 418 1094 q 440 1057 444 1081 q 422 1000 440 1054 q 401 907 403 946 q 388 815 394 832 q 351 793 379 796 q 315 806 329 792 q 297 847 300 821 q 310 932 288 869 q 406 1081 336 1011 z "},"Ī":{"ha":336,"x_min":0,"x_max":336,"o":"m 336 1040 l 336 1029 q 328 998 336 1006 q 297 990 321 990 l 39 990 q 8 998 15 990 q 0 1029 0 1006 l 0 1040 q 8 1072 0 1064 q 39 1079 15 1079 l 297 1079 q 328 1072 321 1079 q 336 1040 336 1064 m 114 47 l 114 856 q 124 893 114 883 q 161 903 133 903 l 175 903 q 213 893 203 903 q 222 856 222 883 l 222 47 q 213 10 222 19 q 175 0 203 0 l 161 0 q 124 10 133 0 q 114 47 114 19 z "},"ī":{"ha":301,"x_min":0,"x_max":301,"o":"m 301 846 l 301 835 q 294 803 301 811 q 263 796 286 796 l 39 796 q 8 803 15 796 q 0 835 0 811 l 0 846 q 8 877 0 869 q 39 885 15 885 l 263 885 q 294 877 286 885 q 301 846 301 869 m 99 44 l 99 640 q 108 676 99 667 q 143 685 117 685 l 158 685 q 194 676 186 685 q 203 640 203 667 l 203 44 q 194 8 203 17 q 158 0 186 0 l 143 0 q 108 8 117 0 q 99 44 99 17 z "},"Į":{"ha":336,"x_min":36,"x_max":243,"o":"m 114 47 l 114 856 q 124 893 114 883 q 161 903 133 903 l 175 903 q 213 893 203 903 q 222 856 222 883 l 222 47 q 201 3 222 8 q 149 -64 178 -18 q 122 -140 122 -108 q 135 -187 122 -174 q 179 -200 149 -200 q 211 -197 181 -200 q 237 -199 231 -194 q 243 -222 243 -204 l 243 -232 q 236 -258 243 -250 q 210 -268 229 -265 q 161 -272 186 -272 q 66 -244 96 -272 q 36 -153 36 -217 q 129 6 36 -65 q 114 47 114 14 z "},"į":{"ha":303,"x_min":18,"x_max":225,"o":"m 100 44 l 100 640 q 108 676 100 667 q 144 685 117 685 l 160 685 q 195 676 186 685 q 204 640 204 667 l 204 44 q 183 1 204 8 q 129 -65 156 -22 q 104 -140 104 -108 q 117 -187 104 -174 q 161 -200 131 -200 q 193 -197 163 -200 q 219 -199 213 -194 q 225 -222 225 -204 l 225 -232 q 218 -258 225 -250 q 192 -268 211 -265 q 143 -272 169 -272 q 48 -244 78 -272 q 18 -153 18 -217 q 111 6 18 -65 q 100 44 100 13 m 153 967 q 200 947 181 967 q 219 899 219 926 q 200 851 219 871 q 153 832 181 832 q 103 851 124 832 q 83 899 83 871 q 103 947 83 926 q 153 967 124 967 z "},"ı":{"ha":301,"x_min":99,"x_max":203,"o":"m 99 44 l 99 640 q 108 676 99 667 q 143 685 117 685 l 158 685 q 194 676 186 685 q 203 640 203 667 l 203 44 q 194 8 203 17 q 158 0 186 0 l 143 0 q 108 8 117 0 q 99 44 99 17 z "},"Ķ":{"ha":768,"x_min":106,"x_max":733,"o":"m 344 610 l 556 860 q 597 894 579 886 q 650 903 615 903 l 667 903 q 706 894 701 903 q 688 860 710 886 l 433 557 q 381 471 381 492 q 433 386 381 451 l 715 44 q 733 8 738 17 q 694 0 729 0 l 678 0 q 626 9 644 0 q 585 44 607 18 l 344 333 q 276 474 276 414 q 344 610 276 533 m 106 47 l 106 856 q 115 893 106 883 q 153 903 125 903 l 167 903 q 204 893 194 903 q 214 856 214 883 l 214 47 q 204 10 214 19 q 167 0 194 0 l 153 0 q 115 10 125 0 q 106 47 106 19 m 328 -356 q 300 -362 315 -369 q 293 -332 289 -356 q 311 -275 293 -329 q 332 -182 331 -221 q 346 -90 339 -107 q 382 -68 354 -71 q 419 -81 404 -67 q 436 -122 433 -96 q 424 -207 446 -144 q 328 -356 397 -286 z "},"ķ":{"ha":671,"x_min":96,"x_max":643,"o":"m 96 44 l 96 928 q 105 964 96 956 q 140 972 114 972 l 156 972 q 192 964 183 972 q 200 928 200 956 l 200 44 q 192 8 200 17 q 156 0 183 0 l 140 0 q 105 8 114 0 q 96 44 96 17 m 303 478 l 461 643 q 505 676 485 668 q 560 685 525 685 l 576 685 q 615 676 611 685 q 594 643 618 668 l 378 415 q 349 363 349 383 q 376 308 349 336 l 622 43 q 643 8 647 17 q 604 0 639 0 l 588 0 q 532 8 551 0 q 489 43 513 17 l 303 244 q 246 365 246 306 q 303 478 246 417 m 301 -356 q 274 -362 289 -369 q 267 -332 263 -356 q 285 -275 267 -329 q 306 -182 304 -221 q 319 -90 313 -107 q 356 -68 328 -71 q 392 -81 378 -67 q 410 -122 407 -96 q 397 -207 419 -144 q 301 -356 371 -286 z "},"Ĺ":{"ha":667,"x_min":106,"x_max":636,"o":"m 106 150 l 106 856 q 115 893 106 883 q 153 903 125 903 l 167 903 q 204 893 194 903 q 214 856 214 883 l 214 167 q 229 117 214 132 q 279 101 244 101 l 593 101 q 628 93 619 101 q 636 58 636 85 l 636 43 q 628 8 636 17 q 593 0 619 0 l 256 0 q 141 36 176 0 q 106 150 106 72 m 289 1118 l 219 1003 q 160 969 199 969 l 146 969 q 119 976 124 969 q 125 1004 115 983 l 183 1117 q 211 1150 197 1142 q 253 1158 225 1158 l 267 1158 q 299 1150 294 1158 q 289 1118 304 1142 z "},"ĺ":{"ha":329,"x_min":86,"x_max":311,"o":"m 269 1188 l 200 1072 q 140 1039 179 1039 l 126 1039 q 100 1046 104 1039 q 106 1074 96 1053 l 164 1186 q 192 1219 178 1211 q 233 1228 206 1228 l 247 1228 q 280 1219 275 1228 q 269 1188 285 1211 m 86 178 l 86 928 q 94 964 86 956 q 131 972 103 972 l 146 972 q 181 964 172 972 q 190 928 190 956 l 190 196 q 261 90 190 90 l 268 90 q 303 84 296 90 q 311 54 311 78 l 311 44 q 303 8 311 18 q 272 -7 296 -3 q 247 -8 268 -8 q 128 39 171 -8 q 86 178 86 86 z "},"Ļ":{"ha":667,"x_min":106,"x_max":636,"o":"m 106 150 l 106 856 q 115 893 106 883 q 153 903 125 903 l 167 903 q 204 893 194 903 q 214 856 214 883 l 214 167 q 229 117 214 132 q 279 101 244 101 l 593 101 q 628 93 619 101 q 636 58 636 85 l 636 43 q 628 8 636 17 q 593 0 619 0 l 256 0 q 141 36 176 0 q 106 150 106 72 m 315 -356 q 288 -362 303 -369 q 281 -332 276 -356 q 299 -275 281 -329 q 319 -182 318 -221 q 333 -90 326 -107 q 369 -68 342 -71 q 406 -81 392 -67 q 424 -122 421 -96 q 411 -207 433 -144 q 315 -356 385 -286 z "},"ļ":{"ha":329,"x_min":86,"x_max":311,"o":"m 86 178 l 86 928 q 94 964 86 956 q 131 972 103 972 l 146 972 q 181 964 172 972 q 190 928 190 956 l 190 196 q 261 90 190 90 l 268 90 q 303 84 296 90 q 311 54 311 78 l 311 44 q 303 8 311 18 q 272 -7 296 -3 q 247 -8 268 -8 q 128 39 171 -8 q 86 178 86 86 m 135 -356 q 107 -362 122 -369 q 100 -332 96 -356 q 118 -275 100 -329 q 139 -182 138 -221 q 153 -90 146 -107 q 189 -68 161 -71 q 226 -81 211 -67 q 243 -122 240 -96 q 231 -207 253 -144 q 135 -356 204 -286 z "},"Ľ":{"ha":667,"x_min":106,"x_max":636,"o":"m 106 150 l 106 856 q 115 893 106 883 q 153 903 125 903 l 167 903 q 204 893 194 903 q 214 856 214 883 l 214 167 q 229 117 214 132 q 279 101 244 101 l 593 101 q 628 93 619 101 q 636 58 636 85 l 636 43 q 628 8 636 17 q 593 0 619 0 l 256 0 q 141 36 176 0 q 106 150 106 72 m 331 772 q 304 760 321 756 q 290 788 290 764 q 308 939 293 836 q 388 1082 333 1082 q 423 1066 410 1082 q 436 1024 436 1050 q 397 903 436 986 q 331 772 353 808 z "},"ľ":{"ha":329,"x_min":86,"x_max":394,"o":"m 86 178 l 86 928 q 94 964 86 956 q 131 972 103 972 l 146 972 q 181 964 172 972 q 190 928 190 956 l 190 196 q 261 90 190 90 l 268 90 q 303 84 296 90 q 311 54 311 78 l 311 44 q 303 8 311 18 q 272 -7 296 -3 q 247 -8 268 -8 q 128 39 171 -8 q 86 178 86 86 m 289 772 q 263 760 279 756 q 249 788 249 764 q 267 939 251 836 q 346 1082 292 1082 q 381 1066 368 1082 q 394 1024 394 1050 q 356 903 394 986 q 289 772 311 808 z "},"Ł":{"ha":678,"x_min":25,"x_max":650,"o":"m 119 150 l 119 443 l 76 428 q 33 449 43 414 l 29 461 q 26 488 22 481 q 49 503 29 496 l 119 528 l 119 856 q 129 893 119 883 q 167 903 139 903 l 181 903 q 218 893 208 903 q 228 856 228 883 l 228 567 l 349 611 q 393 592 378 624 l 397 579 q 400 553 404 561 q 376 538 396 544 l 228 483 l 228 167 q 243 117 228 132 q 293 101 258 101 l 607 101 q 642 93 633 101 q 650 58 650 85 l 650 43 q 642 8 650 17 q 607 0 633 0 l 269 0 q 155 36 190 0 q 119 150 119 72 z "},"ł":{"ha":357,"x_min":21,"x_max":338,"o":"m 113 178 l 113 461 l 72 446 q 29 465 40 432 l 25 478 q 22 505 18 497 q 44 519 25 513 l 113 544 l 113 928 q 122 964 113 956 q 157 972 131 972 l 172 972 q 208 964 200 972 q 217 928 217 956 l 217 582 l 279 606 q 324 586 308 618 l 328 574 q 331 547 335 554 q 308 532 328 539 l 217 499 l 217 196 q 288 90 217 90 l 294 90 q 330 84 322 90 q 338 54 338 78 l 338 44 q 330 8 338 18 q 299 -7 322 -3 q 274 -8 294 -8 q 155 39 197 -8 q 113 178 113 86 z "},"Ń":{"ha":883,"x_min":106,"x_max":779,"o":"m 106 47 l 106 760 q 139 878 106 842 q 243 915 172 915 q 335 888 304 915 q 388 788 367 860 l 592 131 q 612 91 601 101 q 639 81 622 81 q 672 133 672 81 l 672 856 q 682 893 672 883 q 719 903 692 903 l 732 903 q 769 893 760 903 q 779 856 779 883 l 779 143 q 747 24 779 61 q 646 -12 714 -12 q 550 17 583 -12 q 494 122 517 47 l 293 768 q 274 811 283 800 q 247 822 265 822 q 211 767 211 822 l 211 47 q 201 10 211 19 q 164 0 192 0 l 153 0 q 115 10 125 0 q 106 47 106 19 m 558 1118 l 489 1003 q 429 969 468 969 l 415 969 q 388 976 392 969 q 394 1004 383 983 l 453 1117 q 481 1150 467 1142 q 522 1158 494 1158 l 536 1158 q 569 1150 564 1158 q 558 1118 574 1142 z "},"ń":{"ha":743,"x_min":82,"x_max":661,"o":"m 186 439 l 186 44 q 178 8 186 17 q 142 0 169 0 l 126 0 q 91 8 100 0 q 82 44 82 17 l 82 439 q 372 699 82 699 q 591 634 521 699 q 661 439 661 569 l 661 44 q 653 8 661 17 q 617 0 644 0 l 600 0 q 564 8 572 0 q 556 44 556 17 l 556 439 q 515 563 556 526 q 372 600 474 600 q 228 563 271 600 q 186 439 186 525 m 464 911 l 394 796 q 335 763 374 763 l 321 763 q 293 769 297 763 q 300 797 289 776 l 358 910 q 386 943 372 935 q 428 951 400 951 l 442 951 q 474 943 469 951 q 464 911 479 935 z "},"Ņ":{"ha":885,"x_min":106,"x_max":779,"o":"m 106 47 l 106 760 q 139 878 106 842 q 243 915 172 915 q 335 888 304 915 q 388 788 367 860 l 592 131 q 612 91 601 101 q 639 81 622 81 q 672 133 672 81 l 672 856 q 682 893 672 883 q 719 903 692 903 l 732 903 q 769 893 760 903 q 779 856 779 883 l 779 143 q 747 24 779 61 q 646 -12 714 -12 q 550 17 583 -12 q 494 122 517 47 l 293 768 q 274 811 283 800 q 247 822 265 822 q 211 767 211 822 l 211 47 q 201 10 211 19 q 164 0 192 0 l 153 0 q 115 10 125 0 q 106 47 106 19 m 371 -356 q 343 -362 358 -369 q 336 -332 332 -356 q 354 -275 336 -329 q 375 -182 374 -221 q 389 -90 382 -107 q 425 -68 397 -71 q 462 -81 447 -67 q 479 -122 476 -96 q 467 -207 489 -144 q 371 -356 440 -286 z "},"ņ":{"ha":743,"x_min":82,"x_max":661,"o":"m 186 439 l 186 44 q 178 8 186 17 q 142 0 169 0 l 126 0 q 91 8 100 0 q 82 44 82 17 l 82 439 q 372 699 82 699 q 591 634 521 699 q 661 439 661 569 l 661 44 q 653 8 661 17 q 617 0 644 0 l 600 0 q 564 8 572 0 q 556 44 556 17 l 556 439 q 515 563 556 526 q 372 600 474 600 q 228 563 271 600 q 186 439 186 525 m 301 -356 q 274 -362 289 -369 q 267 -332 263 -356 q 285 -275 267 -329 q 306 -182 304 -221 q 319 -90 313 -107 q 356 -68 328 -71 q 392 -81 378 -67 q 410 -122 407 -96 q 397 -207 419 -144 q 301 -356 371 -286 z "},"Ň":{"ha":885,"x_min":106,"x_max":779,"o":"m 106 47 l 106 760 q 139 878 106 842 q 243 915 172 915 q 335 888 304 915 q 388 788 367 860 l 592 131 q 612 91 601 101 q 639 81 622 81 q 672 133 672 81 l 672 856 q 682 893 672 883 q 719 903 692 903 l 732 903 q 769 893 760 903 q 779 856 779 883 l 779 143 q 747 24 779 61 q 646 -12 714 -12 q 550 17 583 -12 q 494 122 517 47 l 293 768 q 274 811 283 800 q 247 822 265 822 q 211 767 211 822 l 211 47 q 201 10 211 19 q 164 0 192 0 l 153 0 q 115 10 125 0 q 106 47 106 19 m 349 1042 l 296 1124 q 288 1149 283 1142 q 314 1156 292 1156 l 326 1156 q 383 1124 364 1156 l 414 1069 q 481 1069 447 1011 l 513 1124 q 569 1156 532 1156 l 581 1156 q 606 1149 603 1156 q 599 1124 610 1142 l 546 1042 q 501 988 521 1001 q 447 974 482 974 q 394 988 414 974 q 349 1042 375 1001 z "},"ň":{"ha":743,"x_min":82,"x_max":661,"o":"m 186 439 l 186 44 q 178 8 186 17 q 142 0 169 0 l 126 0 q 91 8 100 0 q 82 44 82 17 l 82 439 q 372 699 82 699 q 591 634 521 699 q 661 439 661 569 l 661 44 q 653 8 661 17 q 617 0 644 0 l 600 0 q 564 8 572 0 q 556 44 556 17 l 556 439 q 515 563 556 526 q 372 600 474 600 q 228 563 271 600 q 186 439 186 525 m 263 835 l 210 917 q 201 942 197 936 q 228 949 206 949 l 240 949 q 297 917 278 949 l 328 863 q 394 863 361 804 l 426 917 q 483 949 446 949 l 494 949 q 520 942 517 949 q 513 917 524 935 l 460 835 q 415 781 435 794 q 361 767 396 767 q 308 781 328 767 q 263 835 289 794 z "},"Ō":{"ha":864,"x_min":78,"x_max":786,"o":"m 607 1040 l 607 1029 q 599 998 607 1006 q 568 990 592 990 l 290 990 q 259 998 267 990 q 251 1029 251 1006 l 251 1040 q 259 1072 251 1064 q 290 1079 267 1079 l 568 1079 q 599 1072 592 1079 q 607 1040 607 1064 m 678 349 l 678 551 q 628 751 678 692 q 432 814 578 814 q 236 751 286 814 q 186 551 186 692 l 186 349 q 236 149 186 211 q 432 88 286 88 q 628 149 578 88 q 678 349 678 211 m 432 -14 q 154 76 232 -14 q 78 349 78 165 l 78 551 q 156 824 78 733 q 432 914 233 914 q 708 824 631 914 q 786 551 786 733 l 786 349 q 708 76 786 167 q 432 -14 631 -14 z "},"ō":{"ha":744,"x_min":68,"x_max":676,"o":"m 544 846 l 544 835 q 537 803 544 811 q 506 796 529 796 l 228 796 q 197 803 204 796 q 189 835 189 811 l 189 846 q 197 877 189 869 q 228 885 204 885 l 506 885 q 537 877 529 885 q 544 846 544 869 m 572 278 l 572 407 q 528 556 572 511 q 374 600 483 600 q 217 556 263 600 q 172 407 172 511 l 172 278 q 217 129 172 174 q 374 85 263 85 q 528 129 483 85 q 572 278 572 174 m 374 -14 q 142 58 215 -14 q 68 278 68 131 l 68 407 q 374 699 68 699 q 603 626 531 699 q 676 407 676 554 l 676 278 q 374 -14 676 -14 z "},"Ő":{"ha":864,"x_min":78,"x_max":786,"o":"m 678 349 l 678 551 q 628 751 678 692 q 432 814 578 814 q 236 751 286 814 q 186 551 186 692 l 186 349 q 236 149 186 211 q 432 88 286 88 q 628 149 578 88 q 678 349 678 211 m 432 -14 q 154 76 232 -14 q 78 349 78 165 l 78 551 q 156 824 78 733 q 432 914 233 914 q 708 824 631 914 q 786 551 786 733 l 786 349 q 708 76 786 167 q 432 -14 631 -14 m 619 1118 l 550 1003 q 490 969 529 969 l 476 969 q 450 976 454 969 q 456 1004 446 983 l 514 1117 q 542 1150 528 1142 q 583 1158 556 1158 l 597 1158 q 630 1150 625 1158 q 619 1118 635 1142 m 438 1118 l 368 1003 q 308 969 347 969 l 294 969 q 267 976 271 969 q 274 1004 263 983 l 332 1117 q 360 1150 346 1142 q 401 1158 374 1158 l 415 1158 q 448 1150 443 1158 q 438 1118 453 1142 z "},"ő":{"ha":744,"x_min":68,"x_max":676,"o":"m 572 278 l 572 407 q 528 556 572 511 q 374 600 483 600 q 217 556 263 600 q 172 407 172 511 l 172 278 q 217 129 172 174 q 374 85 263 85 q 528 129 483 85 q 572 278 572 174 m 374 -14 q 142 58 215 -14 q 68 278 68 131 l 68 407 q 374 699 68 699 q 603 626 531 699 q 676 407 676 554 l 676 278 q 374 -14 676 -14 m 576 911 l 507 796 q 447 763 486 763 l 433 763 q 407 769 411 763 q 413 797 403 776 l 471 910 q 499 943 485 935 q 540 951 513 951 l 554 951 q 587 943 582 951 q 576 911 592 935 m 394 911 l 325 796 q 265 763 304 763 l 251 763 q 224 769 228 763 q 231 797 219 776 l 289 910 q 317 943 303 935 q 358 951 331 951 l 372 951 q 405 943 400 951 q 394 911 410 935 z "},"Œ":{"ha":1322,"x_min":78,"x_max":1261,"o":"m 432 -14 q 154 76 232 -14 q 78 349 78 165 l 78 551 q 156 824 78 733 q 432 914 233 914 q 700 797 643 914 q 840 903 714 903 l 1218 903 q 1253 894 1244 903 q 1261 860 1261 886 l 1261 844 q 1253 810 1261 818 q 1218 801 1244 801 l 850 801 q 800 786 815 801 q 785 736 785 771 l 785 521 l 1163 521 q 1197 513 1189 521 q 1206 478 1206 504 l 1206 463 q 1197 428 1206 436 q 1163 419 1189 419 l 785 419 l 785 167 q 800 117 785 132 q 850 101 815 101 l 1218 101 q 1253 93 1244 101 q 1261 58 1261 85 l 1261 43 q 1253 8 1261 17 q 1218 0 1244 0 l 840 0 q 700 104 717 0 q 432 -14 646 -14 m 678 349 l 678 551 q 628 751 678 692 q 432 814 578 814 q 236 751 286 814 q 186 551 186 692 l 186 349 q 236 149 186 211 q 432 88 286 88 q 628 149 578 88 q 678 349 678 211 z "},"œ":{"ha":1206,"x_min":68,"x_max":1147,"o":"m 374 -14 q 142 58 215 -14 q 68 278 68 131 l 68 407 q 374 699 68 699 q 624 557 575 699 q 864 699 672 699 q 1074 628 1001 699 q 1147 421 1147 558 q 1143 346 1147 379 q 1131 311 1140 319 q 1093 303 1121 303 l 674 303 l 674 261 q 724 126 674 167 q 890 85 775 85 q 1079 111 990 85 q 1115 113 1106 119 q 1124 81 1124 107 l 1124 68 q 1115 32 1124 43 q 1081 13 1106 21 q 890 -14 1003 -14 q 622 128 672 -14 q 374 -14 571 -14 m 572 278 l 572 407 q 528 556 572 511 q 374 600 483 600 q 217 556 263 600 q 172 407 172 511 l 172 278 q 217 129 172 174 q 374 85 263 85 q 528 129 483 85 q 572 278 572 174 m 674 436 l 674 390 l 1049 390 l 1049 436 q 861 606 1049 606 q 674 436 674 606 z "},"Ŕ":{"ha":838,"x_min":106,"x_max":778,"o":"m 763 633 q 715 453 763 517 q 560 374 667 390 l 765 46 q 778 10 783 19 q 740 0 772 0 l 725 0 q 676 9 693 0 q 642 46 660 18 l 443 365 l 214 365 l 214 47 q 204 10 214 19 q 167 0 194 0 l 153 0 q 115 10 125 0 q 106 47 106 19 l 106 753 q 141 867 106 831 q 256 903 176 903 l 469 903 q 694 838 625 903 q 763 633 763 772 m 469 801 l 279 801 q 229 786 244 801 q 214 736 214 771 l 214 467 l 469 467 q 613 505 572 467 q 654 633 654 543 q 614 764 654 726 q 469 801 574 801 m 525 1118 l 456 1003 q 396 969 435 969 l 382 969 q 356 976 360 969 q 361 1004 351 983 l 419 1117 q 447 1150 433 1142 q 489 1158 461 1158 l 503 1158 q 535 1150 531 1158 q 525 1118 540 1142 z "},"ŕ":{"ha":429,"x_min":82,"x_max":406,"o":"m 186 453 l 186 44 q 178 8 186 17 q 142 0 169 0 l 126 0 q 91 8 100 0 q 82 44 82 17 l 82 458 q 319 699 82 699 q 364 696 331 699 q 398 683 390 693 q 406 647 406 674 l 406 633 q 397 600 406 607 q 363 597 389 593 q 344 598 354 597 q 328 599 333 599 q 319 600 322 600 q 216 566 246 600 q 186 453 186 532 m 347 911 l 278 796 q 218 763 257 763 l 204 763 q 178 769 182 763 q 183 797 174 776 l 242 910 q 269 943 256 935 q 311 951 283 951 l 325 951 q 358 943 353 951 q 347 911 363 935 z "},"Ŗ":{"ha":838,"x_min":106,"x_max":778,"o":"m 763 633 q 715 453 763 517 q 560 374 667 390 l 765 46 q 778 10 783 19 q 740 0 772 0 l 725 0 q 676 9 693 0 q 642 46 660 18 l 443 365 l 214 365 l 214 47 q 204 10 214 19 q 167 0 194 0 l 153 0 q 115 10 125 0 q 106 47 106 19 l 106 753 q 141 867 106 831 q 256 903 176 903 l 469 903 q 694 838 625 903 q 763 633 763 772 m 469 801 l 279 801 q 229 786 244 801 q 214 736 214 771 l 214 467 l 469 467 q 613 505 572 467 q 654 633 654 543 q 614 764 654 726 q 469 801 574 801 m 371 -356 q 343 -362 358 -369 q 336 -332 332 -356 q 354 -275 336 -329 q 375 -182 374 -221 q 389 -90 382 -107 q 425 -68 397 -71 q 462 -81 447 -67 q 479 -122 476 -96 q 467 -207 489 -144 q 371 -356 440 -286 z "},"ŗ":{"ha":429,"x_min":44,"x_max":406,"o":"m 186 453 l 186 44 q 178 8 186 17 q 142 0 169 0 l 126 0 q 91 8 100 0 q 82 44 82 17 l 82 458 q 319 699 82 699 q 364 696 331 699 q 398 683 390 693 q 406 647 406 674 l 406 633 q 397 600 406 607 q 363 597 389 593 q 344 598 354 597 q 328 599 333 599 q 319 600 322 600 q 216 566 246 600 q 186 453 186 532 m 79 -356 q 51 -362 67 -369 q 44 -332 40 -356 q 63 -275 44 -329 q 83 -182 82 -221 q 97 -90 90 -107 q 133 -68 106 -71 q 170 -81 156 -67 q 188 -122 185 -96 q 175 -207 197 -144 q 79 -356 149 -286 z "},"Ř":{"ha":838,"x_min":106,"x_max":778,"o":"m 763 633 q 715 453 763 517 q 560 374 667 390 l 765 46 q 778 10 783 19 q 740 0 772 0 l 725 0 q 676 9 693 0 q 642 46 660 18 l 443 365 l 214 365 l 214 47 q 204 10 214 19 q 167 0 194 0 l 153 0 q 115 10 125 0 q 106 47 106 19 l 106 753 q 141 867 106 831 q 256 903 176 903 l 469 903 q 694 838 625 903 q 763 633 763 772 m 469 801 l 279 801 q 229 786 244 801 q 214 736 214 771 l 214 467 l 469 467 q 613 505 572 467 q 654 633 654 543 q 614 764 654 726 q 469 801 574 801 m 314 1042 l 261 1124 q 253 1149 249 1142 q 279 1156 257 1156 l 292 1156 q 349 1124 329 1156 l 379 1069 q 446 1069 413 1011 l 478 1124 q 535 1156 497 1156 l 546 1156 q 572 1149 568 1156 q 564 1124 575 1142 l 511 1042 q 467 988 486 1001 q 413 974 447 974 q 360 988 379 974 q 314 1042 340 1001 z "},"ř":{"ha":429,"x_min":82,"x_max":410,"o":"m 186 453 l 186 44 q 178 8 186 17 q 142 0 169 0 l 126 0 q 91 8 100 0 q 82 44 82 17 l 82 458 q 319 699 82 699 q 364 696 331 699 q 398 683 390 693 q 406 647 406 674 l 406 633 q 397 600 406 607 q 363 597 389 593 q 344 598 354 597 q 328 599 333 599 q 319 600 322 600 q 216 566 246 600 q 186 453 186 532 m 151 835 l 99 917 q 90 942 86 936 q 117 949 94 949 l 129 949 q 186 917 167 949 l 217 863 q 283 863 250 804 l 315 917 q 372 949 335 949 l 383 949 q 409 942 406 949 q 401 917 413 935 l 349 835 q 304 781 324 794 q 250 767 285 767 q 197 781 217 767 q 151 835 178 794 z "},"Ś":{"ha":719,"x_min":68,"x_max":657,"o":"m 68 71 l 68 90 q 110 125 68 139 q 340 89 211 89 q 499 116 450 89 q 547 207 547 143 q 522 286 547 256 q 419 363 496 317 l 214 489 q 76 710 76 572 q 147 866 76 817 q 367 915 218 915 q 575 882 489 915 q 609 863 601 872 q 617 831 617 854 l 617 813 q 575 779 617 764 q 367 813 486 813 q 229 788 271 813 q 188 706 188 763 q 208 638 188 664 q 285 574 228 611 l 494 443 q 620 336 583 388 q 657 208 657 285 q 338 -14 657 -14 q 113 19 204 -14 q 75 42 79 33 q 68 71 71 50 m 465 1118 l 396 1003 q 336 969 375 969 l 322 969 q 296 976 300 969 q 301 1004 292 983 l 360 1117 q 388 1150 374 1142 q 429 1158 401 1158 l 443 1158 q 476 1150 471 1158 q 465 1118 481 1142 z "},"ś":{"ha":636,"x_min":65,"x_max":568,"o":"m 65 64 l 65 75 q 75 109 65 101 q 110 111 85 117 q 314 83 213 83 q 431 101 397 83 q 465 163 465 118 q 446 217 465 196 q 375 263 426 238 l 206 343 q 106 417 135 378 q 76 524 76 456 q 136 656 76 614 q 322 699 196 699 q 496 672 422 699 q 529 654 521 664 q 538 621 538 644 l 538 608 q 527 575 538 582 q 493 575 517 568 q 319 601 415 601 q 211 583 243 601 q 179 524 179 565 q 253 432 179 465 l 429 351 q 537 276 506 317 q 568 165 568 235 q 504 29 568 72 q 306 -14 440 -14 q 110 13 203 -14 q 74 31 83 19 q 65 64 65 42 m 406 911 l 336 796 q 276 763 315 763 l 263 763 q 236 769 240 763 q 242 797 232 776 l 300 910 q 328 943 314 935 q 369 951 342 951 l 383 951 q 416 943 411 951 q 406 911 421 935 z "},"Ş":{"ha":719,"x_min":68,"x_max":657,"o":"m 274 -82 l 292 -12 q 113 19 192 -8 q 75 42 79 33 q 68 71 71 50 l 68 90 q 110 125 68 139 q 340 89 211 89 q 499 116 450 89 q 547 207 547 143 q 522 286 547 256 q 419 363 496 317 l 214 489 q 76 710 76 572 q 147 866 76 817 q 367 915 218 915 q 575 882 489 915 q 609 863 601 872 q 617 831 617 854 l 617 813 q 575 779 617 764 q 367 813 486 813 q 229 788 271 813 q 188 706 188 763 q 208 638 188 664 q 285 574 228 611 l 494 443 q 620 336 583 388 q 657 208 657 285 q 354 -14 657 -7 l 343 -58 q 468 -151 468 -44 q 435 -240 468 -212 q 331 -267 401 -267 q 275 -260 306 -267 q 255 -251 260 -257 q 250 -229 250 -244 l 250 -221 q 276 -199 250 -193 q 321 -203 297 -203 q 374 -192 358 -203 q 389 -151 389 -181 q 375 -115 389 -125 q 326 -104 361 -104 q 297 -106 304 -104 q 274 -104 278 -108 q 274 -82 269 -100 z "},"ş":{"ha":636,"x_min":65,"x_max":568,"o":"m 232 -82 l 250 -11 q 110 13 186 -7 q 74 31 83 19 q 65 64 65 42 l 65 75 q 75 109 65 101 q 110 111 85 117 q 314 83 213 83 q 431 101 397 83 q 465 163 465 118 q 446 217 465 196 q 375 263 426 238 l 206 343 q 106 417 135 378 q 76 524 76 456 q 136 656 76 614 q 322 699 196 699 q 496 672 422 699 q 529 654 521 664 q 538 621 538 644 l 538 608 q 527 575 538 582 q 493 575 517 568 q 319 601 415 601 q 211 583 243 601 q 179 524 179 565 q 253 432 179 465 l 429 351 q 537 276 506 317 q 568 165 568 235 q 506 31 568 74 q 313 -14 443 -12 l 301 -58 q 426 -151 426 -44 q 393 -240 426 -212 q 289 -267 360 -267 q 233 -260 264 -267 q 213 -251 218 -257 q 208 -229 208 -244 l 208 -221 q 235 -199 208 -193 q 279 -203 256 -203 q 332 -192 317 -203 q 347 -151 347 -181 q 333 -115 347 -125 q 285 -104 319 -104 q 256 -106 263 -104 q 232 -104 236 -108 q 232 -82 228 -100 z "},"Š":{"ha":719,"x_min":68,"x_max":657,"o":"m 68 71 l 68 90 q 110 125 68 139 q 340 89 211 89 q 499 116 450 89 q 547 207 547 143 q 522 286 547 256 q 419 363 496 317 l 214 489 q 76 710 76 572 q 147 866 76 817 q 367 915 218 915 q 575 882 489 915 q 609 863 601 872 q 617 831 617 854 l 617 813 q 575 779 617 764 q 367 813 486 813 q 229 788 271 813 q 188 706 188 763 q 208 638 188 664 q 285 574 228 611 l 494 443 q 620 336 583 388 q 657 208 657 285 q 338 -14 657 -14 q 113 19 204 -14 q 75 42 79 33 q 68 71 71 50 m 264 1042 l 211 1124 q 203 1149 199 1142 q 229 1156 207 1156 l 242 1156 q 299 1124 279 1156 l 329 1069 q 396 1069 363 1011 l 428 1124 q 485 1156 447 1156 l 496 1156 q 522 1149 518 1156 q 514 1124 525 1142 l 461 1042 q 417 988 436 1001 q 363 974 397 974 q 310 988 329 974 q 264 1042 290 1001 z "},"š":{"ha":636,"x_min":65,"x_max":568,"o":"m 65 64 l 65 75 q 75 109 65 101 q 110 111 85 117 q 314 83 213 83 q 431 101 397 83 q 465 163 465 118 q 446 217 465 196 q 375 263 426 238 l 206 343 q 106 417 135 378 q 76 524 76 456 q 136 656 76 614 q 322 699 196 699 q 496 672 422 699 q 529 654 521 664 q 538 621 538 644 l 538 608 q 527 575 538 582 q 493 575 517 568 q 319 601 415 601 q 211 583 243 601 q 179 524 179 565 q 253 432 179 465 l 429 351 q 537 276 506 317 q 568 165 568 235 q 504 29 568 72 q 306 -14 440 -14 q 110 13 203 -14 q 74 31 83 19 q 65 64 65 42 m 221 835 l 168 917 q 160 942 156 936 q 186 949 164 949 l 199 949 q 256 917 236 949 l 286 863 q 353 863 319 804 l 385 917 q 442 949 404 949 l 453 949 q 478 942 475 949 q 471 917 482 936 l 418 835 q 374 781 393 794 q 319 767 354 767 q 267 781 286 767 q 221 835 247 794 z "},"Ţ":{"ha":769,"x_min":40,"x_max":729,"o":"m 40 844 l 40 860 q 49 894 40 886 q 83 903 57 903 l 686 903 q 721 894 713 903 q 729 860 729 886 l 729 844 q 721 810 729 818 q 686 801 713 801 l 439 801 l 439 47 q 429 10 439 19 q 392 0 419 0 l 378 0 q 340 10 350 0 q 331 47 331 19 l 331 801 l 83 801 q 49 810 57 801 q 40 844 40 818 m 329 -356 q 301 -362 317 -369 q 294 -332 290 -356 q 313 -275 294 -329 q 333 -182 332 -221 q 347 -90 340 -107 q 383 -68 356 -71 q 420 -81 406 -67 q 438 -122 435 -96 q 425 -207 447 -144 q 329 -356 399 -286 z "},"ţ":{"ha":558,"x_min":19,"x_max":533,"o":"m 19 624 l 19 631 q 27 663 19 654 q 57 674 35 671 l 136 685 l 151 828 q 161 858 153 850 q 193 865 169 865 l 203 865 q 233 858 225 865 q 240 828 240 850 l 240 685 l 465 685 q 500 676 492 685 q 508 642 508 668 l 508 629 q 500 594 508 603 q 465 586 492 586 l 240 586 l 240 233 q 272 122 240 157 q 368 86 303 86 q 492 100 446 86 q 524 98 515 106 q 533 64 533 90 l 533 51 q 524 19 533 31 q 490 1 515 8 q 369 -12 439 -12 q 136 233 136 -12 l 136 586 l 57 586 q 26 593 33 586 q 19 624 19 600 m 274 -356 q 246 -362 261 -369 q 239 -332 235 -356 q 257 -275 239 -329 q 278 -182 276 -221 q 292 -90 285 -107 q 328 -68 300 -71 q 365 -81 350 -67 q 382 -122 379 -96 q 369 -207 392 -144 q 274 -356 343 -286 z "},"Ť":{"ha":769,"x_min":40,"x_max":729,"o":"m 40 844 l 40 860 q 49 894 40 886 q 83 903 57 903 l 686 903 q 721 894 713 903 q 729 860 729 886 l 729 844 q 721 810 729 818 q 686 801 713 801 l 439 801 l 439 47 q 429 10 439 19 q 392 0 419 0 l 378 0 q 340 10 350 0 q 331 47 331 19 l 331 801 l 83 801 q 49 810 57 801 q 40 844 40 818 m 289 1042 l 236 1124 q 228 1149 224 1142 q 254 1156 232 1156 l 267 1156 q 324 1124 304 1156 l 354 1069 q 421 1069 388 1011 l 453 1124 q 510 1156 472 1156 l 521 1156 q 547 1149 543 1156 q 539 1124 550 1142 l 486 1042 q 442 988 461 1001 q 388 974 422 974 q 335 988 354 974 q 289 1042 315 1001 z "},"ť":{"ha":558,"x_min":19,"x_max":533,"o":"m 19 624 l 19 631 q 27 663 19 654 q 57 674 35 671 l 136 685 l 151 828 q 161 858 153 850 q 193 865 169 865 l 203 865 q 233 858 225 865 q 240 828 240 850 l 240 685 l 465 685 q 500 676 492 685 q 508 642 508 668 l 508 629 q 500 594 508 603 q 465 586 492 586 l 240 586 l 240 233 q 272 122 240 157 q 368 86 303 86 q 492 100 446 86 q 524 98 515 106 q 533 64 533 90 l 533 51 q 524 19 533 31 q 490 1 515 8 q 369 -12 439 -12 q 136 233 136 -12 l 136 586 l 57 586 q 26 593 33 586 q 19 624 19 600 m 386 772 q 360 760 376 756 q 346 788 346 764 q 364 939 349 836 q 443 1082 389 1082 q 478 1066 465 1082 q 492 1024 492 1050 q 453 903 492 986 q 386 772 408 808 z "},"Ū":{"ha":864,"x_min":92,"x_max":772,"o":"m 607 1040 l 607 1029 q 599 998 607 1006 q 568 990 592 990 l 290 990 q 259 998 267 990 q 251 1029 251 1006 l 251 1040 q 259 1072 251 1064 q 290 1079 267 1079 l 568 1079 q 599 1072 592 1079 q 607 1040 607 1064 m 92 288 l 92 856 q 101 893 92 883 q 139 903 111 903 l 153 903 q 190 893 181 903 q 200 856 200 883 l 200 288 q 256 134 200 181 q 432 88 311 88 q 608 134 553 88 q 664 288 664 181 l 664 856 q 674 893 664 883 q 711 903 683 903 l 725 903 q 763 893 753 903 q 772 856 772 883 l 772 288 q 432 -14 772 -14 q 92 288 92 -14 z "},"ū":{"ha":726,"x_min":74,"x_max":653,"o":"m 540 846 l 540 835 q 533 803 540 811 q 501 796 525 796 l 224 796 q 192 803 200 796 q 185 835 185 811 l 185 846 q 192 877 185 869 q 224 885 200 885 l 501 885 q 533 877 525 885 q 540 846 540 869 m 178 640 l 178 246 q 220 122 178 160 q 364 85 263 85 q 508 122 467 85 q 549 246 549 158 l 549 640 q 558 676 549 667 q 593 685 567 685 l 608 685 q 644 676 636 685 q 653 640 653 667 l 653 246 q 583 51 653 115 q 364 -14 513 -14 q 74 246 74 -14 l 74 640 q 83 676 74 667 q 118 685 92 685 l 133 685 q 169 676 161 685 q 178 640 178 667 z "},"Ů":{"ha":864,"x_min":92,"x_max":772,"o":"m 92 288 l 92 856 q 101 893 92 883 q 139 903 111 903 l 153 903 q 190 893 181 903 q 200 856 200 883 l 200 288 q 256 134 200 181 q 432 88 311 88 q 608 134 553 88 q 664 288 664 181 l 664 856 q 674 893 664 883 q 711 903 683 903 l 725 903 q 763 893 753 903 q 772 856 772 883 l 772 288 q 432 -14 772 -14 q 92 288 92 -14 m 428 944 q 342 978 376 944 q 308 1064 308 1011 q 342 1152 308 1119 q 428 1185 375 1185 q 516 1151 482 1185 q 550 1064 550 1118 q 516 977 550 1010 q 428 944 482 944 m 428 1000 q 475 1019 457 1000 q 493 1064 493 1038 q 428 1129 493 1129 q 382 1111 399 1129 q 365 1064 365 1093 q 383 1019 365 1038 q 428 1000 400 1000 z "},"ů":{"ha":726,"x_min":74,"x_max":653,"o":"m 178 640 l 178 246 q 220 122 178 160 q 364 85 263 85 q 508 122 467 85 q 549 246 549 158 l 549 640 q 558 676 549 667 q 593 685 567 685 l 608 685 q 644 676 636 685 q 653 640 653 667 l 653 246 q 583 51 653 115 q 364 -14 513 -14 q 74 246 74 -14 l 74 640 q 83 676 74 667 q 118 685 92 685 l 133 685 q 169 676 161 685 q 178 640 178 667 m 357 738 q 272 771 306 738 q 238 857 238 804 q 269 944 238 910 q 357 978 303 978 q 444 944 411 978 q 479 857 479 911 q 445 770 479 803 q 357 738 411 738 m 357 793 q 404 812 386 793 q 422 857 422 831 q 357 922 422 922 q 311 904 328 922 q 294 857 294 886 q 312 812 294 831 q 357 793 329 793 z "},"Ű":{"ha":864,"x_min":92,"x_max":772,"o":"m 92 288 l 92 856 q 101 893 92 883 q 139 903 111 903 l 153 903 q 190 893 181 903 q 200 856 200 883 l 200 288 q 256 134 200 181 q 432 88 311 88 q 608 134 553 88 q 664 288 664 181 l 664 856 q 674 893 664 883 q 711 903 683 903 l 725 903 q 763 893 753 903 q 772 856 772 883 l 772 288 q 432 -14 772 -14 q 92 288 92 -14 m 628 1118 l 558 1003 q 499 969 538 969 l 485 969 q 458 976 463 969 q 464 1004 454 983 l 522 1117 q 550 1150 536 1142 q 592 1158 564 1158 l 606 1158 q 638 1150 633 1158 q 628 1118 643 1142 m 446 1118 l 376 1003 q 317 969 356 969 l 303 969 q 275 976 279 969 q 282 1004 271 983 l 340 1117 q 368 1150 354 1142 q 410 1158 382 1158 l 424 1158 q 456 1150 451 1158 q 446 1118 461 1142 z "},"ű":{"ha":726,"x_min":74,"x_max":653,"o":"m 178 640 l 178 246 q 220 122 178 160 q 364 85 263 85 q 508 122 467 85 q 549 246 549 158 l 549 640 q 558 676 549 667 q 593 685 567 685 l 608 685 q 644 676 636 685 q 653 640 653 667 l 653 246 q 583 51 653 115 q 364 -14 513 -14 q 74 246 74 -14 l 74 640 q 83 676 74 667 q 118 685 92 685 l 133 685 q 169 676 161 685 q 178 640 178 667 m 563 911 l 493 796 q 433 763 472 763 l 419 763 q 393 769 397 763 q 399 797 389 776 l 457 910 q 485 943 471 935 q 526 951 499 951 l 540 951 q 573 943 568 951 q 563 911 578 935 m 381 911 l 311 796 q 251 763 290 763 l 238 763 q 210 769 214 763 q 217 797 206 776 l 275 910 q 303 943 289 935 q 344 951 317 951 l 358 951 q 391 943 386 951 q 381 911 396 935 z "},"Ų":{"ha":864,"x_min":92,"x_max":772,"o":"m 92 288 l 92 856 q 101 893 92 883 q 139 903 111 903 l 153 903 q 190 893 181 903 q 200 856 200 883 l 200 288 q 256 134 200 181 q 432 88 311 88 q 608 134 553 88 q 664 288 664 181 l 664 856 q 674 893 664 883 q 711 903 683 903 l 725 903 q 763 893 753 903 q 772 856 772 883 l 772 288 q 544 -4 772 40 q 447 -78 464 -57 q 425 -140 425 -104 q 438 -187 425 -174 q 482 -200 451 -200 q 514 -197 483 -200 q 540 -199 533 -194 q 546 -222 546 -204 l 546 -232 q 539 -258 546 -250 q 513 -268 532 -265 q 464 -272 489 -272 q 369 -244 399 -272 q 339 -153 339 -217 q 361 -73 339 -103 q 442 -14 383 -43 l 432 -14 q 92 288 92 -14 z "},"ų":{"ha":726,"x_min":74,"x_max":653,"o":"m 178 640 l 178 246 q 220 122 178 160 q 364 85 263 85 q 508 122 467 85 q 549 246 549 158 l 549 640 q 558 676 549 667 q 593 685 567 685 l 608 685 q 644 676 636 685 q 653 640 653 667 l 653 246 q 483 0 653 44 q 382 -78 399 -57 q 360 -140 360 -104 q 373 -187 360 -174 q 417 -200 386 -200 q 449 -197 418 -200 q 474 -199 468 -194 q 481 -222 481 -204 l 481 -232 q 474 -258 481 -250 q 447 -268 467 -265 q 399 -272 425 -272 q 303 -244 333 -272 q 274 -153 274 -217 q 296 -73 274 -103 q 376 -14 318 -43 l 364 -14 q 74 246 74 -14 l 74 640 q 83 676 74 667 q 118 685 92 685 l 133 685 q 169 676 161 685 q 178 640 178 667 z "},"Ÿ":{"ha":842,"x_min":42,"x_max":811,"o":"m 372 49 l 372 372 q 304 408 328 383 q 236 515 283 429 l 51 857 q 42 893 36 883 q 79 903 49 903 l 94 903 q 142 893 126 903 q 172 856 158 883 l 328 558 q 376 481 358 497 q 426 464 394 464 q 476 482 458 464 q 525 558 496 501 l 681 856 q 710 893 694 883 q 758 903 726 903 l 774 903 q 810 893 804 903 q 801 857 817 883 l 617 515 q 549 408 569 429 q 482 372 525 382 l 482 49 q 472 10 482 19 q 433 0 463 0 l 421 0 q 382 10 392 0 q 372 49 372 19 m 251 1063 q 269 1108 251 1089 q 314 1126 288 1126 q 358 1108 340 1126 q 376 1063 376 1090 q 358 1019 376 1038 q 314 1001 340 1001 q 269 1019 288 1001 q 251 1063 251 1038 m 476 1063 q 495 1108 476 1089 q 540 1126 514 1126 q 583 1108 565 1126 q 601 1063 601 1089 q 583 1019 601 1038 q 540 1001 565 1001 q 495 1019 514 1001 q 476 1063 476 1038 z "},"Ź":{"ha":758,"x_min":44,"x_max":714,"o":"m 75 844 l 75 860 q 83 894 75 886 q 118 903 92 903 l 532 903 q 707 760 707 903 q 688 672 707 710 q 615 588 668 633 l 197 222 q 149 142 149 178 q 207 101 149 101 l 671 101 q 706 93 697 101 q 714 58 714 85 l 714 43 q 706 8 714 17 q 671 0 697 0 l 210 0 q 44 125 44 0 q 65 218 44 179 q 139 306 85 257 l 558 674 q 601 747 601 711 q 528 801 601 801 l 118 801 q 83 810 92 801 q 75 844 75 818 m 461 1118 l 392 1003 q 332 969 371 969 l 318 969 q 290 976 294 969 q 297 1004 286 983 l 356 1117 q 383 1150 369 1142 q 425 1158 397 1158 l 439 1158 q 472 1150 467 1158 q 461 1118 476 1142 z "},"ź":{"ha":658,"x_min":54,"x_max":604,"o":"m 88 631 l 88 643 q 96 676 88 668 q 129 685 104 685 l 456 685 q 570 656 536 685 q 604 557 604 626 q 585 481 604 513 q 514 414 565 450 l 183 182 q 150 133 150 158 q 208 96 150 96 l 563 96 q 596 88 588 96 q 604 54 604 79 l 604 42 q 596 8 604 17 q 563 0 588 0 l 200 0 q 54 125 54 0 q 140 268 54 207 l 468 496 q 508 553 508 524 q 450 589 508 589 l 129 589 q 96 597 104 589 q 88 631 88 606 m 442 911 l 372 796 q 313 763 351 763 l 299 763 q 272 769 276 763 q 278 797 268 776 l 336 910 q 364 943 350 935 q 406 951 378 951 l 419 951 q 452 943 447 951 q 442 911 457 935 z "},"Ż":{"ha":758,"x_min":44,"x_max":714,"o":"m 75 844 l 75 860 q 83 894 75 886 q 118 903 92 903 l 532 903 q 707 760 707 903 q 688 672 707 710 q 615 588 668 633 l 197 222 q 149 142 149 178 q 207 101 149 101 l 671 101 q 706 93 697 101 q 714 58 714 85 l 714 43 q 706 8 714 17 q 671 0 697 0 l 210 0 q 44 125 44 0 q 65 218 44 179 q 139 306 85 257 l 558 674 q 601 747 601 711 q 528 801 601 801 l 118 801 q 83 810 92 801 q 75 844 75 818 m 447 1014 q 438 1004 447 1014 q 399 994 428 994 q 350 1014 369 994 q 331 1063 331 1033 q 350 1111 331 1092 q 399 1131 369 1131 q 447 1111 428 1131 q 467 1063 467 1092 q 447 1014 467 1033 z "},"ż":{"ha":658,"x_min":54,"x_max":604,"o":"m 88 631 l 88 643 q 96 676 88 668 q 129 685 104 685 l 456 685 q 570 656 536 685 q 604 557 604 626 q 585 481 604 513 q 514 414 565 450 l 183 182 q 150 133 150 158 q 208 96 150 96 l 563 96 q 596 88 588 96 q 604 54 604 79 l 604 42 q 596 8 604 17 q 563 0 588 0 l 200 0 q 54 125 54 0 q 140 268 54 207 l 468 496 q 508 553 508 524 q 450 589 508 589 l 129 589 q 96 597 104 589 q 88 631 88 606 m 400 808 q 390 799 400 808 q 351 789 381 789 q 303 808 322 789 q 283 857 283 828 q 303 906 283 886 q 351 925 322 925 q 400 906 381 925 q 419 857 419 886 q 400 808 419 828 z "},"Ž":{"ha":758,"x_min":44,"x_max":714,"o":"m 75 844 l 75 860 q 83 894 75 886 q 118 903 92 903 l 532 903 q 707 760 707 903 q 688 672 707 710 q 615 588 668 633 l 197 222 q 149 142 149 178 q 207 101 149 101 l 671 101 q 706 93 697 101 q 714 58 714 85 l 714 43 q 706 8 714 17 q 671 0 697 0 l 210 0 q 44 125 44 0 q 65 218 44 179 q 139 306 85 257 l 558 674 q 601 747 601 711 q 528 801 601 801 l 118 801 q 83 810 92 801 q 75 844 75 818 m 299 1042 l 246 1124 q 238 1149 233 1142 q 264 1156 242 1156 l 276 1156 q 333 1124 314 1156 l 364 1069 q 431 1069 397 1011 l 463 1124 q 519 1156 482 1156 l 531 1156 q 556 1149 553 1156 q 549 1124 560 1142 l 496 1042 q 451 988 471 1001 q 397 974 432 974 q 344 988 364 974 q 299 1042 325 1001 z "},"ž":{"ha":658,"x_min":54,"x_max":604,"o":"m 88 631 l 88 643 q 96 676 88 668 q 129 685 104 685 l 456 685 q 570 656 536 685 q 604 557 604 626 q 585 481 604 513 q 514 414 565 450 l 183 182 q 150 133 150 158 q 208 96 150 96 l 563 96 q 596 88 588 96 q 604 54 604 79 l 604 42 q 596 8 604 17 q 563 0 588 0 l 200 0 q 54 125 54 0 q 140 268 54 207 l 468 496 q 508 553 508 524 q 450 589 508 589 l 129 589 q 96 597 104 589 q 88 631 88 606 m 235 835 l 182 917 q 174 942 169 936 q 200 949 178 949 l 213 949 q 269 917 250 949 l 300 863 q 367 863 333 804 l 399 917 q 456 949 418 949 l 467 949 q 492 942 489 949 q 485 917 496 936 l 432 835 q 388 781 407 794 q 333 767 368 767 q 281 781 300 767 q 235 835 261 794 z "},"ƒ":{"ha":619,"x_min":1,"x_max":621,"o":"m 110 432 l 110 444 q 117 471 110 464 q 143 478 124 478 l 274 478 l 301 656 q 371 857 324 797 q 536 918 419 918 q 544 917 539 918 q 559 916 549 917 q 578 915 569 915 q 613 903 604 913 q 621 867 621 893 l 621 857 q 613 823 621 831 q 583 818 606 815 q 551 819 578 819 q 453 789 482 819 q 408 653 422 758 l 382 478 l 553 478 q 579 471 572 478 q 586 444 586 464 l 586 432 q 579 406 586 413 q 553 399 572 399 l 369 399 l 322 100 q 290 -62 308 6 q 249 -168 276 -119 q 178 -235 221 -215 q 63 -254 135 -254 q 44 -253 47 -254 q 10 -239 18 -249 q 1 -203 1 -229 l 1 -192 q 8 -161 1 -167 q 44 -156 15 -156 l 54 -156 q 161 -104 135 -156 q 215 106 190 -54 l 261 399 l 143 399 q 117 406 124 399 q 110 432 110 413 z "},"Ơ":{"ha":993,"x_min":78,"x_max":993,"o":"m 432 -14 q 154 76 232 -14 q 78 349 78 165 l 78 551 q 156 824 78 733 q 432 914 233 914 q 708 824 631 914 q 758 735 740 786 q 883 822 883 744 q 875 882 883 856 q 878 908 869 900 q 914 917 886 917 l 932 917 q 966 910 956 917 q 983 883 976 903 q 993 804 993 853 q 937 688 993 735 q 782 631 881 640 q 786 551 786 593 l 786 349 q 708 76 786 167 q 432 -14 631 -14 m 678 349 l 678 551 q 628 751 678 692 q 432 814 578 814 q 236 751 286 814 q 186 551 186 692 l 186 349 q 236 149 186 211 q 432 88 286 88 q 628 149 578 88 q 678 349 678 211 z "},"ơ":{"ha":882,"x_min":68,"x_max":882,"o":"m 374 -14 q 142 58 215 -14 q 68 278 68 131 l 68 407 q 374 699 68 699 q 664 514 621 699 q 772 600 772 528 q 764 660 772 633 q 767 686 758 678 q 803 694 775 694 l 821 694 q 855 688 844 694 q 872 661 865 681 q 882 582 882 631 q 828 467 882 514 q 676 408 774 421 l 676 407 l 676 278 q 374 -14 676 -14 m 572 278 l 572 407 q 528 556 572 511 q 374 600 483 600 q 217 556 263 600 q 172 407 172 511 l 172 278 q 217 129 172 174 q 374 85 263 85 q 528 129 483 85 q 572 278 572 174 z "},"Ư":{"ha":1021,"x_min":92,"x_max":1021,"o":"m 92 288 l 92 856 q 101 893 92 883 q 139 903 111 903 l 153 903 q 190 893 181 903 q 200 856 200 883 l 200 288 q 256 134 200 181 q 432 88 311 88 q 608 134 553 88 q 664 288 664 181 l 664 856 q 674 893 664 883 q 711 903 683 903 l 725 903 q 763 893 753 903 q 772 856 772 883 l 772 719 q 911 808 911 725 q 903 868 911 842 q 906 894 897 886 q 942 903 914 903 l 960 903 q 994 896 983 903 q 1011 869 1004 889 q 1021 790 1021 839 q 954 666 1021 715 q 772 614 888 617 l 772 288 q 432 -14 772 -14 q 92 288 92 -14 z "},"ư":{"ha":882,"x_min":74,"x_max":882,"o":"m 178 640 l 178 246 q 220 122 178 160 q 364 85 263 85 q 508 122 467 85 q 549 246 549 158 l 549 640 q 558 676 549 667 q 593 685 567 685 l 608 685 q 644 676 636 685 q 653 640 653 667 l 653 499 q 740 526 707 503 q 772 586 772 549 q 764 646 772 619 q 767 672 758 664 q 803 681 775 681 l 821 681 q 855 674 844 681 q 872 647 865 667 q 882 568 882 617 q 821 448 882 496 q 653 393 760 400 l 653 246 q 583 51 653 115 q 364 -14 513 -14 q 74 246 74 -14 l 74 640 q 83 676 74 667 q 118 685 92 685 l 133 685 q 169 676 161 685 q 178 640 178 667 z "},"Ș":{"ha":719,"x_min":68,"x_max":657,"o":"m 68 71 l 68 90 q 110 125 68 139 q 340 89 211 89 q 499 116 450 89 q 547 207 547 143 q 522 286 547 256 q 419 363 496 317 l 214 489 q 76 710 76 572 q 147 866 76 817 q 367 915 218 915 q 575 882 489 915 q 609 863 601 872 q 617 831 617 854 l 617 813 q 575 779 617 764 q 367 813 486 813 q 229 788 271 813 q 188 706 188 763 q 208 638 188 664 q 285 574 228 611 l 494 443 q 620 336 583 388 q 657 208 657 285 q 338 -14 657 -14 q 113 19 204 -14 q 75 42 79 33 q 68 71 71 50 m 315 -356 q 288 -362 303 -369 q 281 -332 276 -356 q 299 -275 281 -329 q 319 -182 318 -221 q 333 -90 326 -107 q 369 -68 342 -71 q 406 -81 392 -67 q 424 -122 421 -96 q 411 -207 433 -144 q 315 -356 385 -286 z "},"ș":{"ha":636,"x_min":65,"x_max":568,"o":"m 65 64 l 65 75 q 75 109 65 101 q 110 111 85 117 q 314 83 213 83 q 431 101 397 83 q 465 163 465 118 q 446 217 465 196 q 375 263 426 238 l 206 343 q 106 417 135 378 q 76 524 76 456 q 136 656 76 614 q 322 699 196 699 q 496 672 422 699 q 529 654 521 664 q 538 621 538 644 l 538 608 q 527 575 538 582 q 493 575 517 568 q 319 601 415 601 q 211 583 243 601 q 179 524 179 565 q 253 432 179 465 l 429 351 q 537 276 506 317 q 568 165 568 235 q 504 29 568 72 q 306 -14 440 -14 q 110 13 203 -14 q 74 31 83 19 q 65 64 65 42 m 260 -356 q 232 -362 247 -369 q 225 -332 221 -356 q 243 -275 225 -329 q 264 -182 263 -221 q 278 -90 271 -107 q 314 -68 286 -71 q 351 -81 336 -67 q 368 -122 365 -96 q 356 -207 378 -144 q 260 -356 329 -286 z "},"Ț":{"ha":769,"x_min":40,"x_max":729,"o":"m 40 844 l 40 860 q 49 894 40 886 q 83 903 57 903 l 686 903 q 721 894 713 903 q 729 860 729 886 l 729 844 q 721 810 729 818 q 686 801 713 801 l 439 801 l 439 47 q 429 10 439 19 q 392 0 419 0 l 378 0 q 340 10 350 0 q 331 47 331 19 l 331 801 l 83 801 q 49 810 57 801 q 40 844 40 818 m 329 -356 q 301 -362 317 -369 q 294 -332 290 -356 q 313 -275 294 -329 q 333 -182 332 -221 q 347 -90 340 -107 q 383 -68 356 -71 q 420 -81 406 -67 q 438 -122 435 -96 q 425 -207 447 -144 q 329 -356 399 -286 z "},"ț":{"ha":558,"x_min":19,"x_max":533,"o":"m 19 624 l 19 631 q 27 663 19 654 q 57 674 35 671 l 136 685 l 151 828 q 161 858 153 850 q 193 865 169 865 l 203 865 q 233 858 225 865 q 240 828 240 850 l 240 685 l 465 685 q 500 676 492 685 q 508 642 508 668 l 508 629 q 500 594 508 603 q 465 586 492 586 l 240 586 l 240 233 q 272 122 240 157 q 368 86 303 86 q 492 100 446 86 q 524 98 515 106 q 533 64 533 90 l 533 51 q 524 19 533 31 q 490 1 515 8 q 369 -12 439 -12 q 136 233 136 -12 l 136 586 l 57 586 q 26 593 33 586 q 19 624 19 600 m 274 -356 q 246 -362 261 -369 q 239 -332 235 -356 q 257 -275 239 -329 q 278 -182 276 -221 q 292 -90 285 -107 q 328 -68 300 -71 q 365 -81 350 -67 q 382 -122 379 -96 q 369 -207 392 -144 q 274 -356 343 -286 z "},"ˆ":{"ha":511,"x_min":99,"x_max":418,"o":"m 107 1074 l 160 1156 q 206 1210 186 1196 q 258 1224 225 1224 q 313 1210 293 1224 q 357 1156 332 1196 l 410 1074 q 418 1049 422 1056 q 392 1042 414 1042 l 381 1042 q 324 1074 343 1042 l 292 1128 q 225 1128 258 1186 l 194 1074 q 138 1042 175 1042 l 125 1042 q 99 1049 103 1042 q 107 1074 96 1056 z "},"ˇ":{"ha":511,"x_min":96,"x_max":415,"o":"m 157 1108 l 104 1190 q 96 1215 92 1208 q 122 1222 100 1222 l 135 1222 q 192 1190 172 1222 l 222 1136 q 289 1136 256 1078 l 321 1190 q 378 1222 340 1222 l 389 1222 q 415 1215 411 1222 q 407 1190 418 1208 l 354 1108 q 310 1054 329 1068 q 256 1040 290 1040 q 203 1054 222 1040 q 157 1108 183 1068 z "},"˘":{"ha":550,"x_min":99,"x_max":451,"o":"m 99 1182 l 99 1176 q 106 1203 99 1196 q 132 1210 113 1210 l 143 1210 q 169 1203 163 1210 q 176 1176 176 1196 l 176 1182 q 199 1126 176 1143 q 275 1110 222 1110 q 351 1127 328 1110 q 374 1183 374 1144 l 374 1176 q 381 1203 374 1196 q 407 1210 388 1210 l 418 1210 q 444 1203 438 1210 q 451 1176 451 1196 l 451 1182 q 275 1042 451 1042 q 99 1182 99 1042 z "},"˙":{"ha":264,"x_min":64,"x_max":200,"o":"m 181 1061 q 171 1051 181 1061 q 132 1042 161 1042 q 83 1061 103 1042 q 64 1110 64 1081 q 83 1158 64 1139 q 132 1178 103 1178 q 181 1158 161 1178 q 200 1110 200 1139 q 181 1061 200 1081 z "},"˚":{"ha":381,"x_min":69,"x_max":311,"o":"m 189 1042 q 103 1075 138 1042 q 69 1161 69 1108 q 103 1249 69 1217 q 189 1282 136 1282 q 277 1249 243 1282 q 311 1161 311 1215 q 277 1074 311 1107 q 189 1042 243 1042 m 189 1097 q 236 1116 218 1097 q 254 1161 254 1135 q 189 1226 254 1226 q 143 1208 160 1226 q 126 1161 126 1190 q 144 1116 126 1135 q 189 1097 161 1097 z "},"˛":{"ha":343,"x_min":67,"x_max":279,"o":"m 199 0 l 279 0 q 175 -78 197 -53 q 153 -140 153 -104 q 166 -187 153 -174 q 210 -200 179 -200 q 242 -197 211 -200 q 267 -199 261 -194 q 274 -222 274 -204 l 274 -232 q 267 -258 274 -250 q 240 -268 260 -265 q 192 -272 217 -272 q 97 -244 126 -272 q 67 -153 67 -217 q 94 -67 67 -99 q 199 0 124 -36 z "},"˜":{"ha":647,"x_min":111,"x_max":539,"o":"m 150 1068 l 140 1068 q 116 1074 122 1068 q 111 1094 110 1079 q 232 1219 122 1219 q 339 1175 278 1219 q 422 1131 400 1131 q 469 1183 463 1131 q 477 1204 471 1199 q 501 1210 483 1210 l 510 1210 q 534 1204 528 1210 q 539 1183 540 1199 q 418 1058 531 1058 q 311 1103 372 1058 q 229 1147 250 1147 q 182 1094 189 1147 q 174 1074 181 1079 q 150 1068 168 1068 z "},"˝":{"ha":536,"x_min":89,"x_max":453,"o":"m 442 1190 l 372 1075 q 313 1042 351 1042 l 299 1042 q 272 1049 276 1042 q 278 1076 268 1056 l 336 1189 q 364 1222 350 1214 q 406 1231 378 1231 l 419 1231 q 452 1222 447 1231 q 442 1190 457 1214 m 260 1190 l 190 1075 q 131 1042 169 1042 l 117 1042 q 89 1049 93 1042 q 96 1076 85 1056 l 154 1189 q 182 1222 168 1214 q 224 1231 196 1231 l 238 1231 q 270 1222 265 1231 q 260 1190 275 1214 z "},"̀":{"ha":0,"x_min":-444,"x_max":-262,"o":"m -364 796 l -433 911 q -444 943 -449 935 q -411 951 -439 951 l -397 951 q -356 943 -369 951 q -328 910 -342 935 l -269 797 q -262 769 -258 776 q -290 763 -267 763 l -304 763 q -364 796 -343 763 z "},"́":{"ha":0,"x_min":-392,"x_max":-211,"o":"m -222 911 l -292 796 q -351 763 -312 763 l -365 763 q -392 769 -387 763 q -386 797 -396 776 l -328 910 q -300 943 -314 935 q -258 951 -286 951 l -244 951 q -212 943 -217 951 q -222 911 -207 935 z "},"̃":{"ha":0,"x_min":-553,"x_max":-125,"o":"m -514 786 l -524 786 q -548 792 -542 786 q -553 813 -554 797 q -432 938 -542 938 q -325 893 -386 938 q -242 849 -264 849 q -194 901 -201 849 q -187 922 -193 917 q -162 928 -181 928 l -154 928 q -130 922 -136 928 q -125 901 -124 917 q -246 776 -133 776 q -353 821 -292 776 q -435 865 -414 865 q -482 813 -475 865 q -490 792 -483 797 q -514 786 -496 786 z "},"̉":{"ha":0,"x_min":-431,"x_max":-212,"o":"m -393 774 l -407 828 q -407 850 -411 846 q -383 851 -403 854 q -354 850 -376 850 q -306 860 -319 850 q -292 897 -292 871 q -307 938 -292 926 q -360 949 -322 949 q -404 944 -383 949 q -431 967 -431 939 l -431 975 q -426 997 -431 990 q -406 1006 -421 1003 q -350 1013 -375 1013 q -246 985 -279 1013 q -212 897 -212 958 q -337 804 -212 789 l -329 774 q -340 760 -325 760 l -375 760 q -393 774 -389 760 z "},"̣":{"ha":0,"x_min":-406,"x_max":-269,"o":"m -289 -199 q -299 -208 -289 -199 q -337 -218 -308 -218 q -386 -199 -367 -218 q -406 -150 -406 -179 q -386 -101 -406 -121 q -337 -82 -367 -82 q -289 -101 -308 -82 q -269 -150 -269 -121 q -289 -199 -269 -179 z "},"Ё":{"ha":753,"x_min":106,"x_max":692,"o":"m 256 1063 q 274 1108 256 1089 q 318 1126 292 1126 q 363 1108 344 1126 q 381 1063 381 1090 q 363 1019 381 1038 q 318 1001 344 1001 q 274 1019 292 1001 q 256 1063 256 1038 m 481 1063 q 499 1108 481 1089 q 544 1126 518 1126 q 588 1108 569 1126 q 606 1063 606 1089 q 588 1019 606 1038 q 544 1001 569 1001 q 499 1019 518 1001 q 481 1063 481 1038 m 593 419 l 214 419 l 214 167 q 229 117 214 132 q 279 101 244 101 l 649 101 q 683 93 675 101 q 692 58 692 85 l 692 43 q 683 8 692 17 q 649 0 675 0 l 256 0 q 141 36 176 0 q 106 150 106 72 l 106 753 q 141 867 106 831 q 256 903 176 903 l 649 903 q 683 894 675 903 q 692 860 692 886 l 692 844 q 683 810 692 818 q 649 801 675 801 l 279 801 q 229 786 244 801 q 214 736 214 771 l 214 521 l 593 521 q 628 513 619 521 q 636 478 636 504 l 636 463 q 628 428 636 436 q 593 419 619 419 z "},"Ђ":{"ha":1076,"x_min":40,"x_max":972,"o":"m 972 161 q 926 -81 972 17 q 800 -244 881 -178 q 767 -258 779 -261 q 740 -232 756 -256 l 733 -221 q 721 -185 719 -197 q 742 -158 722 -174 q 864 161 864 -58 q 805 346 864 286 q 618 406 746 406 q 439 378 526 406 l 439 47 q 429 10 439 19 q 392 0 419 0 l 378 0 q 340 10 350 0 q 331 47 331 19 l 331 801 l 83 801 q 49 810 57 801 q 40 844 40 818 l 40 860 q 49 894 40 886 q 83 903 57 903 l 686 903 q 721 894 713 903 q 729 860 729 886 l 729 844 q 721 810 729 818 q 686 801 713 801 l 439 801 l 439 481 q 615 507 508 507 q 885 423 799 507 q 972 161 972 339 z "},"Ѓ":{"ha":753,"x_min":106,"x_max":692,"o":"m 496 1118 l 426 1003 q 367 969 406 969 l 353 969 q 326 976 331 969 q 332 1004 322 983 l 390 1117 q 418 1150 404 1142 q 460 1158 432 1158 l 474 1158 q 506 1150 501 1158 q 496 1118 511 1142 m 214 736 l 214 47 q 204 10 214 19 q 167 0 194 0 l 153 0 q 115 10 125 0 q 106 47 106 19 l 106 753 q 141 867 106 831 q 256 903 176 903 l 649 903 q 683 894 675 903 q 692 860 692 886 l 692 844 q 683 810 692 818 q 649 801 675 801 l 279 801 q 229 786 244 801 q 214 736 214 771 z "},"Є":{"ha":728,"x_min":78,"x_max":674,"o":"m 457 419 l 188 419 l 188 332 q 246 147 188 207 q 432 88 304 88 q 632 124 536 88 q 665 126 656 133 q 674 93 674 119 l 674 76 q 665 43 674 54 q 632 21 657 32 q 435 -14 558 -14 q 165 70 251 -14 q 78 332 78 154 l 78 554 q 432 915 78 915 q 625 879 532 915 q 657 859 649 869 q 665 826 665 849 l 665 808 q 622 776 665 758 q 428 814 535 814 q 245 751 303 814 q 188 554 188 689 l 188 521 l 457 521 q 492 513 483 521 q 500 478 500 504 l 500 463 q 492 428 500 436 q 457 419 483 419 z "},"Ѕ":{"ha":719,"x_min":68,"x_max":657,"o":"m 68 71 l 68 90 q 110 125 68 139 q 340 89 211 89 q 499 116 450 89 q 547 207 547 143 q 522 286 547 256 q 419 363 496 317 l 214 489 q 76 710 76 572 q 147 866 76 817 q 367 915 218 915 q 575 882 489 915 q 609 863 601 872 q 617 831 617 854 l 617 813 q 575 779 617 764 q 367 813 486 813 q 229 788 271 813 q 188 706 188 763 q 208 638 188 664 q 285 574 228 611 l 494 443 q 620 336 583 388 q 657 208 657 285 q 338 -14 657 -14 q 113 19 204 -14 q 75 42 79 33 q 68 71 71 50 z "},"І":{"ha":336,"x_min":114,"x_max":222,"o":"m 114 47 l 114 856 q 124 893 114 883 q 161 903 133 903 l 175 903 q 213 893 203 903 q 222 856 222 883 l 222 47 q 213 10 222 19 q 175 0 203 0 l 161 0 q 124 10 133 0 q 114 47 114 19 z "},"Ї":{"ha":336,"x_min":-7,"x_max":343,"o":"m 114 47 l 114 856 q 124 893 114 883 q 161 903 133 903 l 175 903 q 213 893 203 903 q 222 856 222 883 l 222 47 q 213 10 222 19 q 175 0 203 0 l 161 0 q 124 10 133 0 q 114 47 114 19 m -7 1063 q 11 1108 -7 1089 q 56 1126 29 1126 q 100 1108 82 1126 q 118 1063 118 1090 q 100 1019 118 1038 q 56 1001 82 1001 q 11 1019 29 1001 q -7 1063 -7 1038 m 218 1063 q 237 1108 218 1089 q 282 1126 256 1126 q 325 1108 307 1126 q 343 1063 343 1089 q 325 1019 343 1038 q 282 1001 307 1001 q 237 1019 256 1001 q 218 1063 218 1038 z "},"Ј":{"ha":336,"x_min":-28,"x_max":224,"o":"m 224 856 l 224 188 q 178 -81 224 17 q 51 -244 132 -178 q 19 -258 31 -261 q -8 -232 7 -256 l -15 -221 q -28 -185 -29 -197 q -7 -158 -26 -174 q 115 182 115 -58 l 115 856 q 125 893 115 883 q 163 903 135 903 l 176 903 q 214 893 204 903 q 224 856 224 883 z "},"Љ":{"ha":1435,"x_min":111,"x_max":1363,"o":"m 718 150 l 718 736 q 703 786 718 771 q 653 801 688 801 l 428 801 q 378 786 393 801 q 363 736 363 771 l 363 447 q 317 179 363 278 q 190 15 271 82 q 158 1 169 -1 q 131 28 146 4 l 124 39 q 111 74 110 63 q 132 101 113 86 q 254 442 254 201 l 254 753 q 290 867 254 831 q 404 903 325 903 l 676 903 q 791 867 756 903 q 826 753 826 831 l 826 514 l 1060 514 q 1290 452 1218 514 q 1363 263 1363 390 l 1363 251 q 1290 62 1363 124 q 1060 0 1218 0 l 868 0 q 753 36 789 0 q 718 150 718 72 m 1043 413 l 826 413 l 826 167 q 842 117 826 132 q 892 101 857 101 l 1043 101 q 1206 137 1160 101 q 1253 257 1253 172 q 1206 377 1253 342 q 1043 413 1160 413 z "},"Њ":{"ha":1356,"x_min":106,"x_max":1283,"o":"m 639 150 l 639 425 l 214 425 l 214 47 q 204 10 214 19 q 167 0 194 0 l 153 0 q 115 10 125 0 q 106 47 106 19 l 106 856 q 115 893 106 883 q 153 903 125 903 l 167 903 q 204 893 194 903 q 214 856 214 883 l 214 526 l 639 526 l 639 856 q 649 893 639 883 q 686 903 658 903 l 700 903 q 738 893 728 903 q 747 856 747 883 l 747 514 l 981 514 q 1211 452 1139 514 q 1283 263 1283 390 l 1283 251 q 1211 62 1283 124 q 981 0 1139 0 l 789 0 q 674 36 710 0 q 639 150 639 72 m 964 413 l 747 413 l 747 167 q 763 117 747 132 q 813 101 778 101 l 964 101 q 1127 137 1081 101 q 1174 257 1174 172 q 1127 377 1174 342 q 964 413 1081 413 z "},"Ћ":{"ha":1076,"x_min":40,"x_max":972,"o":"m 439 378 l 439 47 q 429 10 439 19 q 392 0 419 0 l 378 0 q 340 10 350 0 q 331 47 331 19 l 331 801 l 83 801 q 49 810 57 801 q 40 844 40 818 l 40 860 q 49 894 40 886 q 83 903 57 903 l 686 903 q 721 894 713 903 q 729 860 729 886 l 729 844 q 721 810 729 818 q 686 801 713 801 l 439 801 l 439 481 q 615 507 508 507 q 885 423 799 507 q 972 161 972 339 l 972 47 q 963 10 972 19 q 925 0 953 0 l 911 0 q 874 10 883 0 q 864 47 864 19 l 864 161 q 805 346 864 286 q 618 406 746 406 q 439 378 526 406 z "},"Ќ":{"ha":768,"x_min":106,"x_max":733,"o":"m 496 1118 l 426 1003 q 367 969 406 969 l 353 969 q 326 976 331 969 q 332 1004 322 983 l 390 1117 q 418 1150 404 1142 q 460 1158 432 1158 l 474 1158 q 506 1150 501 1158 q 496 1118 511 1142 m 344 610 l 556 860 q 597 894 579 886 q 650 903 615 903 l 667 903 q 706 894 701 903 q 688 860 710 886 l 433 557 q 381 471 381 492 q 433 386 381 451 l 715 44 q 733 8 738 17 q 694 0 729 0 l 678 0 q 626 9 644 0 q 585 44 607 18 l 344 333 q 276 474 276 414 q 344 610 276 533 m 106 47 l 106 856 q 115 893 106 883 q 153 903 125 903 l 167 903 q 204 893 194 903 q 214 856 214 883 l 214 47 q 204 10 214 19 q 167 0 194 0 l 153 0 q 115 10 125 0 q 106 47 106 19 z "},"Ў":{"ha":842,"x_min":42,"x_max":811,"o":"m 228 1113 q 236 1137 228 1131 q 265 1143 244 1143 l 278 1143 q 308 1135 300 1143 q 315 1106 315 1128 q 426 1031 315 1031 q 538 1106 538 1031 q 545 1135 538 1128 q 575 1143 553 1143 l 588 1143 q 617 1137 608 1143 q 625 1113 625 1131 q 426 954 625 954 q 228 1113 228 954 m 801 857 l 365 47 q 335 10 351 19 q 288 0 319 0 l 272 0 q 235 10 242 0 q 244 46 229 19 l 417 365 q 372 372 382 369 q 304 408 328 383 q 236 515 283 429 l 51 857 q 42 893 36 883 q 79 903 49 903 l 94 903 q 142 893 126 903 q 172 856 158 883 l 332 558 q 379 481 364 496 q 426 464 396 464 q 474 481 457 464 q 521 558 489 496 l 681 856 q 710 893 694 883 q 758 903 726 903 l 774 903 q 810 893 804 903 q 801 857 817 883 z "},"Џ":{"ha":851,"x_min":106,"x_max":747,"o":"m 214 856 l 214 167 q 229 117 214 132 q 279 101 244 101 l 574 101 q 624 117 608 101 q 639 167 639 132 l 639 856 q 649 893 639 883 q 686 903 658 903 l 700 903 q 738 893 728 903 q 747 856 747 883 l 747 150 q 712 36 747 72 q 597 0 676 0 l 481 0 l 481 -231 q 471 -268 481 -258 q 433 -278 461 -278 l 419 -278 q 382 -268 392 -278 q 372 -231 372 -258 l 372 0 l 256 0 q 141 36 176 0 q 106 150 106 72 l 106 856 q 115 893 106 883 q 153 903 125 903 l 167 903 q 204 893 194 903 q 214 856 214 883 z "},"А":{"ha":846,"x_min":49,"x_max":811,"o":"m 625 711 l 811 46 q 811 10 818 19 q 776 0 804 0 l 763 0 q 722 9 733 0 q 703 46 710 18 l 638 279 l 222 279 l 158 46 q 140 9 151 18 q 99 0 128 0 l 83 0 q 49 10 56 0 q 49 46 42 19 l 235 711 q 306 872 268 831 q 431 915 344 915 q 554 872 517 915 q 625 711 593 831 m 344 724 l 249 378 l 611 378 l 515 724 q 483 799 500 781 q 431 818 465 818 q 377 799 394 818 q 344 724 360 781 z "},"Б":{"ha":822,"x_min":106,"x_max":750,"o":"m 214 736 l 214 514 l 447 514 q 678 452 606 514 q 750 263 750 390 l 750 251 q 678 62 750 124 q 447 0 606 0 l 256 0 q 141 36 176 0 q 106 150 106 72 l 106 753 q 141 867 106 831 q 256 903 176 903 l 649 903 q 683 894 675 903 q 692 860 692 886 l 692 844 q 683 810 692 818 q 649 801 675 801 l 279 801 q 229 786 244 801 q 214 736 214 771 m 431 413 l 214 413 l 214 167 q 229 117 214 132 q 279 101 244 101 l 431 101 q 594 137 547 101 q 640 257 640 172 q 594 377 640 342 q 431 413 547 413 z "},"В":{"ha":822,"x_min":106,"x_max":750,"o":"m 256 903 l 425 903 q 650 844 578 903 q 722 667 722 786 q 688 533 722 579 q 572 467 654 486 l 572 464 q 709 397 668 447 q 750 251 750 346 q 678 62 750 124 q 447 0 606 0 l 256 0 q 141 36 176 0 q 106 150 106 72 l 106 753 q 141 867 106 831 q 256 903 176 903 m 447 414 l 214 414 l 214 167 q 229 117 214 132 q 279 101 244 101 l 431 101 q 594 137 547 101 q 640 257 640 172 q 597 377 640 340 q 447 414 553 414 m 425 801 l 279 801 q 229 786 244 801 q 214 736 214 771 l 214 510 l 425 510 q 569 544 526 510 q 613 657 613 579 q 569 767 613 733 q 425 801 526 801 z "},"Г":{"ha":753,"x_min":106,"x_max":692,"o":"m 214 736 l 214 47 q 204 10 214 19 q 167 0 194 0 l 153 0 q 115 10 125 0 q 106 47 106 19 l 106 753 q 141 867 106 831 q 256 903 176 903 l 649 903 q 683 894 675 903 q 692 860 692 886 l 692 844 q 683 810 692 818 q 649 801 675 801 l 279 801 q 229 786 244 801 q 214 736 214 771 z "},"Д":{"ha":931,"x_min":14,"x_max":935,"o":"m 122 -65 l 122 -231 q 113 -268 122 -258 q 75 -278 103 -278 l 61 -278 q 24 -268 33 -278 q 14 -231 14 -258 l 14 -49 q 46 63 14 25 q 132 101 78 101 q 254 442 254 201 l 254 753 q 290 867 254 831 q 404 903 325 903 l 676 903 q 791 867 756 903 q 826 753 826 831 l 826 101 q 904 62 874 101 q 935 -49 935 22 l 935 -231 q 925 -268 935 -258 q 888 -278 915 -278 l 874 -278 q 836 -268 846 -278 q 826 -231 826 -258 l 826 -65 q 811 -15 826 -31 q 761 0 796 0 l 188 0 q 138 -15 153 0 q 122 -65 122 -31 m 363 736 l 363 447 q 317 179 363 278 q 272 101 294 132 l 718 101 l 718 736 q 703 786 718 771 q 653 801 688 801 l 428 801 q 378 786 393 801 q 363 736 363 771 z "},"Е":{"ha":753,"x_min":106,"x_max":692,"o":"m 593 419 l 214 419 l 214 167 q 229 117 214 132 q 279 101 244 101 l 649 101 q 683 93 675 101 q 692 58 692 85 l 692 43 q 683 8 692 17 q 649 0 675 0 l 256 0 q 141 36 176 0 q 106 150 106 72 l 106 753 q 141 867 106 831 q 256 903 176 903 l 649 903 q 683 894 675 903 q 692 860 692 886 l 692 844 q 683 810 692 818 q 649 801 675 801 l 279 801 q 229 786 244 801 q 214 736 214 771 l 214 521 l 593 521 q 628 513 619 521 q 636 478 636 504 l 636 463 q 628 428 636 436 q 593 419 619 419 z "},"Ж":{"ha":1217,"x_min":35,"x_max":1182,"o":"m 213 860 l 424 610 q 492 474 492 533 q 424 333 492 414 l 183 44 q 142 9 161 18 q 90 0 124 0 l 74 0 q 35 8 39 0 q 53 44 31 17 l 335 386 q 388 471 388 451 q 335 557 388 492 l 81 860 q 63 894 58 886 q 101 903 67 903 l 118 903 q 171 894 153 903 q 213 860 189 886 m 663 856 l 663 47 q 653 10 663 19 q 615 0 643 0 l 601 0 q 564 10 574 0 q 554 47 554 19 l 554 856 q 564 893 554 883 q 601 903 574 903 l 615 903 q 653 893 643 903 q 663 856 663 883 m 793 610 l 1004 860 q 1046 894 1028 886 q 1099 903 1064 903 l 1115 903 q 1154 894 1150 903 q 1136 860 1158 886 l 882 557 q 829 471 829 492 q 882 386 829 451 l 1164 44 q 1182 8 1186 17 q 1143 0 1178 0 l 1126 0 q 1074 9 1093 0 q 1033 44 1056 18 l 793 333 q 725 474 725 414 q 793 610 725 533 z "},"З":{"ha":736,"x_min":54,"x_max":664,"o":"m 293 -14 q 96 21 169 -14 q 63 43 71 32 q 54 76 54 54 l 54 93 q 63 126 54 119 q 96 124 72 133 q 296 88 192 88 q 486 131 418 88 q 554 257 554 175 q 510 377 554 340 q 361 414 467 414 l 271 414 q 236 422 244 414 q 228 457 228 431 l 228 467 q 236 501 228 493 q 271 510 244 510 l 339 510 q 483 544 440 510 q 526 657 526 579 q 466 772 526 731 q 300 814 406 814 q 106 776 193 814 q 63 808 63 758 l 63 826 q 71 859 63 849 q 103 879 79 869 q 296 915 196 915 q 546 849 456 915 q 636 667 636 782 q 602 533 636 579 q 486 467 568 486 l 486 464 q 623 397 582 447 q 664 251 664 346 q 561 58 664 132 q 293 -14 460 -14 z "},"И":{"ha":851,"x_min":106,"x_max":747,"o":"m 214 856 l 214 213 l 644 888 q 686 903 656 903 l 700 903 q 738 893 728 903 q 747 856 747 883 l 747 47 q 738 10 747 19 q 700 0 728 0 l 686 0 q 649 10 658 0 q 639 47 639 19 l 639 690 l 208 15 q 167 0 197 0 l 153 0 q 115 10 125 0 q 106 47 106 19 l 106 856 q 115 893 106 883 q 153 903 125 903 l 167 903 q 204 893 194 903 q 214 856 214 883 z "},"Й":{"ha":851,"x_min":106,"x_max":747,"o":"m 214 856 l 214 213 l 644 888 q 686 903 656 903 l 700 903 q 738 893 728 903 q 747 856 747 883 l 747 47 q 738 10 747 19 q 700 0 728 0 l 686 0 q 649 10 658 0 q 639 47 639 19 l 639 690 l 208 15 q 167 0 197 0 l 153 0 q 115 10 125 0 q 106 47 106 19 l 106 856 q 115 893 106 883 q 153 903 125 903 l 167 903 q 204 893 194 903 q 214 856 214 883 m 228 1113 q 236 1137 228 1131 q 265 1143 244 1143 l 278 1143 q 308 1135 300 1143 q 315 1106 315 1128 q 426 1031 315 1031 q 538 1106 538 1031 q 545 1135 538 1128 q 575 1143 553 1143 l 588 1143 q 617 1137 608 1143 q 625 1113 625 1131 q 426 954 625 954 q 228 1113 228 954 z "},"К":{"ha":768,"x_min":106,"x_max":733,"o":"m 344 610 l 556 860 q 597 894 579 886 q 650 903 615 903 l 667 903 q 706 894 701 903 q 688 860 710 886 l 433 557 q 381 471 381 492 q 433 386 381 451 l 715 44 q 733 8 738 17 q 694 0 729 0 l 678 0 q 626 9 644 0 q 585 44 607 18 l 344 333 q 276 474 276 414 q 344 610 276 533 m 106 47 l 106 856 q 115 893 106 883 q 153 903 125 903 l 167 903 q 204 893 194 903 q 214 856 214 883 l 214 47 q 204 10 214 19 q 167 0 194 0 l 153 0 q 115 10 125 0 q 106 47 106 19 z "},"Л":{"ha":931,"x_min":111,"x_max":826,"o":"m 779 0 l 765 0 q 728 10 738 0 q 718 47 718 19 l 718 736 q 703 786 718 771 q 653 801 688 801 l 428 801 q 378 786 393 801 q 363 736 363 771 l 363 447 q 317 179 363 278 q 190 15 271 82 q 158 1 169 -1 q 131 28 146 4 l 124 39 q 111 74 110 63 q 132 101 113 86 q 254 442 254 201 l 254 753 q 290 867 254 831 q 404 903 325 903 l 676 903 q 791 867 756 903 q 826 753 826 831 l 826 47 q 817 10 826 19 q 779 0 807 0 z "},"М":{"ha":1106,"x_min":53,"x_max":1056,"o":"m 1006 725 l 1056 47 q 1048 10 1057 19 q 1011 0 1039 0 l 996 0 q 958 9 968 0 q 946 47 949 18 l 897 735 q 881 797 894 781 q 833 814 867 814 q 793 797 807 814 q 772 735 779 779 l 685 129 q 646 29 675 58 q 554 0 617 0 q 464 30 494 0 q 424 129 433 60 l 336 735 q 315 797 329 779 q 274 814 300 814 q 228 797 243 814 q 211 735 214 779 l 161 47 q 149 9 158 18 q 111 0 139 0 l 97 0 q 60 10 69 0 q 53 47 51 19 l 103 725 q 150 868 110 825 q 274 911 190 911 q 388 869 350 911 q 440 725 426 826 l 518 143 q 529 99 522 110 q 554 89 536 89 q 578 100 571 89 q 590 143 586 111 l 668 725 q 721 868 682 825 q 835 911 760 911 q 958 868 918 911 q 1006 725 999 825 z "},"Н":{"ha":851,"x_min":106,"x_max":747,"o":"m 639 47 l 639 425 l 214 425 l 214 47 q 204 10 214 19 q 167 0 194 0 l 153 0 q 115 10 125 0 q 106 47 106 19 l 106 856 q 115 893 106 883 q 153 903 125 903 l 167 903 q 204 893 194 903 q 214 856 214 883 l 214 526 l 639 526 l 639 856 q 649 893 639 883 q 686 903 658 903 l 700 903 q 738 893 728 903 q 747 856 747 883 l 747 47 q 738 10 747 19 q 700 0 728 0 l 686 0 q 649 10 658 0 q 639 47 639 19 z "},"О":{"ha":864,"x_min":78,"x_max":786,"o":"m 678 349 l 678 551 q 628 751 678 692 q 432 814 578 814 q 236 751 286 814 q 186 551 186 692 l 186 349 q 236 149 186 211 q 432 88 286 88 q 628 149 578 88 q 678 349 678 211 m 432 -14 q 154 76 232 -14 q 78 349 78 165 l 78 551 q 156 824 78 733 q 432 914 233 914 q 708 824 631 914 q 786 551 786 733 l 786 349 q 708 76 786 167 q 432 -14 631 -14 z "},"П":{"ha":851,"x_min":106,"x_max":747,"o":"m 639 47 l 639 736 q 624 786 639 771 q 574 801 608 801 l 279 801 q 229 786 244 801 q 214 736 214 771 l 214 47 q 204 10 214 19 q 167 0 194 0 l 153 0 q 115 10 125 0 q 106 47 106 19 l 106 753 q 141 867 106 831 q 256 903 176 903 l 597 903 q 712 867 676 903 q 747 753 747 831 l 747 47 q 738 10 747 19 q 700 0 728 0 l 686 0 q 649 10 658 0 q 639 47 639 19 z "},"Р":{"ha":810,"x_min":106,"x_max":763,"o":"m 256 903 l 461 903 q 691 833 619 903 q 763 617 763 764 q 690 401 763 471 q 461 331 618 331 l 214 331 l 214 47 q 204 10 214 19 q 167 0 194 0 l 153 0 q 115 10 125 0 q 106 47 106 19 l 106 753 q 141 867 106 831 q 256 903 176 903 m 461 801 l 279 801 q 229 786 244 801 q 214 736 214 771 l 214 431 l 461 431 q 612 472 569 431 q 654 617 654 514 q 611 759 654 717 q 461 801 568 801 z "},"С":{"ha":728,"x_min":78,"x_max":674,"o":"m 188 554 l 188 332 q 246 147 188 207 q 432 88 304 88 q 632 124 536 88 q 665 126 656 133 q 674 93 674 119 l 674 76 q 665 43 674 54 q 632 21 657 32 q 435 -14 558 -14 q 165 70 251 -14 q 78 332 78 154 l 78 554 q 432 915 78 915 q 625 879 532 915 q 657 859 649 869 q 665 826 665 849 l 665 808 q 622 776 665 758 q 428 814 535 814 q 245 751 303 814 q 188 554 188 689 z "},"Т":{"ha":769,"x_min":40,"x_max":729,"o":"m 40 844 l 40 860 q 49 894 40 886 q 83 903 57 903 l 686 903 q 721 894 713 903 q 729 860 729 886 l 729 844 q 721 810 729 818 q 686 801 713 801 l 439 801 l 439 47 q 429 10 439 19 q 392 0 419 0 l 378 0 q 340 10 350 0 q 331 47 331 19 l 331 801 l 83 801 q 49 810 57 801 q 40 844 40 818 z "},"У":{"ha":842,"x_min":42,"x_max":811,"o":"m 801 857 l 365 47 q 335 10 351 19 q 288 0 319 0 l 272 0 q 235 10 242 0 q 244 46 229 19 l 417 365 q 372 372 382 369 q 304 408 328 383 q 236 515 283 429 l 51 857 q 42 893 36 883 q 79 903 49 903 l 94 903 q 142 893 126 903 q 172 856 158 883 l 332 558 q 379 481 364 496 q 426 464 396 464 q 474 481 457 464 q 521 558 489 496 l 681 856 q 710 893 694 883 q 758 903 726 903 l 774 903 q 810 893 804 903 q 801 857 817 883 z "},"Ф":{"ha":864,"x_min":78,"x_max":786,"o":"m 378 47 l 378 126 q 154 215 218 139 q 78 446 78 304 l 78 454 q 156 685 78 594 q 378 772 221 763 l 378 856 q 388 893 378 883 q 425 903 397 903 l 439 903 q 476 893 467 903 q 486 856 486 883 l 486 772 q 708 685 643 763 q 786 454 786 594 l 786 446 q 710 215 786 304 q 486 126 646 139 l 486 47 q 476 10 486 19 q 439 0 467 0 l 425 0 q 388 10 397 0 q 378 47 378 19 m 678 446 l 678 454 q 628 613 678 553 q 486 672 588 663 l 486 229 q 628 288 589 238 q 678 446 678 350 m 236 288 q 378 229 275 238 l 378 672 q 236 613 276 663 q 186 454 186 553 l 186 446 q 236 288 186 350 z "},"Х":{"ha":835,"x_min":64,"x_max":782,"o":"m 703 903 l 717 903 q 754 893 749 903 q 746 856 760 883 l 614 593 q 525 476 564 493 q 614 361 568 457 l 774 47 q 782 10 788 19 q 744 0 776 0 l 729 0 q 682 10 697 0 q 653 47 667 19 l 510 342 q 469 412 485 396 q 422 428 453 428 q 378 413 393 428 q 336 342 364 397 l 193 47 q 164 10 179 19 q 117 0 149 0 l 101 0 q 64 10 69 0 q 72 47 58 19 l 231 361 q 278 441 260 417 q 321 476 297 465 q 232 593 282 493 l 100 856 q 92 893 86 883 q 129 903 97 903 l 143 903 q 190 893 175 903 q 219 856 206 883 l 336 613 q 378 542 363 558 q 422 526 394 526 q 467 542 451 526 q 510 613 483 558 l 626 856 q 656 893 640 883 q 703 903 671 903 z "},"Ц":{"ha":851,"x_min":106,"x_max":856,"o":"m 682 0 l 256 0 q 141 36 176 0 q 106 150 106 72 l 106 856 q 115 893 106 883 q 153 903 125 903 l 167 903 q 204 893 194 903 q 214 856 214 883 l 214 167 q 229 117 214 132 q 279 101 244 101 l 639 101 l 639 856 q 649 893 639 883 q 686 903 658 903 l 700 903 q 738 893 728 903 q 747 856 747 883 l 747 101 q 825 62 794 101 q 856 -49 856 22 l 856 -231 q 846 -268 856 -258 q 808 -278 836 -278 l 794 -278 q 757 -268 767 -278 q 747 -231 747 -258 l 747 -65 q 732 -15 747 -31 q 682 0 717 0 z "},"Ч":{"ha":851,"x_min":106,"x_max":747,"o":"m 639 47 l 639 422 q 463 396 569 396 q 192 480 279 396 q 106 742 106 564 l 106 856 q 115 893 106 883 q 153 903 125 903 l 167 903 q 204 893 194 903 q 214 856 214 883 l 214 742 q 273 557 214 617 q 460 497 332 497 q 639 525 551 497 l 639 856 q 649 893 639 883 q 686 903 658 903 l 700 903 q 738 893 728 903 q 747 856 747 883 l 747 47 q 738 10 747 19 q 700 0 728 0 l 686 0 q 649 10 658 0 q 639 47 639 19 z "},"Ш":{"ha":1290,"x_min":106,"x_max":1186,"o":"m 1036 0 l 256 0 q 141 36 176 0 q 106 150 106 72 l 106 856 q 115 893 106 883 q 153 903 125 903 l 167 903 q 204 893 194 903 q 214 856 214 883 l 214 167 q 229 117 214 132 q 279 101 244 101 l 592 101 l 592 856 q 601 893 592 883 q 639 903 611 903 l 653 903 q 690 893 681 903 q 700 856 700 883 l 700 101 l 1013 101 q 1063 117 1047 101 q 1078 167 1078 132 l 1078 856 q 1088 893 1078 883 q 1125 903 1097 903 l 1139 903 q 1176 893 1167 903 q 1186 856 1186 883 l 1186 150 q 1151 36 1186 72 q 1036 0 1115 0 z "},"Щ":{"ha":1290,"x_min":106,"x_max":1294,"o":"m 1186 856 l 1186 101 q 1264 62 1233 101 q 1294 -49 1294 22 l 1294 -231 q 1285 -268 1294 -258 q 1247 -278 1275 -278 l 1233 -278 q 1196 -268 1206 -278 q 1186 -231 1186 -258 l 1186 -65 q 1171 -15 1186 -31 q 1121 0 1156 0 l 256 0 q 141 36 176 0 q 106 150 106 72 l 106 856 q 115 893 106 883 q 153 903 125 903 l 167 903 q 204 893 194 903 q 214 856 214 883 l 214 167 q 229 117 214 132 q 279 101 244 101 l 592 101 l 592 856 q 601 893 592 883 q 639 903 611 903 l 653 903 q 690 893 681 903 q 700 856 700 883 l 700 101 l 1078 101 l 1078 856 q 1088 893 1078 883 q 1125 903 1097 903 l 1139 903 q 1176 893 1167 903 q 1186 856 1186 883 z "},"Ъ":{"ha":1040,"x_min":40,"x_max":968,"o":"m 324 150 l 324 736 q 308 786 324 771 q 258 801 293 801 l 83 801 q 49 810 57 801 q 40 844 40 818 l 40 860 q 49 894 40 886 q 83 903 57 903 l 282 903 q 397 867 361 903 q 432 753 432 831 l 432 514 l 665 514 q 896 452 824 514 q 968 263 968 390 l 968 251 q 896 62 968 124 q 665 0 824 0 l 474 0 q 359 36 394 0 q 324 150 324 72 m 649 413 l 432 413 l 432 167 q 447 117 432 132 q 497 101 463 101 l 649 101 q 812 137 765 101 q 858 257 858 172 q 812 377 858 342 q 649 413 765 413 z "},"Ы":{"ha":1129,"x_min":106,"x_max":1025,"o":"m 214 856 l 214 514 l 447 514 q 678 452 606 514 q 750 263 750 390 l 750 251 q 678 62 750 124 q 447 0 606 0 l 256 0 q 141 36 176 0 q 106 150 106 72 l 106 856 q 115 893 106 883 q 153 903 125 903 l 167 903 q 204 893 194 903 q 214 856 214 883 m 431 413 l 214 413 l 214 167 q 229 117 214 132 q 279 101 244 101 l 431 101 q 594 137 547 101 q 640 257 640 172 q 594 377 640 342 q 431 413 547 413 m 917 47 l 917 856 q 926 893 917 883 q 964 903 936 903 l 978 903 q 1015 893 1006 903 q 1025 856 1025 883 l 1025 47 q 1015 10 1025 19 q 978 0 1006 0 l 964 0 q 926 10 936 0 q 917 47 917 19 z "},"Ь":{"ha":822,"x_min":106,"x_max":750,"o":"m 214 856 l 214 514 l 447 514 q 678 452 606 514 q 750 263 750 390 l 750 251 q 678 62 750 124 q 447 0 606 0 l 256 0 q 141 36 176 0 q 106 150 106 72 l 106 856 q 115 893 106 883 q 153 903 125 903 l 167 903 q 204 893 194 903 q 214 856 214 883 m 431 413 l 214 413 l 214 167 q 229 117 214 132 q 279 101 244 101 l 431 101 q 594 137 547 101 q 640 257 640 172 q 594 377 640 342 q 431 413 547 413 z "},"Э":{"ha":728,"x_min":54,"x_max":650,"o":"m 540 332 l 540 419 l 271 419 q 236 428 244 419 q 228 463 228 436 l 228 478 q 236 513 228 504 q 271 521 244 521 l 540 521 l 540 554 q 483 751 540 689 q 300 814 425 814 q 106 776 193 814 q 63 808 63 758 l 63 826 q 71 859 63 849 q 103 879 79 869 q 296 915 196 915 q 650 554 650 915 l 650 332 q 563 70 650 154 q 293 -14 476 -14 q 96 21 169 -14 q 63 43 71 32 q 54 76 54 54 l 54 93 q 63 126 54 119 q 96 124 72 133 q 296 88 192 88 q 482 147 424 88 q 540 332 540 207 z "},"Ю":{"ha":1276,"x_min":106,"x_max":1199,"o":"m 844 -14 q 567 76 644 -14 q 490 349 490 165 l 490 425 l 214 425 l 214 47 q 204 10 214 19 q 167 0 194 0 l 153 0 q 115 10 125 0 q 106 47 106 19 l 106 856 q 115 893 106 883 q 153 903 125 903 l 167 903 q 204 893 194 903 q 214 856 214 883 l 214 526 l 490 526 l 490 551 q 568 824 490 733 q 844 914 646 914 q 1121 824 1043 914 q 1199 551 1199 733 l 1199 349 q 1121 76 1199 167 q 844 -14 1043 -14 m 1090 349 l 1090 551 q 1040 751 1090 692 q 844 814 990 814 q 649 751 699 814 q 599 551 599 692 l 599 349 q 649 149 599 211 q 844 88 699 88 q 1040 149 990 88 q 1090 349 1090 211 z "},"Я":{"ha":838,"x_min":60,"x_max":732,"o":"m 75 633 q 144 838 75 772 q 368 903 213 903 l 582 903 q 697 867 661 903 q 732 753 732 831 l 732 47 q 722 10 732 19 q 685 0 713 0 l 671 0 q 633 10 643 0 q 624 47 624 19 l 624 365 l 394 365 l 196 46 q 161 9 178 18 q 113 0 144 0 l 97 0 q 60 10 65 0 q 72 46 54 19 l 278 374 q 123 453 171 390 q 75 633 75 517 m 558 801 l 368 801 q 224 764 264 801 q 183 633 183 726 q 224 505 183 543 q 368 467 265 467 l 624 467 l 624 736 q 608 786 624 771 q 558 801 593 801 z "},"а":{"ha":671,"x_min":51,"x_max":603,"o":"m 603 481 l 603 206 q 533 38 603 90 q 313 -14 464 -14 q 119 38 186 -14 q 51 194 51 90 q 120 349 51 301 q 335 397 189 397 l 499 397 l 499 481 q 454 577 499 547 q 317 607 410 607 q 164 592 232 607 q 129 594 139 586 q 119 626 119 601 l 119 638 q 128 670 119 661 q 161 685 136 679 q 311 699 222 699 q 603 481 603 699 m 499 210 l 499 315 l 336 315 q 198 288 240 315 q 156 194 156 260 q 311 76 156 76 q 456 106 413 76 q 499 210 499 136 z "},"б":{"ha":744,"x_min":68,"x_max":676,"o":"m 478 874 l 381 874 q 220 829 268 874 q 172 683 172 785 l 172 647 q 374 699 246 699 q 603 626 531 699 q 676 407 676 554 l 676 278 q 374 -14 676 -14 q 142 58 215 -14 q 68 278 68 131 l 68 685 q 146 899 68 825 q 378 972 224 972 l 475 972 q 600 992 544 972 q 633 992 625 1000 q 642 958 642 985 l 642 944 q 633 910 642 921 q 600 892 625 900 q 478 874 550 874 m 572 278 l 572 407 q 528 556 572 511 q 374 600 483 600 q 219 557 265 600 q 172 417 174 514 l 172 278 q 217 129 172 174 q 374 85 263 85 q 528 129 483 85 q 572 278 572 174 z "},"в":{"ha":635,"x_min":82,"x_max":581,"o":"m 464 367 q 581 206 581 311 q 506 58 581 115 q 297 0 431 0 l 126 0 q 91 8 100 0 q 82 44 82 17 l 82 640 q 91 676 82 668 q 126 685 100 685 l 300 685 q 490 631 428 685 q 554 500 554 579 q 464 367 554 424 m 297 314 l 186 314 l 186 99 l 297 99 q 433 128 383 99 q 482 206 482 158 q 433 283 482 253 q 297 314 383 314 m 297 586 l 186 586 l 186 413 l 297 413 q 415 436 375 413 q 456 500 456 460 q 415 563 456 540 q 297 586 375 586 z "},"г":{"ha":607,"x_min":82,"x_max":557,"o":"m 125 685 l 514 685 q 549 676 540 685 q 557 642 557 668 l 557 629 q 549 594 557 603 q 514 586 540 586 l 186 586 l 186 44 q 178 8 186 17 q 142 0 169 0 l 126 0 q 91 8 100 0 q 82 44 82 17 l 82 642 q 90 676 82 668 q 125 685 99 685 z "},"д":{"ha":779,"x_min":50,"x_max":775,"o":"m 669 99 l 732 99 q 767 90 758 99 q 775 56 775 82 l 775 -233 q 767 -269 775 -261 q 731 -278 758 -278 l 714 -278 q 678 -269 686 -278 q 669 -233 669 -261 l 669 0 l 167 0 q 154 -3 156 -3 l 154 -233 q 146 -269 154 -261 q 110 -278 138 -278 l 94 -278 q 59 -269 68 -278 q 50 -233 50 -261 l 50 56 q 58 90 50 82 q 93 99 67 99 l 129 99 q 167 196 167 119 l 167 642 q 175 676 167 668 q 210 685 183 685 l 626 685 q 661 676 653 685 q 669 642 669 668 l 669 99 m 271 586 l 271 178 q 260 99 271 136 l 564 99 l 564 586 l 271 586 z "},"е":{"ha":714,"x_min":68,"x_max":646,"o":"m 646 421 q 642 346 646 372 q 629 311 639 319 q 592 303 619 303 l 172 303 l 172 261 q 223 126 172 167 q 389 85 274 85 q 578 111 485 85 q 613 110 603 118 q 622 75 622 101 l 622 63 q 615 31 622 40 q 579 13 607 21 q 389 -14 494 -14 q 145 55 222 -14 q 68 276 68 124 l 68 406 q 361 699 68 699 q 573 628 500 699 q 646 421 646 557 m 172 436 l 172 390 l 547 390 l 547 436 q 360 606 547 606 q 172 436 172 606 z "},"ж":{"ha":1046,"x_min":28,"x_max":1018,"o":"m 471 44 l 471 640 q 480 676 471 668 q 515 685 489 685 l 531 685 q 567 676 558 685 q 575 640 575 668 l 575 44 q 567 8 575 17 q 531 0 558 0 l 515 0 q 480 8 489 0 q 471 44 471 17 m 678 478 l 836 643 q 880 676 860 668 q 935 685 900 685 l 951 685 q 990 676 986 685 q 969 643 993 668 l 753 415 q 724 363 724 383 q 751 308 724 336 l 997 43 q 1018 8 1022 17 q 979 0 1014 0 l 963 0 q 907 8 926 0 q 864 43 888 17 l 678 244 q 621 365 621 306 q 678 478 621 417 m 210 643 l 368 478 q 425 365 425 417 q 368 244 425 306 l 182 43 q 139 8 158 17 q 83 0 119 0 l 67 0 q 28 8 32 0 q 49 43 24 17 l 294 308 q 322 363 322 336 q 293 415 322 383 l 76 643 q 56 676 53 668 q 94 685 60 685 l 111 685 q 166 676 146 685 q 210 643 186 668 z "},"з":{"ha":551,"x_min":25,"x_max":497,"o":"m 381 367 q 497 199 497 311 q 417 49 497 113 q 200 -14 338 -14 q 69 4 124 -14 q 34 22 43 11 q 25 54 25 32 l 25 68 q 34 103 25 94 q 67 103 43 111 q 200 85 117 85 q 342 118 286 85 q 399 199 399 151 q 342 280 399 246 q 200 314 286 314 q 165 322 174 314 q 157 357 157 331 l 157 369 q 165 404 157 396 q 200 413 174 413 q 325 440 278 413 q 372 507 372 467 q 325 573 372 546 q 200 600 278 600 q 81 581 136 600 q 47 580 56 572 q 39 614 39 588 l 39 628 q 47 662 39 651 q 81 681 56 672 q 203 699 131 699 q 401 640 333 699 q 471 507 471 583 q 445 428 471 467 q 381 367 419 390 z "},"и":{"ha":743,"x_min":82,"x_max":661,"o":"m 186 640 l 186 181 l 560 672 q 600 685 569 685 l 617 685 q 653 676 644 685 q 661 640 661 668 l 661 44 q 653 8 661 17 q 617 0 644 0 l 600 0 q 564 8 572 0 q 556 44 556 17 l 556 501 l 181 13 q 142 0 172 0 l 126 0 q 91 8 100 0 q 82 44 82 17 l 82 640 q 91 676 82 668 q 126 685 100 685 l 142 685 q 178 676 169 685 q 186 640 186 668 z "},"й":{"ha":743,"x_min":82,"x_max":661,"o":"m 186 640 l 186 181 l 560 672 q 600 685 569 685 l 617 685 q 653 676 644 685 q 661 640 661 668 l 661 44 q 653 8 661 17 q 617 0 644 0 l 600 0 q 564 8 572 0 q 556 44 556 17 l 556 501 l 181 13 q 142 0 172 0 l 126 0 q 91 8 100 0 q 82 44 82 17 l 82 640 q 91 676 82 668 q 126 685 100 685 l 142 685 q 178 676 169 685 q 186 640 186 668 m 196 875 l 196 869 q 203 896 196 889 q 229 903 210 903 l 240 903 q 267 896 260 903 q 274 869 274 889 l 274 875 q 297 819 274 836 q 372 803 319 803 q 448 820 425 803 q 471 876 471 838 l 471 869 q 478 896 471 889 q 504 903 485 903 l 515 903 q 542 896 535 903 q 549 869 549 889 l 549 875 q 372 735 549 735 q 196 875 196 735 z "},"к":{"ha":671,"x_min":96,"x_max":643,"o":"m 96 44 l 96 640 q 105 676 96 668 q 140 685 114 685 l 156 685 q 192 676 183 685 q 200 640 200 668 l 200 44 q 192 8 200 17 q 156 0 183 0 l 140 0 q 105 8 114 0 q 96 44 96 17 m 303 478 l 461 643 q 505 676 485 668 q 560 685 525 685 l 576 685 q 615 676 611 685 q 594 643 618 668 l 378 415 q 349 363 349 383 q 376 308 349 336 l 622 43 q 643 8 647 17 q 604 0 639 0 l 588 0 q 532 8 551 0 q 489 43 513 17 l 303 244 q 246 365 246 306 q 303 478 246 417 z "},"л":{"ha":724,"x_min":18,"x_max":642,"o":"m 243 586 l 243 365 l 243 178 q 201 39 243 86 q 82 -8 158 -8 q 57 -7 61 -8 q 26 8 33 -3 q 18 44 18 18 l 18 54 q 26 84 18 78 q 61 90 33 90 l 68 90 q 139 196 139 90 l 139 357 l 139 642 q 147 676 139 668 q 182 685 156 685 l 599 685 q 633 676 625 685 q 642 642 642 668 l 642 44 q 633 8 642 17 q 597 0 625 0 l 581 0 q 544 8 553 0 q 536 44 536 17 l 536 586 l 243 586 z "},"м":{"ha":801,"x_min":82,"x_max":719,"o":"m 126 685 l 143 685 q 183 672 178 685 l 400 154 l 618 672 q 658 685 625 685 l 675 685 q 711 676 703 685 q 719 640 719 668 l 719 44 q 711 8 719 17 q 675 0 703 0 l 658 0 q 622 8 631 0 q 614 44 614 17 l 614 408 l 451 24 q 415 0 443 0 l 385 0 q 349 24 357 0 l 188 408 l 188 44 q 179 8 188 17 q 143 0 171 0 l 126 0 q 90 8 99 0 q 82 44 82 17 l 82 640 q 90 676 82 668 q 126 685 99 685 z "},"н":{"ha":743,"x_min":82,"x_max":661,"o":"m 142 0 l 126 0 q 91 8 100 0 q 82 44 82 17 l 82 640 q 91 676 82 668 q 126 685 100 685 l 142 685 q 178 676 169 685 q 186 640 186 668 l 186 413 l 556 413 l 556 640 q 564 676 556 668 q 600 685 572 685 l 617 685 q 653 676 644 685 q 661 640 661 668 l 661 44 q 653 8 661 17 q 617 0 644 0 l 600 0 q 564 8 572 0 q 556 44 556 17 l 556 314 l 186 314 l 186 44 q 178 8 186 17 q 142 0 169 0 z "},"о":{"ha":744,"x_min":68,"x_max":676,"o":"m 572 278 l 572 407 q 528 556 572 511 q 374 600 483 600 q 217 556 263 600 q 172 407 172 511 l 172 278 q 217 129 172 174 q 374 85 263 85 q 528 129 483 85 q 572 278 572 174 m 374 -14 q 142 58 215 -14 q 68 278 68 131 l 68 407 q 374 699 68 699 q 603 626 531 699 q 676 407 676 554 l 676 278 q 374 -14 676 -14 z "},"п":{"ha":743,"x_min":82,"x_max":661,"o":"m 125 685 l 618 685 q 653 676 644 685 q 661 642 661 668 l 661 44 q 653 8 661 17 q 617 0 644 0 l 600 0 q 564 8 572 0 q 556 44 556 17 l 556 586 l 186 586 l 186 44 q 178 8 186 17 q 142 0 169 0 l 126 0 q 91 8 100 0 q 82 44 82 17 l 82 642 q 90 676 82 668 q 125 685 99 685 z "},"р":{"ha":767,"x_min":90,"x_max":699,"o":"m 90 -233 l 90 408 q 394 699 90 699 q 624 626 549 699 q 699 408 699 554 l 699 279 q 411 -14 699 -14 q 194 89 249 -14 l 194 -233 q 186 -269 194 -261 q 150 -278 178 -278 l 135 -278 q 99 -269 108 -278 q 90 -233 90 -261 m 593 278 l 593 407 q 549 556 593 513 q 394 600 506 600 q 240 556 285 600 q 194 407 194 511 l 194 278 q 240 129 194 174 q 394 85 285 85 q 549 129 504 85 q 593 278 593 174 z "},"с":{"ha":581,"x_min":68,"x_max":556,"o":"m 68 274 l 68 411 q 146 625 68 551 q 378 699 224 699 q 500 681 450 699 q 533 662 525 672 q 542 628 542 651 l 542 614 q 533 580 542 588 q 500 581 525 572 q 381 600 444 600 q 220 556 268 600 q 172 410 172 511 l 172 275 q 222 128 172 171 q 389 85 272 85 q 514 103 464 85 q 547 103 538 111 q 556 68 556 94 l 556 54 q 547 22 556 32 q 511 4 538 11 q 382 -14 457 -14 q 145 56 222 -14 q 68 274 68 126 z "},"т":{"ha":649,"x_min":47,"x_max":601,"o":"m 90 685 l 558 685 q 593 676 585 685 q 601 642 601 668 l 601 629 q 593 594 601 603 q 558 586 585 586 l 376 586 l 376 44 l 376 33 q 366 6 375 13 q 332 0 357 0 l 317 0 q 282 6 290 0 q 272 33 274 13 l 272 44 l 272 586 l 90 586 q 56 594 64 586 q 47 629 47 603 l 47 642 q 56 676 47 668 q 90 685 64 685 z "},"у":{"ha":719,"x_min":57,"x_max":678,"o":"m 163 639 l 293 160 q 323 99 306 114 q 378 83 340 83 q 427 100 410 83 q 456 160 444 117 l 571 639 q 589 675 576 665 q 629 685 601 685 l 642 685 q 678 676 671 685 q 678 639 685 667 l 518 0 q 239 -294 447 -281 q 205 -289 215 -297 q 189 -256 194 -281 l 186 -243 q 188 -212 181 -219 q 222 -201 196 -204 q 340 -144 296 -193 q 414 8 383 -96 q 344 -7 386 -7 q 247 29 279 -7 q 189 156 214 65 l 57 639 q 57 676 50 667 q 92 685 64 685 l 103 685 q 143 676 131 685 q 163 639 156 667 z "},"ф":{"ha":1249,"x_min":68,"x_max":1181,"o":"m 356 -14 q 68 279 68 -14 l 68 406 q 356 699 68 699 q 572 596 518 699 l 572 928 q 581 964 572 956 q 617 972 589 972 l 632 972 q 668 964 660 972 q 676 928 676 956 l 676 596 q 893 699 731 699 q 1181 406 1181 699 l 1181 279 q 893 -14 1181 -14 q 676 89 731 -14 l 676 -233 q 668 -269 676 -261 q 632 -278 660 -278 l 617 -278 q 581 -269 589 -278 q 572 -233 572 -261 l 572 89 q 356 -14 518 -14 m 1075 278 l 1075 407 q 1031 556 1075 511 q 876 600 986 600 q 722 557 768 600 q 676 417 676 514 l 676 268 q 722 128 676 171 q 876 85 768 85 q 1031 129 986 85 q 1075 278 1075 174 m 372 85 q 526 128 479 85 q 572 268 572 171 l 572 417 q 526 557 572 514 q 372 600 479 600 q 218 556 263 600 q 174 407 174 511 l 174 278 q 218 129 174 174 q 372 85 263 85 z "},"х":{"ha":736,"x_min":51,"x_max":693,"o":"m 206 642 l 314 458 q 342 419 331 429 q 372 410 354 410 q 402 419 390 410 q 431 458 414 429 l 539 642 q 568 676 553 667 q 614 685 583 685 l 631 685 q 665 676 661 685 q 654 642 669 668 l 543 458 q 499 390 514 408 q 463 363 483 372 q 497 336 482 354 q 543 268 513 318 l 682 43 q 693 8 697 17 q 658 0 689 0 l 642 0 q 596 8 611 0 q 565 43 581 17 l 432 265 q 400 308 411 299 q 372 318 389 318 q 344 308 356 318 q 313 265 333 299 l 179 43 q 149 8 164 17 q 103 0 133 0 l 86 0 q 51 8 56 0 q 63 43 47 17 l 203 268 l 232 315 q 281 363 254 347 q 247 388 261 371 q 201 458 232 406 l 90 642 q 79 676 75 668 q 114 685 83 685 l 131 685 q 176 676 161 685 q 206 642 192 667 z "},"ц":{"ha":771,"x_min":82,"x_max":767,"o":"m 661 0 l 125 0 q 90 8 99 0 q 82 43 82 17 l 82 640 q 91 676 82 668 q 126 685 100 685 l 142 685 q 178 676 169 685 q 186 640 186 668 l 186 99 l 556 99 l 556 640 q 564 676 556 668 q 600 685 572 685 l 617 685 q 653 676 644 685 q 661 640 661 668 l 661 99 l 724 99 q 758 90 750 99 q 767 56 767 82 l 767 -233 q 758 -269 767 -261 q 722 -278 750 -278 l 706 -278 q 669 -269 678 -278 q 661 -233 661 -261 l 661 0 z "},"ч":{"ha":743,"x_min":82,"x_max":661,"o":"m 186 640 l 186 553 q 236 406 186 449 q 403 363 286 363 q 556 390 503 363 l 556 640 q 564 676 556 668 q 600 685 572 685 l 617 685 q 653 676 644 685 q 661 640 661 668 l 661 44 q 653 8 661 17 q 617 0 644 0 l 600 0 q 564 8 572 0 q 556 44 556 17 l 556 294 q 396 264 507 264 q 159 334 236 264 q 82 551 82 404 l 82 640 q 91 676 82 668 q 126 685 100 685 l 142 685 q 178 676 169 685 q 186 640 186 668 z "},"ш":{"ha":1047,"x_min":82,"x_max":965,"o":"m 965 640 l 965 43 q 957 8 965 17 q 922 0 949 0 l 125 0 q 90 8 99 0 q 82 43 82 17 l 82 640 q 91 676 82 668 q 126 685 100 685 l 142 685 q 178 676 169 685 q 186 640 186 668 l 186 99 l 471 99 l 471 640 q 480 676 471 668 q 515 685 489 685 l 531 685 q 567 676 558 685 q 575 640 575 668 l 575 99 l 860 99 l 860 640 q 868 676 860 668 q 904 685 876 685 l 921 685 q 957 676 949 685 q 965 640 965 668 z "},"щ":{"ha":1075,"x_min":82,"x_max":1071,"o":"m 965 0 l 125 0 q 90 8 99 0 q 82 43 82 17 l 82 640 q 91 676 82 668 q 126 685 100 685 l 142 685 q 178 676 169 685 q 186 640 186 668 l 186 99 l 471 99 l 471 640 q 480 676 471 668 q 515 685 489 685 l 531 685 q 567 676 558 685 q 575 640 575 668 l 575 99 l 860 99 l 860 640 q 868 676 860 668 q 904 685 876 685 l 921 685 q 957 676 949 685 q 965 640 965 668 l 965 99 l 1028 99 q 1063 90 1054 99 q 1071 56 1071 82 l 1071 -233 q 1063 -269 1071 -261 q 1026 -278 1054 -278 l 1010 -278 q 974 -269 982 -278 q 965 -233 965 -261 l 965 0 z "},"ъ":{"ha":821,"x_min":50,"x_max":767,"o":"m 483 314 l 372 314 l 372 99 l 483 99 q 619 128 569 99 q 668 206 668 158 q 619 283 668 253 q 483 314 569 314 m 372 642 l 372 413 l 483 413 q 692 355 617 413 q 767 206 767 297 q 692 58 767 115 q 483 0 617 0 l 313 0 q 277 8 286 0 q 268 44 268 17 l 268 586 l 93 586 q 58 594 67 586 q 50 629 50 603 l 50 642 q 58 676 50 668 q 93 685 67 685 l 329 685 q 364 676 356 685 q 372 642 372 668 z "},"ы":{"ha":918,"x_min":82,"x_max":836,"o":"m 297 314 l 186 314 l 186 99 l 297 99 q 433 128 383 99 q 482 206 482 158 q 433 283 482 253 q 297 314 383 314 m 186 640 l 186 413 l 297 413 q 506 355 431 413 q 581 206 581 297 q 506 58 581 115 q 297 0 431 0 l 126 0 q 91 8 100 0 q 82 44 82 17 l 82 640 q 91 676 82 668 q 126 685 100 685 l 142 685 q 178 676 169 685 q 186 640 186 668 m 732 44 l 732 640 q 740 676 732 667 q 776 685 749 685 l 792 685 q 827 676 818 685 q 836 640 836 667 l 836 44 q 827 8 836 17 q 792 0 818 0 l 776 0 q 740 8 749 0 q 732 44 732 17 z "},"ь":{"ha":635,"x_min":82,"x_max":581,"o":"m 297 314 l 186 314 l 186 99 l 297 99 q 433 128 383 99 q 482 206 482 158 q 433 283 482 253 q 297 314 383 314 m 186 640 l 186 413 l 297 413 q 506 355 431 413 q 581 206 581 297 q 506 58 581 115 q 297 0 431 0 l 126 0 q 91 8 100 0 q 82 44 82 17 l 82 640 q 91 676 82 668 q 126 685 100 685 l 142 685 q 178 676 169 685 q 186 640 186 668 z "},"э":{"ha":581,"x_min":25,"x_max":513,"o":"m 513 411 l 513 274 q 435 56 513 126 q 199 -14 358 -14 q 69 4 124 -14 q 34 22 43 11 q 25 54 25 32 l 25 68 q 34 103 25 94 q 67 103 43 111 q 192 85 117 85 q 358 128 308 85 q 408 275 408 171 l 408 314 l 194 314 q 160 322 168 314 q 151 357 151 331 l 151 369 q 160 404 151 396 q 194 413 168 413 l 408 413 q 359 556 407 511 q 200 600 311 600 q 81 581 136 600 q 47 580 56 572 q 39 614 39 588 l 39 628 q 47 662 39 651 q 81 681 56 672 q 203 699 131 699 q 435 625 357 699 q 513 411 513 551 z "},"ю":{"ha":1029,"x_min":82,"x_max":961,"o":"m 658 -14 q 426 58 500 -14 q 353 278 353 131 l 353 314 l 186 314 l 186 44 q 178 8 186 17 q 142 0 169 0 l 126 0 q 91 8 100 0 q 82 44 82 17 l 82 640 q 91 676 82 667 q 126 685 100 685 l 142 685 q 178 676 169 685 q 186 640 186 667 l 186 413 l 353 413 q 658 699 356 699 q 888 626 815 699 q 961 407 961 554 l 961 278 q 658 -14 961 -14 m 857 278 l 857 407 q 813 556 857 511 q 658 600 768 600 q 502 556 547 600 q 457 407 457 511 l 457 278 q 502 129 457 174 q 658 85 547 85 q 813 129 768 85 q 857 278 857 174 z "},"я":{"ha":635,"x_min":28,"x_max":553,"o":"m 81 500 q 146 633 81 582 q 335 685 211 685 l 508 685 q 544 676 535 685 q 553 640 553 668 l 553 44 q 544 8 553 17 q 508 0 536 0 l 493 0 q 457 8 465 0 q 449 44 449 17 l 449 314 l 432 314 l 182 43 q 139 8 158 17 q 83 0 119 0 l 67 0 q 28 8 32 0 q 49 43 24 17 l 300 315 q 137 374 193 324 q 81 500 81 425 m 449 413 l 449 586 l 338 586 q 219 563 260 586 q 179 500 179 540 q 219 436 179 460 q 338 413 260 413 l 449 413 z "},"ё":{"ha":714,"x_min":68,"x_max":646,"o":"m 186 857 q 204 902 186 883 q 249 921 222 921 q 293 903 275 921 q 311 857 311 885 q 293 814 311 832 q 249 796 275 796 q 204 814 222 796 q 186 857 186 832 m 411 857 q 430 902 411 883 q 475 921 449 921 q 518 902 500 921 q 536 857 536 883 q 518 814 536 832 q 475 796 500 796 q 430 814 449 796 q 411 857 411 832 m 646 421 q 642 346 646 372 q 629 311 639 319 q 592 303 619 303 l 172 303 l 172 261 q 223 126 172 167 q 389 85 274 85 q 578 111 485 85 q 613 110 603 118 q 622 75 622 101 l 622 63 q 615 31 622 40 q 579 13 607 21 q 389 -14 494 -14 q 145 55 222 -14 q 68 276 68 124 l 68 406 q 361 699 68 699 q 573 628 500 699 q 646 421 646 557 m 172 436 l 172 390 l 547 390 l 547 436 q 360 606 547 606 q 172 436 172 606 z "}}}
